<?xml version="1.0" encoding="utf-8"?>
<!-- Generator: Adobe Illustrator 25.2.0, SVG Export Plug-In . SVG Version: 6.00 Build 0)  -->
<svg version="1.1" id="Layer_1" xmlns="http://www.w3.org/2000/svg" xmlns:xlink="http://www.w3.org/1999/xlink" x="0px" y="0px"
	 viewBox="0 0 216 216" style="enable-background:new 0 0 216 216;" xml:space="preserve">
<style type="text/css">
	.st0{fill-rule:evenodd;clip-rule:evenodd;fill:#FFFFFF;}
</style>
<g>
	<path class="st0" d="M52.2,47.9c0,7.6,5.3,13.1,12.5,13.1c1.7,0,1.8-0.3,3.3-0.3c-0.8,0.6-2.1,0.7-3.2,1l-10,2.6
		C52.7,64.9,51,66,49,66.8c-10.4,4.5-10.6,4-13.3,12c-1.2,3.7-4.1,10.7-4.1,13.8c0,7.6,11.6,11.8,15.2,0.9l3.6-10.7
		c1.8-0.1,3.7-1.4,5.4-1.8c0.1,6,5.4,5.4,5.4,2.1l-1.8-6.6c-1.6-2.5-5.3-0.2-9,1.2c-3.5,1.2-3.8,1.1-4.9,4.6
		c-0.4,1.4-3.7,11.3-4.6,12.1c-1,0.9-4.2,1.3-4.2-2.1c0-1.4,1.7-5.8,2.2-7.3c1.1-3.4,2.4-9.2,4.4-10.2c0.5-0.3,1-0.4,1.7-0.7
		c0.7-0.3,1.1-0.6,1.8-0.9c2.4-1,4.4-2,6.8-3c1.5-0.6,1.8-0.8,3.5-1.2c4.5-1.1,25.3-7,27.6-7h31c1.7,0,2.4,1.1,2.4,2.7
		c0,3.2-3.9,2.4-7.2,2.4H91.9c-11.1,0-8,1-2.6,18.5c0.4,1.2,1.4,4.1,1.5,5.4c-1.6,0.1-4.8,1.3-6.3,1.8l-18.8,5.7l-2.3-8.2
		c-1.1-2.8-4.9-2-4.9,0.7l13.9,49c1.3,4.4,1.6,8.4,5,10.8c5.5,3.7,11.8-1.1,11.8-6.1c0-1.7-1.5-6.8-2-8.7
		c-0.7-2.8-6.6-23.8-6.6-25.6c4.5-0.4,4.6-3.4,6,1.5l10.6,32.3c0.7,2.1,1.2,3.8,2.4,5.3c4,5,13.2,2.4,13.2-5.1
		c0-1.6-2.1-8.4-2.9-10.5c-1.2-3-4.8-2.8-4.8,0.6c0,2.9,5.8,12.5,0.3,12.5c-2.4,0-2.8-2.6-3.5-4.6c-0.9-2.6-6-17.3-6.1-18.7
		c0.7-0.1,4.5-1.2,5.1-1.5c1,2.1,1.3,6.9,4.2,6.9c1,0,2.4-1.3,2.4-2.4l-15-47.6c-0.4-1.2-0.8-2.2-1.1-3.4c-0.4-1.2-0.6-2.5-1.2-3.6
		c6.7,0,13.3,0,20,0c3.7,0,6.6,0.4,9.2-1c1.2-0.6,1.9-1.3,2.6-2.4c3.6-5.5-0.6-11.8-6.7-11.8H84.4c-1.7,0-5.9,1.3-8,1.9l-8.1,2
		c0.4-0.3,0-0.1,0.7-0.5c0.2-0.1,0.6-0.3,0.8-0.3c3.8-1.6,7.4-6.1,7.4-9.9c0-4.5-0.2-7.4-3.8-10.8C65.8,31.8,52.2,37.1,52.2,47.9
		 M57,48.5c0-4.4,3.2-7.8,8.3-7.8c4.7,0,10.1,6.6,5.3,12.7C66.5,58.7,57,55.4,57,48.5z M76.7,116c-1.8,0.1-3.9,1.1-5.7,1.5
		c-0.1-1.3-0.6-2.5-0.9-3.6c-0.7-2.3-2.9-9.6-3-11l25.4-7.5l5.1,16.4c0.5,1.6,1.3,4,1.8,5.7c-1.5,0.7-3.6,1.1-5.1,1.8
		c-0.5-1.1-1.1-3-1.5-4.2l-2.8-8.5c-0.5-1.5-1-3.1-2.9-3.1c-0.6,0-9.3,2.5-10.2,2.9C73,107.9,76.4,112.1,76.7,116z M72.5,122.2
		c0.7-0.3,4.7-1.5,5.7-1.5l1.4,5.8c0.7,2.9,4.6,16.4,4.6,18.1c0,2.8-4,3.4-5,0.6c-1.3-3.6-4.2-14.8-5.6-19.5
		C73.2,124.7,72.8,123,72.5,122.2z"/>
	<path class="st0" d="M47.2,180.1c5.9,0,8.9-4.4,9.8-5.1c0.7,0.5,0.8,1.1,1.7,1.8c6.7,5.4,15,3.4,18.5-1.8c1.7,1.1,4.3,5.1,10.1,5.1
		c7.3,0,8.9-4.6,10.7-5.1c0.7,2.6,9.7,8.6,17.9,2.1c0.8-0.6,1.5-1.1,1.7-2.1c1.7,0.5,3.7,5.1,10.4,5.1c4.5,0,8.4-2.4,10.1-5.1
		c1.9,1.3,8.7,9.7,18.7,2c1-0.8,1.1-1.4,1.9-2c0.8,0.6,3.9,5.1,9.8,5.1c12.1,0,16.3-15.2,10.4-15.2c-2.9,0-1.9,3.9-3.4,6.4
		c-3.2,5.2-10.3,4.9-13.3-0.1c-0.8-1.4-0.7-2.2-1-3.7c-0.2-0.9-0.1-1.2-0.6-1.7c-1-1.1-3.6-1.5-4.3,1.5c-0.4,1.6-0.2,2.6-1,4
		c-3.4,6-13.6,4.9-14.4-3.4c-0.1-1-0.1-1.3-0.5-1.9c-1.6-2.1-3.9-0.9-4.4,0.8c-0.5,2,0.1,2.2-1,4.1c-3.1,5.8-11,5.1-13.5,0.2
		c-0.9-1.7-0.6-1.6-1-3.8c-0.7-3.4-4.5-3.2-5-0.1c-0.7,4.7-2.6,7.8-8.4,7.8c-3.9,0-6.6-3.3-7.1-7.2c-0.1-1-0.5-2.9-2.1-2.9
		c-1.6,0-2.4,0.7-2.7,2c-0.5,1.7-0.1,2.2-1,4.1c-2.6,5.2-10.4,5.7-13.5,0.2c-1.4-2.4-0.2-6.3-3.6-6.3c-2.9,0-2,4.1-3.4,6.4
		c-3.6,5.6-10.9,4.4-13.4,0c-1.2-2.2-0.6-4.2-1.7-5.5c-0.9-1-2.3-1.1-3.5-0.2c-0.6,0.5-0.6,0.8-0.8,1.6c-0.3,1.7-0.2,2.6-1.1,4
		c-3.1,5-10.1,5.2-13.2,0.2c-1.3-2-1-6.6-3.3-6.6c-5,0-2.3,7.2-0.4,10C38.5,177.7,42.5,180.1,47.2,180.1"/>
	<path class="st0" d="M123.5,49.4v29.2c0,0.8,0.8,1.8,2.4,1.8c3,0,2.4-3.1,2.4-6c1.4-0.7,12.3-6.4,13.5-6.5
		c2.8-0.4,38.5,0.3,40.4-0.1c1.6-0.4,2.2-1.2,2.2-2.6c0-2.8-3.2-2.4-6-2.4l-33.7,0c-3.7,0-2.7,0.1-6.1-2.2l-10.3-6.7
		c0-3,0.7-6.3-2.4-6.3C124.8,47.6,123.5,48.5,123.5,49.4 M128.3,68.9l0-9.1c1.4,0.7,2.6,1.6,4,2.6c1.1,0.7,3.1,1.9,3.8,2.8
		L128.3,68.9z"/>
	<path class="st0" d="M71.3,159.8h50.4c4.7,0,4.5-3,3.4-4.3c-1.3-1.5-6.2-0.8-8.8-0.8H74.3c-2,0-3,0.4-4.1-0.6
		c-2.6-2.4-3.4-4.4-6-4.4c-1.2,0-2.2,1.9-1.9,3c0.4,1.4,3.9,4.6,5.1,5.7C68.4,159.4,69.4,159.8,71.3,159.8"/>
	<path class="st0" d="M36.7,111.2H57c2.9,0,4.1-5.1-1.5-5.1H37.6C32.8,106.1,33.5,111.2,36.7,111.2"/>
	<path class="st0" d="M41.8,118.9c0,1.4,0.9,2.4,2.4,2.4H60c2.4,0,3.1-4.8-0.3-4.8H44.2C42.7,116.5,41.8,117.5,41.8,118.9"/>
	<path class="st0" d="M51.9,129.1c0,3.4,5.5,2.4,10.7,2.4c2.2,0,2.8-4.8-0.6-4.8C57.3,126.7,51.9,125.7,51.9,129.1"/>
</g>
</svg>
