<?xml version="1.0" encoding="utf-8"?>
<!-- Generator: Adobe Illustrator 25.2.0, SVG Export Plug-In . SVG Version: 6.00 Build 0)  -->
<svg version="1.1" id="Layer_1" xmlns="http://www.w3.org/2000/svg" xmlns:xlink="http://www.w3.org/1999/xlink" x="0px" y="0px"
	 viewBox="0 0 216 216" style="enable-background:new 0 0 216 216;" xml:space="preserve">
<style type="text/css">
	.st0{fill-rule:evenodd;clip-rule:evenodd;fill:#FFFFFF;}
</style>
<g>
	<path class="st0" d="M54.4,63.4c0,2,8.4,18.3,9.9,22c1.4,3.6,4.9,10.3,6.7,14.5l2.5,5.3c0.3,0.6,0.5,1.2,0.8,1.9
		c0.3,0.7,0.5,1,0.9,1.7l4.2,9.2c0.8,1.6,1,2.9,2.9,2.9c0.9,0,3.7-1.6,4.8-1.8c0.2,0.7,1.2,1.8,1.7,2.5c2.3,3,4.3,5.2,4.3,8.8v36.7
		h3.7v-24.5c0-8.9,4.4-14.7,12.4-17c3.5-1,8.3-0.7,9.3-1.6l6.6-8.2c0.9-1.1,2.4-2.8,0.3-4.1c-1.9-1.3-2.8-1.5-4.7-3.6
		c-1.4-1.5-3.5-4.8-3.5-7.6l14.4,9.9c3,2.7,3.6,7.1,1.4,10.1c-0.7,1-1.2,1.9-2,2.9L120.9,138c-0.8,1.2-1.8,2.2-1.8,3.3v25.9h3.7
		v-24.9c0-0.4,1.6-2.5,2-3.1l8.4-12.1c0.8-1,1.3-2,2.1-3c1.3-1.8,3-4.4,3-7.4c0-4.4-2.3-7.7-4.8-9.5l20-29.7
		c4.2-6.3,4.2-4.6-5.1-10.2c-2.9-1.7-5.6-3.3-8.4-5c-1.9-1.1-16-9.7-17.1-9.7c-2,0-2.4,2.8-3.7,3.7c0-3.8,0.7-7.4-1.9-7.4H84
		c-0.8,0-1.4,0.4-1.6,0.9c-0.6,1.2,0.4,1.1-1,1.8l-4,1.6c-2.7,1.1-5.2,2.1-7.9,3.2L57.6,61C56.4,61.5,54.4,62.1,54.4,63.4 M108,72.9
		c-2.8-1.8-4.2-5.5-6.9-5.5c-0.6,0-8.1,7.4-8.1,8.3c0,1.8,5.8,5.9,7.4,8.3l-9.7,14.3c-2.6,3.5-0.3,3.9,3.3,6.3
		c1,0.7,4.6,2.8,5.1,3.5H85.8V52.6h29.6v8.8c0,0.9-0.9,1.7-1.7,3L108,72.9z M58.8,64.6c1-0.1,17.7-6.9,20.4-8c1-0.4,2.1-0.8,2.9-1.2
		v51.5c0,5.9-1.3,4.8,12.5,4.8c-0.6,0.5-7.5,3.2-8.6,3.7c-0.8,0.3-2.2,1-3,1.2L60.3,67.9C59.8,66.7,59.4,65.7,58.8,64.6z
		 M130.2,104.8c-2.4-1.3-13.1-9.7-14.8-9.7c-2.4,0-2.1,3-2.1,4.9c0,3.3,1.4,6.3,2.7,8.4c0.8,1.2,4.1,5.1,5.6,5.5
		c-0.1,1-0.2,0.8-0.8,1.5c-0.5,0.7-0.6,0.8-1.3,1.3l-25.4-16.4c0.2-0.7,2.9-4.5,3.6-5.5L123.2,57c1.3,0.7,2.2,1.3,3.5,2
		c3.8,2.1,23.4,14.1,24.6,14.4C151.2,74.2,130.8,104.3,130.2,104.8z M101.5,71.9l3.8,3.7l-3.9,4l-3.7-3.8L101.5,71.9z M90.7,117.5
		c0.8-0.1,6-2.4,7.1-2.8l7.2-2.9c1.5,1,11.4,7.6,12.2,7.9c-1.1,2.1-0.9,1-5.7,1.7c-10.8,1.7-13.1,7.1-14.6,8.2c0-2.9-1.1-5-2.3-6.7
		L90.7,117.5z"/>
	<path class="st0" d="M145,104.8c0,2.3,4.8,3.1,6.4,4.7c0.4,0.4,0.7,1.3,1,1.8c1.1,2,2.1,4.6,3.7,4.6c1.6,0,2.1-1.7,2.7-2.9
		c0.4-0.8,0.7-1.1,1-1.8c1.1-2.2,0.8-1.9,4.5-3.8c2.4-1.2,2.9-1.4,2.9-3.2c0-1-2.1-1.9-3-2.4c-0.6-0.4-1.1-0.6-1.6-0.9
		c-3-1.7-1.7-1.2-3.7-4.4c-1.6-2.6-1.1-3-3.3-3c-1.5,0-3.1,5.3-4.4,6.4l-3.4,1.9C146.6,102.7,145,103.1,145,104.8 M151,104.5
		c2.3-0.5,4.3-2.5,4.9-4.9h0.5c0.5,2.3,2.5,4.3,4.8,4.9v0.5c-2.4,0.6-4.3,2.5-4.8,4.8h-0.5c-0.5-2.4-2.4-4.3-4.9-4.8V104.5z"/>
	<path class="st0" d="M58.1,130.2c0,2.3,4.8,3.2,6.3,4.7c1.5,1.5,2.4,6.3,4.7,6.3c1.7,0,2-1.7,2.7-2.8c2.4-4.2,1.3-3.2,5.5-5.5
		c1.2-0.7,2.8-1,2.8-2.7c0-2.3-4.8-3.2-6.3-4.7c-1.5-1.5-2.4-6.3-4.7-6.3c-2.3,0-3.2,4.8-4.7,6.3c-0.5,0.5-1.1,0.8-1.7,1
		C60.7,127.5,58.1,128.6,58.1,130.2 M64.1,129.9c2.3-0.5,4.3-2.5,4.8-4.9h0.5c0.5,2.3,2.5,4.3,4.9,4.9v0.5c-0.5,0.1-2.8,1.4-3.2,1.7
		c-0.3,0.3-1.6,2.6-1.7,3.2H69c-0.5-2.3-2.5-4.3-4.8-4.9V129.9z"/>
	<path class="st0" d="M117.2,82.1v9c0,1.3,0.8,2.1,2.1,2.1h9c1.4,0,2.1-1.1,2.1-2.5v-7.9c0-1.9-0.9-2.8-2.8-2.8h-7.9
		C118.3,80.1,117.2,80.7,117.2,82.1 M121.2,84h5.3v5.3h-5.3V84z"/>
	<path class="st0" d="M135.7,137.8c0,4.7,2.5,7.2,7.2,7.2c2.7,0,5.8-3.1,5.8-5.8v-1.4c0-2.7-3.1-5.8-5.8-5.8h-1.4
		C138.8,132,135.7,135.1,135.7,137.8 M139.4,138.5c0-3.6,5.5-3.6,5.5,0C145,142.1,139.4,142.1,139.4,138.5z"/>
	<path class="st0" d="M48.9,103.1c0,4,3.1,6.7,5.8,6.7H56c2.7,0,5.8-3.1,5.8-5.8v-1.4c0-2.7-2.6-5.8-6.7-5.8
		C51.8,96.9,48.9,99.8,48.9,103.1 M52.6,103.4c0-3.6,5.5-3.6,5.5,0C58.1,107,52.6,107,52.6,103.4z"/>
	<path class="st0" d="M87.7,59.7c0,1.3,4.5,5.8,5.8,5.8c1.3,0,5.8-4.5,5.8-5.8c0-1.3-4.5-5.8-5.8-5.8C92.2,54,87.7,58.5,87.7,59.7
		 M92.2,59.8l1.2-1.3l1.3,1.2l-1.2,1.3L92.2,59.8z"/>
	<path class="st0" d="M120.9,65.5c0,8.5-1.1,7.4,7.4,7.4c2.6,0,1.8-3.5,1.8-7.4c0-2.6-3.5-1.8-7.4-1.8
		C121.7,63.7,120.9,64.4,120.9,65.5 M124.6,67.3h1.8v1.8h-1.8V67.3z"/>
	<path class="st0" d="M65.5,67.3c0,8.5-1.1,7.4,7.4,7.4c2.6,0,1.8-3.5,1.8-7.4c0-2.6-3.5-1.8-7.4-1.8C66.2,65.5,65.5,66.2,65.5,67.3
		 M69.2,69.2H71V71h-1.8V69.2z"/>
	<rect x="145" y="54.4" class="st0" width="3.7" height="3.7"/>
	<rect x="56.3" y="82.1" class="st0" width="3.7" height="3.7"/>
	<rect x="82.1" y="141.3" class="st0" width="3.7" height="3.7"/>
</g>
</svg>
