<?xml version="1.0" encoding="utf-8"?>
<!-- Generator: Adobe Illustrator 25.2.0, SVG Export Plug-In . SVG Version: 6.00 Build 0)  -->
<svg version="1.1" id="Layer_1" xmlns="http://www.w3.org/2000/svg" xmlns:xlink="http://www.w3.org/1999/xlink" x="0px" y="0px"
	 viewBox="0 0 216 216" style="enable-background:new 0 0 216 216;" xml:space="preserve">
<style type="text/css">
	.st0{fill-rule:evenodd;clip-rule:evenodd;fill:#FFFFFF;}
</style>
<g>
	<path class="st0" d="M54.5,133.9c0,4.1,0.2,3.6,1.9,6.9c-4.2,0.3-5,4.5-5,8.1c-1.2,0.6-4.3,1.4-4.3,5v11.4c0,2,1.5,3.6,3.6,3.6
		h26.2c1,0,0.8-0.3,1.5-0.4c0.8,0,0.6,0.4,1.6,0.4h26.6c1,0,0.7-0.3,1.4-0.3c0.7,0,0.5,0.3,1.4,0.3h26.9c1.2,0,0.2-0.2,1.2-0.3
		c0.7,0,0.4,0.3,1.4,0.3h25.9c2.2,0,4-1.9,4-4v-10.9c0-3.6-3-4.4-4.3-5c0-3.6-0.8-7.7-5-8.1c1.9-3.6,1.9-2.8,1.9-6.9
		c0-1.1-0.6-2.4-1-3.3c-3.3-6.6-13-6.7-16.4-0.1c-0.7,1.4-1.3,3.6-1,5.3c0.4,2.7,0.8,3.2,2,4.9c-1.7,0-3.2,1.4-3.9,2.5
		c-1.2,1.8-1.1,2.8-1.1,5.6l-2.6,1.2c-1-0.7-1.3-0.7-2.4-1.2c0-3.6-1.1-7.8-5-8.1c1.6-3.1,2.9-6.1,1-9.8c-0.6-1.3-2.1-3-3.2-3.7
		c-8-5.2-16.9,2.9-13.9,11c0.4,0.9,1.1,1.8,1.3,2.5c-1.6,0.1-3.1,1.6-3.8,2.6c-1.1,1.8-1,2.7-1,5.5c-1.3,0.3-1.6,0.6-2.6,1.2
		c-1-0.5-1.3-0.9-2.6-1.2c0-2.7,0.1-3.7-1-5.5c-0.7-1.1-2.2-2.5-3.8-2.6c0.2-0.7,0.9-1.6,1.2-2.4c3.9-9.3-8.2-16.9-14.8-10.3
		c-3,3-3.8,6.3-2.4,10.3c0.4,1.1,1,1.4,1.2,2.3c-1.6,0.1-3.2,1.4-3.9,2.6c-0.9,1.5-1.1,3.2-1.1,5.5c-1.1,0.5-1.4,0.5-2.4,1.2
		l-2.6-1.2c0-2.7,0.1-3.7-1-5.4c-0.7-1.1-2.3-2.6-4-2.7c6-8.9-2.5-17.6-10.7-14.5c-1,0.4-2,1-2.8,1.7C56.3,129,54.5,132,54.5,133.9
		 M92.8,129.4c6.5,0,7.2,6.6,4.5,9.5c-3.2,3.5-9.5,1.5-9.6-3.8C87.6,132.3,89.8,129.4,92.8,129.4z M123,140.6
		c-7.4,0-8-11.2,0.2-11.2c3,0,5.1,2.9,5.1,5.7C128.3,138,125.9,140.6,123,140.6z M58.1,135.1c0-7.4,11.2-7.9,11.2,0.2
		c0,2.7-2.5,5.2-5.7,5.2C60.7,140.6,58.1,137.9,58.1,135.1z M152.5,140.6c-7.4,0-7.9-11.2,0.2-11.2c2.8,0,5.2,2.8,5.2,5.5
		C158,137.8,155.4,140.6,152.5,140.6z M55.2,146.8c0-1.2,0.9-2.4,2.1-2.4h12.6c2.6,0,2.1,2.9,2.1,4.5H55.2V146.8z M84.7,147.2
		c0-0.7,0.2-1.5,0.5-1.9c0.2-0.3,0.9-0.9,1.4-0.9h12.8c2.5,0,2.4,2.7,2.4,4.5H84.7V147.2z M114.2,147.7c0-1.8,0.6-3.3,2.4-3.3h12.8
		c2.1,0,1.9,3.5,1.9,4.5h-17.1V147.7z M143.9,146.5c0-1.2,1-2.1,2.1-2.1h12.6c2.5,0,2.1,3.1,2.1,4.5h-16.9V146.5z M164.4,165.3h-25
		v-10.9c0-1.4,1-1.9,2.4-1.9h21.4c1.3,0,2.1,0.8,2.1,2.1v9.7C165.3,164.9,164.9,165.3,164.4,165.3z M75.9,165.3H50.7v-10.7
		c0-1.3,0.8-2.1,2.1-2.1h21.4c1.4,0,2.4,0.5,2.4,1.9v10.2C76.6,165.2,76.4,165.3,75.9,165.3z M80.4,154.1c0-1.4,1.1-1.7,2.4-1.7
		h20.9c1.1,0,2.4,0.5,2.4,1.4v11.4H80.4V154.1z M109.9,153.9c0-1,1.3-1.4,2.4-1.4h20.9c1.3,0,2.4,0.3,2.4,1.7v11.2h-25.7V153.9z"/>
	<path class="st0" d="M54.2,56.6v56.1c0,1.5,1.5,2.6,3.1,2.6h101.1c1.6,0,3.1-1.1,3.1-2.6V56.6c0-1.5-1.5-2.6-3.1-2.6H57.3
		C55.7,54,54.2,55.1,54.2,56.6 M57.8,57.8H158v53.8H57.8V57.8z"/>
	<path class="st0" d="M47.1,51.4V118c0,2.1,2.1,4.3,4.3,4.3h113.2c2.1,0,4.3-2.1,4.3-4.3V88.5c0-1.2-3.6-3.2-3.6,1.4l0,21.4
		c0,2,0.7,7.4-1.2,7.4H51.9c-0.8,0-1.2-0.9-1.2-1.7V52.3c0-2.3,3.1-1.7,5.5-1.7h43.5c3.9,0,5.9,0.7,5.9-2.1c0-0.6-0.9-1.4-1.4-1.4
		H51.4C49.2,47.1,47.1,49.2,47.1,51.4"/>
	<path class="st0" d="M106.8,65.9c-0.4,0.1-1.6,0-2.3,0.1c-6.6,1.2-11.9,5.6-14.4,11.8C87.3,85,89.3,94.1,95,98.9
		c6.1,5.1,14.2,6.7,21.6,2.9c4.1-2.1,7.3-5.7,9-10c1.5-3.8,1.8-8.2,0.6-12.3c-0.9-3.2-3.1-6.8-5.4-8.8c-1.8-1.5-3.6-2.7-5.9-3.6
		c-1.5-0.6-6.1-1.7-7.6-1.4l-0.4,0.1C106.9,65.8,106.9,65.9,106.8,65.9 M92.5,85.2c0-9.1,6.6-15.7,15.7-15.7c8.1,0,15,6.7,15,15.7
		c0,8.1-6.7,15-15.7,15C99.5,100.2,92.5,93.2,92.5,85.2z"/>
	<path class="st0" d="M110.4,48.5c0,0.8,0,1.8,1.2,2.1c1.8,0.5,51.7-0.4,53,0.3c1.1,0.6,0.7,3.2,0.7,4.8l0,25.2
		c0.4,2.3,3.6,1.5,3.6,0V51.4c0-2.1-2.1-4.3-4.3-4.3h-52.8C111.2,47.1,110.4,48,110.4,48.5"/>
	<path class="st0" d="M100.9,79.9v9.8c0,7,6.6,1.9,9.8,0c1.1-0.7,2.2-1.2,3.4-1.9c1.3-0.8,4-2.4,1.8-4.8c-0.6-0.7-11.3-6.7-12.1-6.7
		C101.7,76.4,100.9,77.5,100.9,79.9 M104.7,88.7v-7.8c0.5,0.1,6.2,3.3,7.1,4C110.6,85.3,105.9,88.4,104.7,88.7z"/>
</g>
</svg>
