<?xml version="1.0" encoding="utf-8"?>
<!-- Generator: Adobe Illustrator 25.2.0, SVG Export Plug-In . SVG Version: 6.00 Build 0)  -->
<svg version="1.1" id="Layer_1" xmlns="http://www.w3.org/2000/svg" xmlns:xlink="http://www.w3.org/1999/xlink" x="0px" y="0px"
	 viewBox="0 0 216 216" style="enable-background:new 0 0 216 216;" xml:space="preserve">
<style type="text/css">
	.st0{fill-rule:evenodd;clip-rule:evenodd;fill:#FFFFFF;}
</style>
<g>
	<path class="st0" d="M85.1,112.2V125c0,3.7,3.5,5.2,7.2,5.2h2v10.7c-2.8,0-9.2-0.9-9.2,2v12.7c0,3.2,4.8,2.2,9.2,2.2v11
		c0,1.6,0.9,3,2.5,3H107c1.6,0,2.5-1.4,2.5-3v-11h37.9v11c0,1.6,0.9,3,2.5,3h10.2c1.4,0,2.5-1.2,2.5-2.5v-11.5
		c4.4,0,9.2,0.9,9.2-2.2v-12.5c0-3.1-5.2-2.2-9.2-2.2v-10.7c2.3,0,5.3,0.1,7-1.2c1-0.8,2.2-2.3,2.2-4v-12.7c0-2.7-2.5-5.2-5.2-5.2
		h-26.9c-0.6,0-1.3,0.3-1.6,0.6c-0.9,0.7-0.8,1.4-0.8,2.1c0,2.6,3.1,2.5,5.7,2.5h20.5c4.5,0,3.5-2,3.5,12c0,0.6-0.2,0.7-0.8,0.7
		H90.8c-0.6,0-0.7-0.2-0.7-0.7c0-13.9-1-12,3.2-12H114c3.7,0,5.7,0,5.7-3c0-1.3-1.2-2.2-2.5-2.2H90.3
		C87.6,107,85.1,109.5,85.1,112.2 M99.5,130.2h4.7v10.7h-4.7V130.2z M109.5,130.2h37.9v10.7h-37.9V130.2z M152.6,130.2h4.7v10.7
		h-4.7V130.2z M90,146.2h76.8v6.7H90V146.2z M99.5,157.9h4.7v9h-4.7V157.9z M152.6,157.9h4.7v9h-4.7V157.9z"/>
	<path class="st0" d="M65.1,50.1l8.5,7.4c0.6,0.6,0.9,0.6,1.5,1.2c0.5,0.5,0.9,0.9,1.4,1.3H53.6c0.6-1,3.3-2.9,4.2-3.8L65.1,50.1z
		 M54.6,65.1h7.7v19h-3.2L54.6,65.1z M70.3,84.1h-2.7v-19h7.7l-4,17C71.2,83,71.3,84.1,70.3,84.1z M62.6,89h4.7v53.9h-4.7V89z
		 M64.8,44.1h0.6c0.6,0.1,1.2,0.4,1.9,1.1c0.6,0.6,0.8,0.7,1.5,1.3L82,57.9c1.4,1.1,3.7,3,3.9,4.3c0.5,3.4-3.6,2.9-5.4,2.9
		c0,1.1-1.8,7.9-2.2,9.5c-0.4,1.7-0.7,3-1.1,4.7c-0.3,1.4-1,3.2-1,4.8c1.6,0,3.2,0.5,3.2,2.5c0,3.2-4.1,2.5-7,2.5v53.9
		c1.6,0,2.3,0.5,2.8,1.7l2.5,10.5c0.6,2.2,1.1,4.8,1.6,7.1c0.7,3,3.4,9.7-0.7,9.7H50.9c-0.4,0-1.2-0.6-1.4-0.8
		c-1.2-1.5-0.2-3.5,0.2-5.3c0.3-1.1,0.5-2.2,0.8-3.4l3.3-14.1c0.6-2.6,0.4-5.2,3.5-5.2V89h-4.5c-2.5,0-4-5,1-5
		c-1.5-6.3-3-12.6-4.5-19c-3.6,0-5.2,0.3-5.2-2.7c0-1.7,2.7-3.1,4.7-5.1l10.4-9C61.5,46.6,63,44.4,64.8,44.1z M59.1,147.9h11.7
		l3.9,16.5c0.2,0.9,0.5,1.6,0.6,2.4H54.6c0.3-0.5,0.9-3.7,1.1-4.6l2.2-9.5C58.3,151.2,59,149.2,59.1,147.9z"/>
	<path class="st0" d="M126,109c0,4.2,5,3.9,5,0.2C130.9,106,126,106.7,126,109"/>
</g>
</svg>
