<?xml version="1.0" encoding="utf-8"?>
<!-- Generator: Adobe Illustrator 25.2.0, SVG Export Plug-In . SVG Version: 6.00 Build 0)  -->
<svg version="1.1" id="Layer_1" xmlns="http://www.w3.org/2000/svg" xmlns:xlink="http://www.w3.org/1999/xlink" x="0px" y="0px"
	 viewBox="0 0 216 216" style="enable-background:new 0 0 216 216;" xml:space="preserve">
<style type="text/css">
	.st0{fill-rule:evenodd;clip-rule:evenodd;fill:#FFFFFF;}
</style>
<g>
	<path class="st0" d="M43.6,55.5c0,4.2,0.1,6.3,2.6,10.2c1,1.6,3.6,4.3,5.4,4.8c0,1.4-0.6,2.8-0.9,4.1c-1.7,8.5,0.1,17,4.1,24.3
		c0.8,1.5,1.9,2.7,2.9,4.1c-2.2,0.6-8.7,5.7-10.2,7.6c-3.2,4.1-4.9,6.1-6.6,11.4c-2.1,6.5-3.2,13.1,1,18.7c1.2,1.6,3.7,3.7,5.8,4.2
		c-0.1,1-0.9,2.8-1.3,4c-2.4,8.3,1.2,19.3,9,23.6c7.8,4.3,17.3,1.7,21.5-4.5c5.7,3,12.1,3,17.8,0c2.7,4.1,8,6.7,14.2,6.7
		c6.6,0,13.9-6.2,15-11.1l48.3,0c2.5,0,4.7,0.3,4.7-2.2v-31.1c0-1.3-0.9-2.2-2.2-2.2h-13.3V99.1c0-1.4-5.7-9-7.2-11.1
		c-0.4-0.5-0.7-1.1-1.1-1.7l-6.5-9.3c-0.6-0.9-2.7-4.3-5-1.2c-0.6,0.8-1,1.4-1.5,2.1c-1,1.4-1.9,2.7-2.8,4.1l-5.7,8.2
		c-0.5,0.8-0.9,1.2-1.4,1.9c-0.5,0.8-0.9,1.4-1.5,2.1c-0.6,0.8-2.5,3.4-2.7,4.3c-0.5,2.4-0.1,11.1-0.1,14.1
		c-0.4-0.3-1.9-2.1-2.6-2.7c-3.6-3.6-4.3-4.3-9.4-7c2.4-3.6,3.3-4.3,5.1-8.8c2.2-5.6,3.1-13.1,1.8-19.3c-0.3-1.3-0.8-3.2-0.9-4.4
		c9.3-4.9,10.7-17.5,3.5-24.6c-7.3-7.3-19.9-5.7-24.9,3.8c-5-0.4-3-1.7-15-1.7c-5.4,0-7.7,1.4-10.6,1.7c-1.7-2.5-2.2-3.7-5-5.6
		c-6-4.2-14.6-3.6-19.8,1.6C45.8,48.2,43.6,51.9,43.6,55.5 M53.6,66.4c-9.6-5.1-5.7-20.5,5.6-20.5c3.7,0,8.7,2.8,9.4,5.8
		c-2.4,0.6-6.9,4.3-8.8,5.9C58.3,58.8,54,64.5,53.6,66.4z M112.5,45.8c11.1,0,15.2,15.4,5.6,20.5c-2.6-4.8-5.6-8.9-10.2-12
		c-1-0.7-3.6-2.5-4.8-2.7C103.7,48.6,108.6,45.8,112.5,45.8z M85.8,110.2c-2.1,0-4.9-0.4-6.8-0.7c-9.3-1.5-17.9-7.1-21.6-15.9
		C53.2,83.8,53.9,73,60,64.4c8.9-12.5,27.7-14.7,40.9-8.7c6.2,2.8,10.2,7.1,13.2,13.2c0.8,1.5,1.4,3.8,1.9,5.6
		c0.8,3.1,0.4,2.6,0.6,4.9c0.4,4.6,0.1,1.1,0,5c-0.1,2.6-1.3,7-2.3,9.1c-4.2,9-11.5,14.2-21.4,16.1
		C91.1,109.9,87.7,110.2,85.8,110.2z M143.3,81.1l11.4,15.8h-22.2l5.4-7.9c0.5-0.8,0.8-1.2,1.4-2L143.3,81.1z M50.5,141.1
		c-3.5-0.8-6.7-3.9-6.9-7.8c-0.1-1.4,0.5-4.9,0.8-6.3c0.4-1.9,1.1-3.9,1.8-5.7c3.2-7.3,8-11.3,14.8-14.9c5.4,3.6,2.6,2.4,8.6,5.3
		c-1.5,2.2-3.4,4.5-4.6,7.3c-1.2,3-2.3,5.7-3,9.3c-0.3,1.6-0.5,3.5-0.7,5.4c-0.2,2,0.1,0.7-3.9,2.2
		C55.1,136.7,51.9,139.1,50.5,141.1z M101.9,111.6c0.8-0.4,1.5-0.6,2.3-1.1c4-2.3,3.3-2.2,6.3-4.2c7.6,4,12.3,8.4,15.4,16.3
		c1.7,4.2,3.4,11.8-0.3,15.7c-2.3,2.4-2.6,1.8-4.5,2.7c-1.7-2.6-5.7-5.1-9.1-5.9c-2.7-0.7-1.1,0.8-2.5-6.7
		c-0.9-4.6-2.7-9.5-5.1-13.3C103.6,113.8,102.7,112.8,101.9,111.6z M130.2,120.5v-19.2h26.7V128h-25
		C131.9,125,130.2,122.7,130.2,120.5z M66.1,133.6c0-5.3,2.4-12.2,5.2-16.2c0.5-0.8,0.9-1.5,1.5-2.2c0.6-0.8,1.2-1.1,1.7-1.9
		c8.3,1.9,14.5,1.9,22.8,0c1.2,1.9,3.3,2.9,5.6,8.6c1.7,4.2,2.7,7.9,2.7,13.1c-7.2,0-15.3,9.4-15.3,18.6c0,7.9,0.9,5.9,1.9,10.6
		c-0.9,0.5-1.6,0.8-2.8,1.1c-3.6,0.9-6.8,0.6-10-1.1c1-4.5,1.9-2.6,1.9-10.6c0-5-2.3-9.5-4.6-12.4c-2.2-2.8-7-6.2-10.7-6.2V133.6z
		 M132.5,132.5h8.9v26.7h-15.8l0.3-4.4h8.9c1.3,0,2.2-0.9,2.2-2.2c0-16.4,1.3-15.6-5-15.6C132,135.2,132.5,134.6,132.5,132.5z
		 M123.9,145c2.6-0.6,5-3.6,5.8-3.6h2.8v8.9h-6.4c-0.9,0-0.7-0.5-1.3-2.3C124.4,146.8,124,146.1,123.9,145z M50.3,154.7
		c0-4,1.5-7.7,3.8-10.7c3.3-4.4,9.8-6.3,15.2-3.3c6.7,3.7,9.3,12.9,6.5,20.1c-4.8,12.5-19.6,12.5-24.4,0
		C50.9,159.4,50.3,156.4,50.3,154.7z M94.7,154.7c0-1.8,0.6-4.7,1.1-6.1c6.1-16,25.5-9.9,25.5,6.1c0,10-9.3,19.3-19,14
		C97.5,166,94.7,160.1,94.7,154.7z M145.8,132.5h26.7v26.7h-26.7V132.5z"/>
	<path class="st0" d="M76.9,102c0,4.2,1,4.5,4.4,6.9c0.7,0.5,1.2,1.1,2.2,1.4v6.9c-3.3-0.1-6.8-2.2-8.6-3.9
		c-1.1-1.1-1.9-2.3-2.3-4.1c-0.6-2.5,0.2-3.9-3-3.9c-3,0-2.4,8,3.9,12.8c11.2,8.6,30,2.3,30-10.6c0-2.6-3.6-3.1-4.4-0.8
		c-0.2,0.7-0.2,1.8-0.4,2.6c-1,4.3-6.5,7.8-10.8,7.8c0-8.1-1.1-6.1,4-9.6c5.2-3.5,2-10.1-1.8-10.1h-8.9C79.4,97.6,76.9,100,76.9,102
		 M85.8,106.5c-0.9-0.6-1.6-1.1-2.5-1.7c-1.6-1.2-1.9-0.8-2-2.2c0.5-0.3,0.5-0.6,1.1-0.6C90.5,102,93.4,101.4,85.8,106.5z"/>
	<path class="st0" d="M134.7,132.6c0,12.6,17.8,12.6,17.8,0c0-4.6-3.9-8.3-9.4-8.3C138.7,124.2,134.7,128.3,134.7,132.6
		 M139.1,133.4c-0.2-1.4,1.3-4.5,4.2-4.6c5.4-0.4,6.5,8.3,0.5,8.8c-1.1,0.1-2.5-0.5-3.2-1.2C139.9,135.7,139.3,134.2,139.1,133.4z"
		/>
	<path class="st0" d="M150.2,170.9c0,1.3,0.9,2.2,2.2,2.2h13.3c5,0-0.3-8-1.5-10.5c-1.5-3-2.9-7.3-5.2-7.3c-2,0-2.2,1.7-3,3.1
		C155.1,160.7,150.2,169.8,150.2,170.9 M159.4,162.8l2.8,5.8l-5.8,0c0.2-1.1,0.9-2.1,1.4-3.1C158.2,164.7,158.6,163.4,159.4,162.8z"
		/>
	<path class="st0" d="M70.3,94.8c0,1.3,0,2.8,2.2,2.8c2.7,0,3.5-4.4-0.6-4.4C71.3,93.1,70.3,94.1,70.3,94.8"/>
	<path class="st0" d="M96.9,94.8c0,1.3,0,2.8,2.2,2.8c2.7,0,3.5-4.4-0.6-4.4C97.9,93.1,96.9,94.1,96.9,94.8"/>
</g>
</svg>
