<?xml version="1.0" encoding="utf-8"?>
<!-- Generator: Adobe Illustrator 25.2.0, SVG Export Plug-In . SVG Version: 6.00 Build 0)  -->
<svg version="1.1" id="Layer_1" xmlns="http://www.w3.org/2000/svg" xmlns:xlink="http://www.w3.org/1999/xlink" x="0px" y="0px"
	 viewBox="0 0 216 216" style="enable-background:new 0 0 216 216;" xml:space="preserve">
<style type="text/css">
	.st0{fill-rule:evenodd;clip-rule:evenodd;fill:#FFFFFF;}
</style>
<g>
	<path class="st0" d="M84,62.9h48.3c1.2,0,7.9,3.7,9.4,4.4l27.8,14.1H46.7c0.3-0.3-0.1,0,0.5-0.4l27.2-13.6
		C75.9,66.7,82.8,62.9,84,62.9 M50.8,86h11v9.2c-4,0-1.5-0.2-6.1-4.8L50.8,86z M156,95.3h-1.7V86h11c-0.4,0.6-4.6,3.5-7,6.8
		C157.7,93.6,156.9,95.3,156,95.3z M66.4,86h6.9v9.2h-6.9V86z M77.9,86h60.1v9.2H77.9V86z M142.7,86h6.9v9.2h-6.9V86z M66.4,99.9
		h6.9v50.9h-6.9V99.9z M77.9,99.9h60.1v50.9H77.9V99.9z M34,84.4v-1.2c0.2-0.7,0.9-1.4,2.1-2L68.5,65c2.1-1,4-2,6-3
		c1.2-0.6,4.8-2.6,5.8-2.9c0-3.3-0.9-7.8,2.3-7.8c3,0,2.3,3.5,2.3,6.9H130c0-3.5-0.7-6.9,2.3-6.9c3.1,0,2.3,4,2.3,7.2
		c1.6,0.4,38.2,18.9,42.5,21.1c1.6,0.8,4.9,1.9,4.9,4c0,4-5.7,0.9-13.9,6.4c-2,1.3-3.8,2.8-5.4,4.8c-4.5,5.8-1.8,5.1-8.5,5.1v50.9
		h5.8c3.1,0,3.1,4.6,0,4.6H56c-1.4,0-2.3-0.9-2.3-2.3c0-3.1,3.9-2.3,8.1-2.3V99.9c-5.8,0-4.7,0.4-6.5-2.4c-0.7-1.1-1.3-1.8-2.1-2.8
		c-4.4-5.5-10.2-7.4-16.6-8.5C35.2,85.9,34.3,85.2,34,84.4z M142.7,99.9h6.9v50.9h-6.9V99.9z"/>
	<path class="st0" d="M40.9,162.3c0,1.4,0.9,2.3,2.3,2.3h129.5c3.1,0,3.1-4.6,0-4.6H43.3C41.9,160,40.9,160.9,40.9,162.3"/>
	<path class="st0" d="M82.6,90.7c0,3.1,4.6,3.1,4.6,0S82.6,87.6,82.6,90.7"/>
	<path class="st0" d="M91.8,90.7c0,3.1,4.6,3.1,4.6,0S91.8,87.6,91.8,90.7"/>
	<path class="st0" d="M119.6,90.7c0,3.1,4.6,3.1,4.6,0S119.6,87.6,119.6,90.7"/>
	<path class="st0" d="M128.8,90.7c0,3.1,4.6,3.1,4.6,0S128.8,87.6,128.8,90.7"/>
	<path class="st0" d="M101.1,90.7c0,3.1,4.6,3.1,4.6,0S101.1,87.6,101.1,90.7"/>
	<path class="st0" d="M110.3,90.7c0,3.1,4.6,3.1,4.6,0S110.3,87.6,110.3,90.7"/>
</g>
</svg>
