<?xml version="1.0" encoding="utf-8"?>
<!-- Generator: Adobe Illustrator 25.2.0, SVG Export Plug-In . SVG Version: 6.00 Build 0)  -->
<svg version="1.1" id="Layer_1" xmlns="http://www.w3.org/2000/svg" xmlns:xlink="http://www.w3.org/1999/xlink" x="0px" y="0px"
	 viewBox="0 0 216 216" style="enable-background:new 0 0 216 216;" xml:space="preserve">
<style type="text/css">
	.st0{fill-rule:evenodd;clip-rule:evenodd;fill:#FFFFFF;}
</style>
<g>
	<path class="st0" d="M106,46.6V63c0,2.4,2.4,2,4.1,2v102.3H44.6v4.1h126.9v-4.1h-24.6v-10.2h24.6V153h-40.9v-4.1h40.9v-4.1h-43
		c-1.2,0-2,0.8-2,2v8.2c0,2.9,3.8,2,8.2,2v10.2h-12.3V65h49.1v-4.1h-61.4V48.7h61.4v-4.1H108C106.8,44.6,106,45.4,106,46.6
		 M114.2,65h4.1v102.3h-4.1V65z M138.7,157.1h4.1v10.2h-4.1V157.1z"/>
	<path class="st0" d="M73.2,109.3C70.7,108,66.1,106,63,106c-3.5,0-1.5,4.9-0.9,7.3c0.9,3.6,2.5,6.2,5.6,8.2
		c1.3,0.8,2.3,1.1,3.6,1.5c1.2,0.4,0.5-0.2,1.2,0.6c-0.9,0.2-1.6,0.6-2.3,1l1.8,3.6c1.6-0.1,3.6-1.9,5.4-2.3v4.6H63
		c-1.2,0-2.1,0.8-2.1,2.1v8.2c0,2.5,2.6,2,4.4,2c0,4.5,1.3,11.7,1.5,16.6c0.1,1.9,0.3,3.8,2.3,3.8h20.5c1.9,0,2.2-1.8,2.3-3.6
		c0.3-4.8,1.5-12.7,1.5-16.9c5.3,0,4.4,0.4,4.4-10.2c0-1.2-0.8-2.1-2.1-2.1H81.4v-4.9l5.3,2.6l1.8-3.7c-0.7-0.4-1.2-0.8-2.1-1v-0.5
		c3.2-0.1,6.5-3,8-5c1.1-1.4,5.6-12.1,1.5-12.1c-3.4,0-7.8,1.9-10.5,3.3c0-4.4-0.3-7-1.4-10.3c-0.5-1.5-1.1-2.8-1.7-4.2
		c-0.6-1.3-1.2-3.2-3-3.2c-1.8,0-2.2,1.8-2.8,3.1C74,99.9,73.2,102.6,73.2,109.3 M77.3,108c0-2,0.5-5.1,1.1-7.1
		c0.3-1,0.6-1.2,0.7-2.1h0.5c0.2,1.9,3.4,7,0.7,16.3c-0.3,1-0.6,1.2-0.7,2.1h-0.5C79,116.2,77.3,112.8,77.3,108z M66.1,111.1
		c4.3,0.1,8.1,3.9,8.2,8.2C70,119.2,66.2,115.3,66.1,111.1z M84.5,119.3c0.1-4.3,3.9-8.1,8.2-8.2C92.6,115.3,88.7,119.2,84.5,119.3z
		 M65,134.6h28.6v4.1H65V134.6z M69.4,142.8h20l-0.8,8.1c-0.3,2.6-0.7,5.4-0.7,8.2H71.7c-1,0-0.8-1.3-1-3.6L69.4,142.8z"/>
	<path class="st0" d="M52.8,55.8v1c-7.8,0-10.6,9-6,13.9c1,1.1,3.2,2.5,5.2,2.5h28.1c4.7,0,9.5-4.7,9.5-9.5v-1.5
		c0-4.7-4.7-9.5-9.5-9.5c-2,0-1.6-0.1-3.3,0.3c-0.7-1.3-0.4-1.2-1.5-3.1c-1.8-2.7-5.5-5.4-9.2-5.4c-3.8,0-6.9,0.6-9.8,3.5
		c-0.8,0.7-1.8,2.3-2.3,3.3C53.4,52.5,52.8,54.3,52.8,55.8 M75,58.1c1.2,0,5-3.1,8.6,0.6c2.5,2.5,2.3,6.4-0.1,8.7
		c-1,1-2.7,1.7-4.7,1.7H53.5c-5.8,0-6.1-6.4-2.2-7.8c2.7-1,4.2,1.5,5.7-1c0.9-1.5-1-2.9,0.4-6.5c2.9-7.4,13.8-6.5,15.4,1
		C73.2,56.4,73.3,58.1,75,58.1z"/>
</g>
</svg>
