<?xml version="1.0" encoding="utf-8"?>
<!-- Generator: Adobe Illustrator 25.2.0, SVG Export Plug-In . SVG Version: 6.00 Build 0)  -->
<svg version="1.1" id="Layer_1" xmlns="http://www.w3.org/2000/svg" xmlns:xlink="http://www.w3.org/1999/xlink" x="0px" y="0px"
	 viewBox="0 0 216 216" style="enable-background:new 0 0 216 216;" xml:space="preserve">
<style type="text/css">
	.st0{fill-rule:evenodd;clip-rule:evenodd;fill:#FFFFFF;}
</style>
<g>
	<path class="st0" d="M79.6,58.7c-2-0.5-6.8-2.8-9.9-2.8c-1.9,0-1.6,3.1-1.6,5v20.4c-2.2,0.2-7.2,2-9.4,2.9c-1.3,0.5-1.7,0.9-2,2.3
		c-2.3,0-7.3-0.5-7.3,3.9v53.2c0,1.4,3.2,2.2,3.4-0.2c0.2-2.3,0-40.6,0-46.6c0-1.2,0-2.4,0-3.7c0-3.5-0.7-3,3.9-3v67.2
		c0,1.1,0.7,2.1,1.8,2.1h99.1c1.2,0,1.8-1,1.8-2.1V90.3c2.6,0,3.9-0.4,3.9,0.7v71.4c0,0.5-0.4,0.9-0.9,0.9H114c-0.8,0-1-0.2-1.4-0.6
		c-0.6-0.5-0.4-0.4-1.2-0.8c-2.6-1.3-5.6-1-7.8,0.8c-0.5,0.4-0.7,0.6-1.4,0.6H53.6c-1.4,0-0.9-2.5-0.9-4.6c0-1.9,0-3.8,0-5.7
		c-0.6-0.4-0.9-0.9-1.8-0.9c-0.6,0-1.6,0.5-1.6,1.3v9.9c0,1.5,1.9,3.4,3.4,3.4h50.9c2.3,0,1-2.1,4.8-2.1c2,0,2,2.1,3.9,2.1h50.9
		c1.5,0,3.4-1.9,3.4-3.4V90.6c0-4.4-5.1-3.9-7.3-3.9c-0.4-1.9-1.1-2-2.8-2.7c-1.3-0.5-3-1-4-1.5c0-2.4,0-4.9,0-7.3
		c0-5.4,0.3-5.5-3.7-5.5c-10.9,0-22.6,3.5-31.2,8.5c-2.3,1.3-4.8,2.9-6.9,4.6c-0.6,0.5-0.3,0.5-1.1,0.7c-0.1-3.2-1.9-9.6-3-12.6
		c-2.5-6.9-7.6-13.5-13.9-17.3c-2.2-1.3-8.3-4.2-11.4-4.2c-1.8,0-1.9,1.8-1.8,3.7C79.6,54.8,79.6,56.8,79.6,58.7 M148.8,139.2
		c-1.1,0.3-7.1,0.5-11.7,1.4c-8.7,1.7-16.2,4.9-23.4,9.6l-3.9,2.8c0-19.5,0-39,0-58.5c0-1.7-0.6-5.7,0.4-6.7c1.3-1.4,6.8-5,8.6-6.1
		c1.6-0.9,3.1-1.7,4.8-2.5c6.6-3.3,16-5.7,25.2-5.7v17.2c0,1.1,0.8,2.1,1.8,2.1c2.3,0,1.8-3.8,1.8-6.2c0.7,0.1,2.7,0.9,3.2,1.1V150
		l-4-1.1c-1.5-0.4-2.6-0.6-4.1-0.9c-5.7-1.2-12-1.3-17.8-0.8c-1.1,0.1-2.4,0.4-3.4,0.5c0.3-0.3,0-0.1,0.6-0.4l2.3-0.9
		c4.7-1.6,8.4-2.6,13.4-3.1c1.1-0.1,2.6-0.2,3.8-0.4c2.6-0.4,6.1,0.7,6.1-2.2v-39.2c0-2-2.4-2.8-3.4-1.1c-0.4,0.6-0.3,1.3-0.3,2.3
		V139.2z M83.2,53.2c3,1.5,4.6,1.2,9.2,4.3c8.5,5.9,12.5,16.1,13.7,27.1c0.3,2.4,0,50.5,0,54.3c-0.2-0.3-0.3-0.3-0.5-0.7l-1.4-2.8
		c-3.9-6.8-6.9-9.5-13.3-13.3c-1.2-0.7-6.3-2.8-7.8-2.9V53.2z M71.7,60.1c1.6,0,6.5,1.9,7.8,2.5c0,18.7,0.1,37.3,0,56
		c0,5.2,0.8,2.8,8.1,5.9c2.4,1,4.5,2.4,6.4,3.9c0.4,0.3,0.6,0.5,1,0.9c0.5,0.4,0.6,0.4,1,0.8c2,1.9,4.6,5.8,5.8,8.2
		c0.8,1.6,1.3,3.1,2,4.9c0.4,1.1,1.4,4.4,1.4,5.7l-4.7-5.7c-1.8-2.2-7.1-6.8-9.5-8.4L87,132c-5.2-2.9-9-4.7-15.2-6.1V60.1z
		 M60.3,150V87.6c1.1-0.6,6.4-2.4,7.8-2.5l0,41.1c0,4.5,2.8,1.7,14.6,7.6c5.8,2.9,9.9,6.5,14.4,10.9c1.5,1.5,4.7,5.3,5.7,7.2
		c-0.1,0-5.9-2.4-9.1-3.3c-7.6-2-17.4-2.1-25.2-0.5c-1.6,0.3-2.7,0.5-4.1,0.9L60.3,150z M105.2,149.1L105.2,149.1
		C105.3,149.1,105.2,149.1,105.2,149.1z M60.3,154.3c0-0.8,0.9-0.8,1.7-1.1c13.4-4.1,25.8-3.9,38.6,1.6c0.9,0.4,1.8,0.6,2.4,1.3
		H60.3V154.3z M136,150.4c6.1,0,12.2,1.1,17.9,2.8c2.1,0.7,1.9,0.2,1.9,3H113c0.9-1.2,8.6-3.7,10.1-4.1
		C126.5,151.1,131.7,150.4,136,150.4z"/>
</g>
</svg>
