<?xml version="1.0" encoding="utf-8"?>
<!-- Generator: Adobe Illustrator 25.2.0, SVG Export Plug-In . SVG Version: 6.00 Build 0)  -->
<svg version="1.1" id="Layer_1" xmlns="http://www.w3.org/2000/svg" xmlns:xlink="http://www.w3.org/1999/xlink" x="0px" y="0px"
	 viewBox="0 0 216 216" style="enable-background:new 0 0 216 216;" xml:space="preserve">
<style type="text/css">
	.st0{fill-rule:evenodd;clip-rule:evenodd;fill:#FFFFFF;}
</style>
<g>
	<path class="st0" d="M55.2,73.2v67.6c0,1.1,0.7,1.8,1.8,1.8c1.3,0,10.6-7.3,12.5-8.7c0.6-0.5,1.2-1,1.2-2V83.7
		c0-1.3-0.4-1.8-1.2-2.4l-4-3.2c-1.4-1.1-7.1-6.2-8.2-6.3C56.4,71.6,55.2,72.4,55.2,73.2 M58.8,136.9V77.5c0.8,0.5,1.3,1.1,2,1.6
		l5,4.1c0.4,0.3,0.9,0.4,0.9,1.1v46.4c0,0.8-4.9,4-5.8,4.7C60.4,136,59.7,136.7,58.8,136.9z"/>
	<path class="st0" d="M145.3,83.2v48.7c0,1.7,1.7,2.4,2.8,3.1c1.6,1.2,9.6,7.5,10.9,7.5c1.1,0,1.8-0.7,1.8-1.8V73.2
		c0-0.2-0.9-3-3.7-0.5l-7,5.7c-0.6,0.5-1.1,0.9-1.7,1.5c-0.6,0.5-1.1,1-1.7,1.4C145.9,81.8,145.3,82.1,145.3,83.2 M149.2,130.8V84.3
		c0-0.6,0.4-0.7,0.8-1l7.2-5.8v59.4c-0.9-0.3-5-3.5-6.1-4.3C150.3,132.1,149.2,131.5,149.2,130.8z"/>
	<path class="st0" d="M93.4,89.8v36.4c0,1.1,0.7,1.8,1.8,1.8h25.5c1.1,0,1.8-0.7,1.8-1.8V89.8c0-1.1-0.7-1.8-1.8-1.8H95.3
		C94.2,88,93.4,88.7,93.4,89.8 M97.1,91.6h21.8v32.8H97.1V91.6z"/>
	<path class="st0" d="M75.2,88.7V126c0,1.9,1.8,2.7,3.4,1.5l6.4-4.7c0.4-0.4,0.7-0.6,0.7-1.4V93.9c0-1.4-2.2-2.8-3.7-4
		c-0.8-0.6-1.4-1.1-2.1-1.7c-1.6-1.3-1.5-1.5-3-1.5C76,86.6,75.2,87.7,75.2,88.7 M79.1,122.3V92.5c0.7,0.4,3,2,3,2.7v24.6
		C82.1,120.7,79.5,122.2,79.1,122.3z"/>
	<path class="st0" d="M130.3,93.9v27.5c0,0.7,0.1,0.9,0.5,1.3c0.1,0.1,0.9,0.7,1.1,0.8l4.3,3.2c1.3,0.9,1.5,1.4,2.7,1.4
		c1.2,0,1.8-0.9,1.8-2V88.7c0-2-2-2.6-3.4-1.5l-5.4,4.4C131.3,92.2,130.3,92.6,130.3,93.9 M133.9,119.8V95.3c0-0.7,0.8-1.1,1.3-1.5
		c0.7-0.5,1-0.8,1.7-1.3v29.8C136.5,122.2,133.9,120.7,133.9,119.8z"/>
	<path class="st0" d="M106.2,60.7c-1.2,0.6-2,0.6-3.1,1.4c-2.7,1.8-5,5.4-5,8.6c0,5.3-0.6,4.6,8.2,4.6c0.2,2.5,3.4,2.5,3.6,0
		c1.7,0,3.5,0,5.2,0c3.3,0,3-0.9,3-4.1c0-1.5-0.3-2.6-0.8-3.8c-0.8-2.1-2.3-3.9-4.1-5.2c-1.3-0.9-2-0.9-3.3-1.5c0-2.1,0-4.2,0-6.4
		c0-2.2,0.5-4.6-1.8-4.6c-2.3,0-1.8,2.3-1.8,4.6C106.2,56.4,106.2,58.5,106.2,60.7 M107.8,64.3c3.8,0,6.5,3.6,6.6,7.3h-12.7
		C101.7,67.8,104.8,64.3,107.8,64.3z"/>
	<path class="st0" d="M49.7,51.6c0,1.4,3.2,3.7,4.6,5c0.4,0.4,0.7,0.7,1.1,1.1L90,88.4c1.6-3.4,0.9-1.4,2-3.2L79.6,74
		c-0.5-0.5-0.7-0.5-1.3-1L65.8,61.9c-0.5-0.4-0.8-0.8-1.3-1.2L53.3,50.5c-0.7-0.5-1.3-0.8-1.8-0.8h-0.2
		C50.2,49.8,49.7,50.8,49.7,51.6"/>
	<path class="st0" d="M123.9,130.8l6.1,5.5c0.6,0.5,0.8,0.6,1.3,1.2l27.7,24.7c0.9,0.9,4.1,4.2,5.4,4.2c0.7,0,1.7-0.5,1.8-1.4v-0.5
		c-0.1-0.7-0.7-1.6-2.1-2.6L147.8,147c-0.5-0.5-0.8-0.6-1.4-1.1c-1.7-1.6-3.3-3-5-4.6l-5.2-4.6c-0.5-0.4-0.7-0.7-1.2-1.1l-9.1-8
		c-0.4,0.7-0.3,0.9-0.8,1.7C124.7,130,124.4,130.1,123.9,130.8"/>
	<path class="st0" d="M49.7,164.4c0,0.8,0.5,1.7,1.4,1.8h0.5c0.4-0.1,0.9-0.3,1.4-0.7l22.5-20c0.5-0.5,0.7-0.8,1.3-1.2l10.1-9
		c0.5-0.5,0.7-0.6,1.3-1c1.1-1,2.7-2.7,3.8-3.5c-1.1-1.7-0.4,0.2-2-3.2l-36.8,32.8C51.6,161.9,49.7,163.1,49.7,164.4"/>
	<path class="st0" d="M79.8,153.5c0,1.1,0.7,1.8,1.8,1.8h52.8c2.4,0,2.4-3.6,0-3.6H81.6C80.5,151.7,79.8,152.4,79.8,153.5"/>
	<path class="st0" d="M123.9,85.2c0.4,0.6,0.7,0.8,1.1,1.4c0.6,0.8,0.5,1,0.9,1.8l16.3-14.6c0.6-0.5,0.8-0.6,1.4-1.1
		c0.9-0.9,1.7-1.5,2.6-2.4c0.5-0.5,0.7-0.6,1.2-1c0.5-0.4,0.8-0.8,1.3-1.2l12.7-11.4c0.5-0.5,0.7-0.5,1.3-1c1.6-1.5,3.5-2.7,3.5-4
		c0-0.8-0.5-1.7-1.4-1.8h-0.5c-0.4,0.1-0.9,0.3-1.4,0.7l-5,4.3c-0.5,0.4-0.8,0.8-1.3,1.2L123.9,85.2z"/>
	<path class="st0" d="M87.1,144.4c0,1.1,0.7,1.8,1.8,1.8h38.2c2.4,0,2.4-3.6,0-3.6H88.9C87.8,142.6,87.1,143.3,87.1,144.4"/>
	<path class="st0" d="M98,135.3c0,1.1,0.7,1.8,1.8,1.8h16.4c2.4,0,2.4-3.6,0-3.6H99.8C98.7,133.5,98,134.2,98,135.3"/>
	<path class="st0" d="M151.2,96.4c0,3.2-0.5,4.8,2.3,4.8c2.2,0,2.2-6.6,0-6.6C152.3,94.6,151.2,94.9,151.2,96.4"/>
	<path class="st0" d="M151.2,122.1c0,3.2-0.5,4.8,2.3,4.8c2.2,0,2.2-6.6,0-6.6C152.3,120.3,151.2,120.6,151.2,122.1"/>
	<path class="st0" d="M60.9,123.2c0,5.5,3.9,3.7,3.9,1.8c0-3.2,0.5-4.8-2.3-4.8C61.3,120.3,60.9,122,60.9,123.2"/>
	<path class="st0" d="M60.9,97.5c0,5.5,3.9,3.7,3.9,1.8c0-3.2,0.5-4.8-2.3-4.8C61.3,94.6,60.9,96.3,60.9,97.5"/>
	<path class="st0" d="M109.8,108c0,2.2,2.1,1.8,3.6,1.8c2.4,0,2.4-3.6,0-3.6C112,106.2,109.8,105.8,109.8,108"/>
</g>
</svg>
