<?xml version="1.0" encoding="utf-8"?>
<!-- Generator: Adobe Illustrator 25.2.0, SVG Export Plug-In . SVG Version: 6.00 Build 0)  -->
<svg version="1.1" id="Layer_1" xmlns="http://www.w3.org/2000/svg" xmlns:xlink="http://www.w3.org/1999/xlink" x="0px" y="0px"
	 viewBox="0 0 216 216" style="enable-background:new 0 0 216 216;" xml:space="preserve">
<style type="text/css">
	.st0{fill-rule:evenodd;clip-rule:evenodd;fill:#FFFFFF;}
</style>
<g>
	<path class="st0" d="M75.4,75.4v10.7H64.5v11.2h10.9V108H64.5V119h10.9v10.7H64.5v10.9h10.9v10.9h10.9v-10.9H97v10.9H108v-10.9
		h10.7v10.9h11.2v-10.9h10.7v-10.7h10.9v-11.2h-10.9V108h10.9V97.1h-10.9V86.4h10.9V75.4h-10.9V64.5h-10.9v10.9h-10.7V64.5H108v10.9
		H97.3V64.5H86.1v10.9H75.4z M86.4,75.4H97v10.7H86.4V75.4z M108,75.4h10.7v10.7H108V75.4z M140.6,75.4v10.7h-10.7V75.4H140.6z
		 M75.4,86.4h10.7v10.7H75.4V86.4z M97.3,86.4H108v10.7H97.3V86.4z M118.9,86.4h10.7v10.7h-10.7V86.4z M86.4,97.3H97V108H86.4V97.3z
		 M108,108V97.3h10.7V108H108z M140.6,108h-10.7V97.3h10.7V108z M75.4,108h10.7v10.7H75.4V108z M108,108v10.7H97.3V108H108z
		 M118.9,108h10.7v10.7h-10.7V108z M86.4,119H97v10.7H86.4V119z M108,119h10.7v10.7H108V119z M129.9,119h10.7v10.7h-10.7V119z
		 M75.4,140.6v-10.7h10.7v10.7H75.4z M108,140.6H97.3v-10.7H108V140.6z M118.9,129.9h10.7v10.7h-10.7V129.9z"/>
	<path class="st0" d="M53.5,162.5h109v-109h-109V162.5z M59.1,59.1h97.8v97.8H59.1V59.1z"/>
	<rect x="64.5" y="64.5" class="st0" width="10.9" height="10.9"/>
	<rect x="140.6" y="140.6" class="st0" width="10.9" height="10.9"/>
</g>
</svg>
