<?xml version="1.0" encoding="utf-8"?>
<!-- Generator: Adobe Illustrator 25.2.0, SVG Export Plug-In . SVG Version: 6.00 Build 0)  -->
<svg version="1.1" id="Layer_1" xmlns="http://www.w3.org/2000/svg" xmlns:xlink="http://www.w3.org/1999/xlink" x="0px" y="0px"
	 viewBox="0 0 216 216" style="enable-background:new 0 0 216 216;" xml:space="preserve">
<style type="text/css">
	.st0{fill-rule:evenodd;clip-rule:evenodd;fill:#FFFFFF;}
</style>
<g>
	<path class="st0" d="M68.1,47.1c0,2.6,4.2,1.8,8,1.8v102.3c-9.4,0-12.9-6.2-19.8-9c-3.2-1.3-5.9-1.7-9.5-1.7
		c-1.7,0-1.8,1.1-1.8,2.3c0,1.9,4.5,1.1,8.5,2.4c3.1,1,4.7,2.2,7.2,3.9c2.6,1.7,3.7,2.7,6.8,4.1c5.3,2.4,13.6,2.4,19.1,0.2
		c5.2-2.1,8.5-5.7,12.7-7.5c5.2-2.2,11.8-2.3,17.1-0.1c7.3,3.1,9.7,9.2,22.6,9.2c12.1,0,15.3-7.2,23.1-9.7c5.4-1.7,8.7,0,8.7-2.9
		c0-4.3-11.8,0-12.7,0.5c-1.8-3.4-5.9-4.6-8.8-1.8c-3.5,3.5-0.9,6.5-0.6,7.7c-2.4,1.3-5.3,2.3-9.1,2.3V48.9c3.8,0,8,0.8,8-1.8
		c0-0.7-0.8-1.8-1.6-1.8H69.7C68.9,45.3,68.1,46.4,68.1,47.1 M79.8,151.2V48.9h56.5v102.3c-5.2,0-9.8-3.5-12.9-5.7
		c-5.5-3.9-9.2-4.9-16.6-4.9C93.9,140.6,89.6,151.2,79.8,151.2z M152,146.6c-1.8-3.3,2.2-4.2,2.8-1.8
		C154.4,145.3,152.9,146.4,152,146.6z"/>
	<path class="st0" d="M45.1,158c0,4.4,4.8-1.1,15.4,6.6c1.8,1.3,4.8,3.3,6.8,4.1c8.6,3.6,18,2.3,25.5-3c7.1-5,8.3-5.7,17.1-5.7
		c10.9,0,14.5,10.6,27.4,10.6c8.8,0,11.7-1.4,18.1-6c2-1.4,4.4-3.1,7-3.8c6.2-1.7,8.5,0.1,8.5-2.9c0-1.5-0.8-1.8-2.1-1.8
		c-10.9,0-13.8,5.2-21.5,9.1c-4.8,2.4-12.1,2.2-17.1,0.2c-4.5-1.8-7.7-5.5-12.9-7.6c-5.6-2.2-13.1-2.3-18.7-0.1
		c-2.6,1-4.3,2.2-6.4,3.7c-2.1,1.4-3.7,2.8-6.2,3.9c-4.8,2.1-12.2,2.4-17.1,0.1c-8-3.7-10.5-9.2-22.1-9.2
		C45.7,156.1,45.1,156.7,45.1,158"/>
	<path class="st0" d="M118.4,79v30.3c0,3.5,3.9,3.5,3.9,0V79.5C122.2,75.7,118.4,76.4,118.4,79"/>
	<path class="st0" d="M84.2,135.2c0,7.2,11.1,7.2,11.1,0c0-2.7-2.5-5.4-4.7-5.4c-2,0-3.3-0.2-5,1.7
		C84.9,132.3,84.2,133.8,84.2,135.2 M88.1,135.4c0-2.9,3.4-2.8,3.4,0C91.4,137.2,88.1,137.2,88.1,135.4z"/>
	<path class="st0" d="M143,119.6c0,1.9,0,2.8,1.7,4.5c3.3,3.2,9.1,1,9.1-4.2C153.8,112.9,143,113,143,119.6 M148.4,121.7
		c-2.8,0-1.9-3.4-0.3-3.4C150.7,118.3,150.8,121.7,148.4,121.7z"/>
	<path class="st0" d="M94,64.2v17.1c0,3.9,3.9,3.3,3.9,0.8V63.4C97.9,60.8,94,60.5,94,64.2"/>
	<path class="st0" d="M121.5,131.3c0,1.8,0,3.1,1.5,4.4c3.1,2.8,8.3,0.5,8.3-3.7c0-4.2-5.2-6.5-8.3-3.7
		C122.4,128.9,121.5,130.3,121.5,131.3 M125.1,132.1c0-1.3,2.3-1.7,2.3-0.3v0.5C127.4,133.7,125.1,133.4,125.1,132.1z"/>
	<path class="st0" d="M58.3,128.7c0,7.9,9.1,5.8,9.1,1.3C67.3,122.4,58.3,124.2,58.3,128.7 M61.9,128.9c0.6-0.3,1.2-0.6,1.7,0.2
		c0.4,0.7-0.3,1-0.9,1.1C62,129.8,62,130,61.9,128.9z"/>
	<path class="st0" d="M94,116.3v7.8c0,3.7,3.9,3.2,3.9,0.5v-9.1C97.9,112.9,94,112.4,94,116.3"/>
</g>
</svg>
