<?xml version="1.0" encoding="utf-8"?>
<!-- Generator: Adobe Illustrator 25.2.0, SVG Export Plug-In . SVG Version: 6.00 Build 0)  -->
<svg version="1.1" id="Layer_1" xmlns="http://www.w3.org/2000/svg" xmlns:xlink="http://www.w3.org/1999/xlink" x="0px" y="0px"
	 viewBox="0 0 216 216" style="enable-background:new 0 0 216 216;" xml:space="preserve">
<style type="text/css">
	.st0{fill-rule:evenodd;clip-rule:evenodd;fill:#FFFFFF;}
</style>
<g>
	<path class="st0" d="M35.9,85.4c0,10.2,2.1,17.2,7.7,24.7c1.5,2.1,3.7,4.6,5.7,6.1c0.7,0.5,0.9,0.8,1.6,1.2
		c0.7,0.5,1.2,0.8,1.7,1.4c-0.7,3.2-1.7,1.5-1.7,8.7c0,7.5,7.4,15.2,14.9,15.2v20.3h-5.4c0.4-1.5,0.6-0.4,0.6-2.8
		c0-1.4-2.3-2.2-3.6-1c-0.6,0.5-0.7,1.3-1,2.1c-0.8,1.9-0.5,1.6-1.3,1.8c-0.1-0.9-1.2-4.5-3.1-4.5c-0.9,0-2.3,1.3-2.3,2
		c0,0.9,0.5,1.9,0.8,2.5c-3.1,0-8.2-0.8-8.2,2.3c0,1.3,1.2,2.3,2.5,2.3h126.2c2.9,0,3.3-3.4,0.9-4.3c-0.9-0.4-2.4-0.2-3.5-0.2
		c0.4-1.5,0.6-0.4,0.6-2.8c0-1.4-2.2-2.1-3.5-1c-0.9,0.7-1.1,2.4-1.5,3.1c-0.4,0.8,0,0.5-0.9,0.8c-1.7-7.3-5.4-3.9-5.4-2.3
		c0,1.2,0.4,0.9,0.6,2.3h-4.5v-13.2c2.4,0,20.4,2.9,21.9,2.8c2.3-0.2,4.3-2,4.3-5c0-2.7-5.7-11.1-7.5-13.6c-1-1.5-2-2.7-2.9-4.1
		c3.7,0,5.6-1.3,5.6-5.1c0-2.2-3.1-6.6-4.3-8.4l-5.3-7.7c3.4,0.8,5.9-1.5,5.9-4.8c0-2.5-2.8-5.3-2.8-6.2c0-0.6,1.6-2.1,2.4-3.5
		c5.6-9.3,5.5-20.9-0.7-29.8c-0.5-0.6-0.9-1.3-1.5-1.9c-1.7-1.9-2.6-3.1-5.1-4.8c-1.5-1-2.6-1.7-4.3-2.5c-2.2-1-8.9-4.1-8.9,0.1
		c0,1.7,1.2,2,2.7,2.4c3.2,0.8,4.9,1.6,7.4,3.3c3.2,2.1,5.8,5.1,7.5,8.5c2.9,5.8,3.2,12.9,0.8,18.9c-0.6,1.6-2.1,4.4-3.2,5.2
		l-4.6-5.8c-2.5-2.8-6.2-8.5-10.1-8.5c-2.8,0-2.6,1.5-4.2,2c-0.3-1.1-2.3-3.9-3.1-4.8c-2.3-2.8-5.2-5.5-8.4-7.4
		c-1.7-1-3.4-2.2-5.5-2.7c0.2-0.8,0.7-1.1,1.2-1.9l3.6-3.2c2.4-1.6,3.5-2.4,6.6-3.3c2.7-0.8,4.1-0.3,4.1-3.3c0-2.7-4.5-1.2-5.6-0.8
		c-4.5,1.5-6.8,3-10.4,6c-0.9,0.7-3.5,3.7-3.7,4.7c-4.5,0-7.3-2.1-16.7,0.2c-4.4,1.1-0.7,1.5-8.2-6.1C87.1,44.8,62,44.7,47.6,59.1
		c-1.7,1.8-2.9,2.9-4.4,4.9C39,69.8,35.9,78.1,35.9,85.4 M96.2,77c1.6,0,3.3-2.6,6.4-4.3c0.9-0.5,1.6-1,2.3-1.3
		c12-5.6,27.3-2.6,35.2,7.4c1.9,2.4,3.6,5.4,4.3,6.2l-3.6,4.3c-1.3,1.6-2.3,3-3.6,4.6c-1.5,2-5.8,8.2-5.8,10.5c0,1.4,1,3.1,1.9,3.7
		c1.6,1.2,2.4,0.9,4.3,0.8c-2.2,3.3-9.9,12.5-9.9,16.6c-1.2,0.3-2.2,0.6-3.6,1c-1,0.2-3.4,0.4-4.1,0.7l0-18.9c0-1.6-0.2-1.3,0.6-2.2
		l8.1-8c1.5-1.5,2.3-1.7,2.3-3.9c0-0.8-1.2-1.7-2-1.7c-2.2,0-6.3,6.1-9,7.9c0-3,0.9-11.6-2-11.6c-2.1,0-2.6,1.2-2.5,3.4l0,18
		c-2.1-1.4-3.2-4.5-6.2-4.5c-0.8,0-1.7,1.2-1.7,2c0,1.7,4.9,5.9,6.3,7.3c2.1,2.1,1.6,1.3,1.6,5.1c0,2.3,0,4.7,0,7
		c-2.7-0.6-3.1-0.3-6.5-1.3c-1-0.3-1.2-0.5-2.2-0.6c-0.1-6.6-6.8-13.9-12.1-14.4c0.3-3.8,1.8-7-1.6-12.5l-3-3.8c0,0-0.1-0.1-0.1-0.1
		c-1.5-1.4-1.8-1.7,0.2-6.9c1.4-3.7,2.2-3.5,2.2-6c0-1-2.6-3.3-4.2,0c-1.2,2.3-3.3,6.6-3.4,9.3c-2.4-0.1-0.7-0.8-7.3-0.8
		c1.8-2.8,5.7-4.7,5.6-6.7c-0.1-1-0.8-2-2.2-2c-2.2,0-7.7,7.6-10.7,9.6L70.2,79c-0.2-1-0.9-2-2.2-2c-2.5,0-2.3,2-2.3,4.5l0,13.5
		c0,2.5-1.5,2.7-2,4.8c-2.3-0.6-1.9-3.4-5.4-3.4c-0.8,0-1.7,1.2-1.7,2c0,1.5,2.6,3.7,4.2,5.1c2.8,2.7,0.6,1,2,7.3
		c-2.4,0.2-6.5,2.9-7.6,4.5c-4.7-3.1-7.6-6.4-10.5-11.2c-9.9-16.6-3.6-38.8,14.6-47.9c12.5-6.3,29.1-3.8,38.4,5.6
		c1.8,1.9,3.6,3.5,4.9,5.8c-1.2,0.6-2.1,1.1-3.3,1.8c-1.1,0.7-1.9,1.4-2.9,2.2C91.2,75.8,96,77,96.2,77z M135.9,104.6
		c0.3-3.6,10.8-15.4,13.2-18.4c0.8-0.9,1.6-1.5,2.3-2.5c2,1.3,3.7,3.8,5,5.1c3.8,4,7.2,9.1,10.2,13.8c1.9,3.1-0.4,1.7-8.7,0.8
		c-8.3-0.9-5-1.1-14,0.1L135.9,104.6z M78.4,94.2c3.8,0,6.3,1.4,8.4,3.1c6.9,5.7,2.9,14,2.9,15.2c0,3.2,3.3,0.9,8.1,4.5
		c8.2,6.1,5.7,21.7-8.1,21.7c-1.7,0-4.1-0.8-5.2-1.5c-4.6-2.8-3.5-2.7-3.5-11.4c0-1.9,5.9-4.3,5.9-7.9c0-1.3-1.4-1.7-2.5-1.7
		c-1,0-2.6,2.3-3.4,2.8c0-2.3,0-4.5,0-6.8c0-3.1,0.6-5.1-2.5-5.1c-0.5,0-1.1,0.6-1.4,0.9c-0.7,1-0.3,5-0.3,6.4c0,3.1,0,6.2,0,9.3
		c-1.5-1-5.2-5.9-6.8-5.9c-1.6,0-2.3,1-2.3,2.3c0,1.4,1.1,2.1,1.9,2.9c0.9,0.9,1.5,1.5,2.4,2.4c5.1,5.1,4.7,3.4,4.7,8
		c0,2.6-5.8,5.4-8.7,5.4c-5.5,0-9.8-2.4-11.8-7c-2.3-5.2-0.7-10.8,3-14.2c4.6-4.1,8.8-1.5,8.8-5.3c0-1.2-1.4-2.6-1.3-6.1
		c0.1-2.6,0.7-4.4,1.8-6.1c0.4-0.6,1.2-1.8,1.7-2.3C72,95.9,75.6,94.2,78.4,94.2z M132.2,125.4c0.3-3.7,10.7-15.9,11.6-17.5
		c5,0,4.2-1.5,11.7-0.4c4.7,0.7,3.6-0.1,8.2,6.1c1.4,1.9,2.6,3.6,3.9,5.6c0.8,1.2,3.1,4.8,3.4,6.1c-2.4,0-11.3-1.2-14.4-1.7
		c-6.3-0.9-4.1-0.7-9.9,0C143.7,124.1,134.7,125.4,132.2,125.4z M130.8,134.4c0,1.6,2,3.9,4.4,0.7c0.7-0.9,4-5.6,4.7-6
		c0.8-0.4,3.4-0.6,4.4-0.7c10.4-1.5,6.6-0.8,17.5,0.3c2.1,0.2,2.4,1.2,4.4,3.8c2.4,3.2,4.4,6.1,6.5,9.5c4.4,7.3,4.5,6.4-2.6,5.4
		c-4.5-0.6-9.6-1.2-14.2-1.9c-6-0.8-7.7-0.1-14.2,0.7c-2.5,0.3-4.7,0.7-7,0.9c-2.3,0.3-5,0.9-7.3,0.9c0.2-2.5,2.5-3.5,2.5-6.5
		c0-0.8-1.2-1.7-2-1.7c-2,0-2.4,1.8-3.1,3.1c-0.6,1-2,3-2,4.5c0,2.5,1.6,4.3,3.7,4.8c1.5,0.4,15.7-1.7,18.8-2.1c1-0.1,2.9-0.5,4-0.5
		v13.2h-9.6c0.3-1.2,0.6-0.7,0.6-2.3c0-2-2.1-2.8-3.4-1.8c-0.6,0.4-0.8,1.3-1.1,2c-0.8,2-0.5,1.8-1.4,2c-1.6-6.8-5.4-4.4-5.4-2.3
		c0,1.2,0.4,0.9,0.6,2.3h-7.6c-0.2-2.3-2-3.6-2-5.1v-26.8c2,0,3.4-0.3,5.2-0.7c1.3-0.3,3.7-1.3,4.6-1.3c1.1,0,0,0.6,3.4,0.6
		C132.9,131.5,130.8,132.7,130.8,134.4z M80.9,155.3v-15.2c12.6,8.4,25-2.2,25.6-10.4c2.9,0.7,5.4,1.7,9,1.7v24.2
		c-1.9-0.9-3.8-1-5.9-0.6c-0.6-1.1-1-2.2-1.9-3.2c-5.8-6.5-14.1-7.5-20.9-2.4c-2,1.5-2.8,2.8-4,4.8
		C82.4,155.1,82.4,155.2,80.9,155.3z M74.2,163.2h-3.9v-19.7c0-0.9,0.5-0.8,1.3-1c2.2-0.6,3.3-1.1,5.2-2.4l0,15.8
		C76.8,160.8,75.4,158.2,74.2,163.2z M95.9,150.5c4.1,0,8.4,2.8,9.8,6.2c2,4.9,1.6,2.5,6.5,2.5c2.9,0,4.3,2,5.4,3.9H78.7
		c2.6-4.9,5-3.3,6.6-4.4c0.7-0.5,1.1-1.5,1.5-2.4C88.5,152.8,92.5,150.5,95.9,150.5z"/>
</g>
</svg>
