<?xml version="1.0" encoding="utf-8"?>
<!-- Generator: Adobe Illustrator 25.2.0, SVG Export Plug-In . SVG Version: 6.00 Build 0)  -->
<svg version="1.1" id="Layer_1" xmlns="http://www.w3.org/2000/svg" xmlns:xlink="http://www.w3.org/1999/xlink" x="0px" y="0px"
	 viewBox="0 0 216 216" style="enable-background:new 0 0 216 216;" xml:space="preserve">
<style type="text/css">
	.st0{fill-rule:evenodd;clip-rule:evenodd;fill:#FFFFFF;}
</style>
<g>
	<path class="st0" d="M65,147.6v3.3c-3.5,0-9.5-0.6-9.5,5.6v4.1c-7.8,0-7.2,5.4-7.2,10c-5,0-6.4-0.6-5.6,2.6
		c0.6,0.1,0.6,0.3,1.3,0.3h127.9c0.7,0,0.7-0.1,1.3-0.3c0.7-3.1-0.6-2.6-5.6-2.6c0-3.4,0.6-6.6-2.2-8.6c-1.3-1-2.9-1.4-5-1.4v-4.6
		c0-2.6-2.5-5.1-5.1-5.1H151c0-4.2,0.5-5.3-2.4-8.1c-1.3-1.2-2.9-1.8-5.3-1.8H72.7c-2.4,0-4,0.6-5.3,1.8c-0.7,0.7-1.2,1.1-1.6,2
		C65.5,145.5,65,146.7,65,147.6 M67.8,148.7c0-1.4,0.3-2.4,0.9-3.1c0.6-0.6,1.6-1.5,2.6-1.5h72.9c4.3,0,3.9,4.5,3.9,6.9H67.8V148.7z
		 M58.4,156.8c0-2,1.1-3.1,3-3.1h93.1c3.9,0,3.1,3.4,3.1,6.9H58.4V156.8z M51.2,167.1c0-1.7,0.9-3.3,2.6-3.3h108.4
		c3.2,0,2.6,4.3,2.6,6.9H51.2V167.1z"/>
	<path class="st0" d="M51.7,78.3c-1.2-1.8-0.9-1.1-1.8-2.3c-2.3-2.8-4.6-4.8-4.6-8.5c0-2,0.9-4.3,2-5.1c0,2.8-0.4,5.8,1.9,7.3
		c3,2.1,6.1-0.2,6.7-2.4c0.4-1.8,0.1-5.5,0.1-7.5c2.9,1.5,2.4,1.3,4.5,3.6l3.6,4.5C61.9,69.7,53.2,77.5,51.7,78.3 M56.3,88.1
		c-1.8,0-1.7-0.4-2.2-3.1c-0.3-1.4-0.7-2.7-0.8-4l13.3-11l5.5,2.2c3.2,1.5-0.6,3.5-2.7,5.4l-8.5,7.1C60,85.2,56.9,88.1,56.3,88.1z
		 M54.5,42.5h0.4c0.1,0,0.4,0.1,0.9,0.3c0.7,3.1,0.3,10.5,0.3,14.3c3.4,0.3,5.9,3.8,7.7,5.8c4.2,4.7,1.7,3.5,7.5,5.8
		c1.9,0.8,4.7,1.8,4.7,4.2c0,4.4-1.7,3.2-3.3,5.6c1.2,0.8,2.4,1.7,3.6,2.6l17.9,12.7c1.1,0.8,6.6,4.2,6.6,5.4c0,3.9-6.3-1.7-7-2.2
		c-1.3-0.9-2.3-1.7-3.6-2.6l-14-10c-1.2-0.8-2.3-1.8-3.5-2.4c0,5-3.5,7.2-8.2,7.2l5.3,12.1c0.4,0.9,0.7,1.5,1,2.3l6.3,14.4
		c0.6,1.4,4,8.7,4,9.6c0,1.7-1.8,2.9-3.2-0.6l-5.7-13c-1.3-3.2-9.7-22.7-11.3-25.8c-1.5,1-2.7,2.8-5.1,2.8c-3,0-3.9-2.4-4.4-4.8
		c-1.7-8.3-1-4.4-6.6-11.9c-4.2-5.6-2.5-13.2,2.5-15.8c0-2.9,0-5.8,0-8.7c0-2-0.7-7.4,1.3-7.4c2.5,0,1.8,2.4,1.8,5.6l0,17.1
		c0,2.7,0.6,2.5,2.6,2c1.1-4.7-0.6-19.9,0.5-24.5C54.1,42.7,54.4,42.6,54.5,42.5z M65.8,86.5c-0.7,0-1.3-0.3-2.1-0.5l5.9-4.9
		c0,1.9,0.1,2.8-0.7,3.8C68.3,85.7,67,86.5,65.8,86.5z"/>
	<path class="st0" d="M159.9,60.2c0,5.1-0.8,9.1,3.3,10.3c1.9,0.5,3.8-0.5,4.6-1.8c1.1-1.7,0.8-3.5,0.8-6.1c2.3,1.5,2.7,6.1,1.1,9
		c-0.8,1.5-4.5,5.4-5.4,6.8l-3.2-2.5c-1-0.9-2-1.6-3.1-2.6l-6.3-5.2l3.5-4.4C156.3,62.5,157.9,60.3,159.9,60.2 M142.8,73.5
		c0-1.1,2-1.7,3-2.1c1.2-0.5,2.6-0.9,3.6-1.5c1.1,0.7,2.4,1.8,3.4,2.7l6.7,5.6c0.7,0.6,1.1,0.9,1.7,1.4c2.3,1.7,1.5,1.5,0.7,5.3
		c-0.7,3.4-1.1,4.2-4.2,1.7l-10.9-9.1C145.9,76.9,142.8,74.6,142.8,73.5z M167.2,42.5h0.4c0.2,0.1,0.4,0.3,1,0.8v15.3
		c1.9,0.5,4.9,4.7,4.9,7.9c0,5.2-0.5,5.5-3.6,9.5c-1.9,2.4-4,4-4.5,6.5c-0.7,3.4-0.7,6.5-3.1,7.9c-3.7,2.2-5.6-1.7-7.2-2.1l-2.4,5.3
		c-4,9.4-8.7,19.5-12.6,28.8c-0.4,1-0.7,1.6-1.1,2.5c-0.4,1-0.7,1.7-1.1,2.7c-1.3,3-3,1.2-3,0.3c0-1.4,3.3-8.3,4.1-10l2.1-4.8
		c0.7-1.6,1.3-3.2,2.1-4.8l2.1-4.8c0.7-1.8,1.3-3.1,2.1-4.8l4.2-9.4c-5.2,0-7.8-2.4-8.2-7.2l-10.8,7.6c-0.7,0.5-1.1,0.8-1.8,1.2
		l-8.6,6.2c-4.4,3-5.4,4.8-6.9,2.1c1-1.8,4.9-4.2,6.7-5.5c1.3-0.9,2.3-1.6,3.6-2.5c1.5-1.1,17.1-12.4,18-12.7
		c-1.8-1.5-3.6-2.6-3.6-5.1c0-3,2.7-4,4.5-4.7c4.9-1.9,4.3-1.4,7.7-5.8c0.4-0.5,0.7-0.7,1.1-1.2c0.4-0.6,0.5-0.7,1-1.3
		c1.4-1.4,3.2-3.2,5.6-3.4c0-2.6,0-5.3,0-7.9c0-2-0.7-6.7,1.3-6.7c2.3,0,1.8,2.4,1.8,5.6V62c0,2.5-0.5,5.6,1,5.6
		c2.4,0,1.8-2.2,1.8-5.4c0-4.4-0.4-16.8,0.3-19.4C166.6,42.7,167,42.6,167.2,42.5z M146.4,81.2c1.1,0.6,2,1.5,3,2.3l2.8,2.5
		c-0.9,0.2-3,1.3-5-0.9C146.3,84.1,146.4,83,146.4,81.2z"/>
</g>
</svg>
