<?xml version="1.0" encoding="utf-8"?>
<!-- Generator: Adobe Illustrator 25.2.0, SVG Export Plug-In . SVG Version: 6.00 Build 0)  -->
<svg version="1.1" id="Layer_1" xmlns="http://www.w3.org/2000/svg" xmlns:xlink="http://www.w3.org/1999/xlink" x="0px" y="0px"
	 viewBox="0 0 216 216" style="enable-background:new 0 0 216 216;" xml:space="preserve">
<style type="text/css">
	.st0{fill-rule:evenodd;clip-rule:evenodd;fill:#FFFFFF;}
</style>
<g>
	<path class="st0" d="M60.3,58.6c0,5.7,2.6,9,6.7,12.1c3.4,2.5,6.3,3.7,10.2,5c0.4,0.1,0.5,0.2,0.9,0.3l0.6,0.2c0,0,0.1,0.1,0.2,0.1
		c-5,0.4-21.6,6.3-21.6,15.2c0,8.9,11.7,13.1,18.8,15.1c0.4,0.1,0.5,0.1,0.9,0.3l0.6,0.2c0,0,0.1,0.1,0.2,0.1
		c-4.6,0.1-13.8,3-18.4,4.9c-15.9,6.6-15.6,19.1,3.4,25.7c6.8,2.4,15.6,4,23.9,4.7l-2.6,1c-1,0.3-1.7,0.6-2.6,1
		c-1.8,0.8-3.4,1.6-4.9,2.7c-8.7,5.9-8.6,13.6,0.4,19.4c3.4,2.2,7.1,3.6,11.4,4.9c19.6,5.8,56.3,5.9,73-4.9
		c12.8-8.2,6.4-18.4-8-23.4c-5.2-1.8-14.8-3.9-20.6-4.4c-1.3-0.1-2.2-0.3-3.3-0.3l5.4-2.2c12.8-5.5,15.5-15.9,3.4-22.6
		c-5.7-3.1-7.5-3-11.9-4.6c-1.7-0.6,1.2,0.5-0.4-0.2l-0.4-0.2c5.8-0.1,20.4-4.5,25.6-9.2c2.3-2,4.1-4.4,4.1-8.2
		c0-7.2-10.3-11.9-16-13.7c-6.8-2.2-17-4.2-25.8-4.2c0.2-0.7,0.1-0.4,0.7-0.8c0.1-0.1,0.7-0.4,0.9-0.5c2.7-1.6,5.9-4.5,7.4-7.2
		c4.4-7.6-1.2-15.9-9.3-19.9c-9.2-4.6-22.7-5.8-33.2-3.1c-2.9,0.7-6.3,1.8-8.9,3.1C66.1,47.6,60.3,52.5,60.3,58.6 M89.2,45.4
		c8.6,0,13,0,21.1,3.6c0.7,0.3,0.8,0.4,1.4,0.8c0.6,0.4,1,0.5,1.6,0.9c5.6,3.5,8.4,9.3,2.4,15.2c-11.6,11.5-47.5,9-50.7-5.3
		c-1.2-5.3,4.1-9.2,8.1-11.2C77.1,47.4,83.2,45.4,89.2,45.4z M61.9,92.3c0-2.4,0.5-3.6,2.8-5.3c1.6-1.2,2.6-1.8,4.5-2.8
		c3.1-1.5,7-2.7,10.7-3.6c7.1-1.8,18.5-2.9,26-2.9c2.5,0,4.1,0.3,6.7,0.3c5.1,0,14.6,1.6,19.3,2.6c4.1,0.9,18.3,5.3,18.3,10.6
		c0,2.4-0.5,3.6-2.8,5.3c-9.7,7.2-29.2,9.3-41.2,9.3c-4.6,0-9.3-0.5-13.5-0.8c-4.4-0.4-8.7-1.1-12.6-2C76.5,102,61.9,97.9,61.9,92.3
		z M52.7,124.9c0-2.6,0.5-3.3,2.9-5.3c1.5-1.3,2.6-1.8,4.5-2.8c4.2-2.1,11.9-4.2,16.5-4.8c15.3-2.2,31.4-2.6,46.4,1.2
		c4.1,1,7.4,2,10.9,3.7c2.5,1.2,7.5,3.9,7.5,7.4c0,5.8-13.8,10-17.9,11c-3.6,0.9-8.3,1.8-12.4,2.2c-2.1,0.2-4.7,0.6-6.7,0.6
		c-1.2,0-2.5-0.1-3.7,0c-1.3,0.1-1.7,0.3-3.4,0.3c-11.6,0-26.7-1.9-37.1-6.5C58,130.9,52.7,127.7,52.7,124.9z M118.9,142.8
		c12.1,0,31.7,2,41.3,9.2c7.2,5.3,0.2,10.6-5.6,12.8c-1.5,0.6-2.7,1.1-4.1,1.5c-4.9,1.6-12.2,3.3-18.2,3.7c-1.4,0.1-3.6,0.3-4.9,0.5
		c-3.1,0.4-17.9,0.1-20.8-0.4c-1.8-0.3-3.5-0.4-5-0.6c-3.4-0.5-6.2-1-9.2-1.8C55.6,158.5,82,142.8,118.9,142.8z"/>
	<path class="st0" d="M81.9,156.9c0,2.9,9.7,6.9,12.2,7.7c6.9,2.3,17.3,3.4,25.3,2.3c2.4-0.3,5.1-0.1,5.8-2.1c0.3-0.9,0-2.1-0.9-2.6
		c-0.9-0.6-1.8-0.4-3.1-0.2c-11.2,1.4-24.8,0.4-34.1-5.9c-0.5-0.4-3-2.6-4.6-0.8C82.2,155.5,81.9,156.4,81.9,156.9"/>
	<path class="st0" d="M116.4,97.4c-4.4,0-7.3,0.1-11.6-0.5c-3.6-0.5-4.1,0.1-4.1,2.7c0,1.8,3.1,1.8,5,2c11.7,1.5,26.9-0.4,36.1-7.1
		c4.4-3.2,1.3-5.1,0-5.1c-1.9,0-4.3,3.4-11.4,5.5C126,96.2,121.8,97.4,116.4,97.4"/>
</g>
</svg>
