<?xml version="1.0" encoding="utf-8"?>
<!-- Generator: Adobe Illustrator 25.2.0, SVG Export Plug-In . SVG Version: 6.00 Build 0)  -->
<svg version="1.1" id="Layer_1" xmlns="http://www.w3.org/2000/svg" xmlns:xlink="http://www.w3.org/1999/xlink" x="0px" y="0px"
	 viewBox="0 0 216 216" style="enable-background:new 0 0 216 216;" xml:space="preserve">
<style type="text/css">
	.st0{fill-rule:evenodd;clip-rule:evenodd;fill:#FFFFFF;}
</style>
<g>
	<path class="st0" d="M50.2,96.4c0,1.3,1.7,2.5,2.4,3.2l17.3,17.3c0.9,0.9,4,4.9,5.4,0.6c0.4-1.2,0.8-1.9,1.2-3.1
		c0.7-2.2,1.6-4.1,2.4-6.2l3.6-9.3c0.4-1,0.9-2,1.1-3.2c4.2,2.8,14.2,10.6,19,14.2c5.2,4,4.8,1.7,8.1-10.3l3.8-13.4l17.7,12.1
		c0.9,0.6,5.2,3.9,6,3.9c3,0,2-5.3,2.5-9.9c0.5-4.6,0.8-12.8,1.1-17.6c0-0.9,0.2-1.1,0.2-2c2,1,20.4,10.4,21,10.4c1.1,0,2-0.6,2-1.8
		V51.9c0-1.1-1.7-1.9-3-1.2l-5.7,4.5c-0.5,0.4-0.8,0.7-1.4,1.1c-4.3,3.2-8.9,6.7-13.5,9.5c-3,1.8-8,4.9-11.1,6.5
		c-0.7,0.4-1.1,0.5-1.8,1c-6.4,3.8-21.9,9.9-28.6,12.1c-7.6,2.5-20.5,5.8-28.5,6.9l-11.1,1.5c-0.9,0.1-1.6,0.1-2.6,0.2
		C53.5,94.4,50.2,93.9,50.2,96.4 M143.9,68.9c2.1-0.6,16.4-11.7,17.4-12.2v21.2L143.9,68.9z M136.7,96.6c-1-0.5-1.5-1-2.4-1.6
		l-4.8-3.3c-0.8-0.6-1.7-1.1-2.5-1.7c-1.5-1.1-9.1-6-9.6-6.8l18.1-9c0.7-0.4,2-1.2,2.7-1.4c0,4-0.7,8-0.7,12l-0.5,5.9
		C136.8,92.7,136.7,94.4,136.7,96.6z M104.8,106.3c-1.1-0.1-3.7-2.4-4.6-3.1l-12.6-9.5c-0.3-0.2-0.4-0.3-0.6-0.5
		c2.1-0.5,4-1,6.1-1.6l17.4-5.6C109.7,89.2,104.9,104.9,104.8,106.3z M72.6,113.8c-0.9-0.3-1.5-1.1-2.1-1.8l-11.9-11.9
		C57.9,99.5,57,99,56.8,98c2.2,0,4-0.3,6.1-0.5c4.8-0.5,12.4-1.6,17-2.7C79.3,96.7,72.9,112.2,72.6,113.8z"/>
	<path class="st0" d="M50.2,113.3c0,2.7,0.6,5.5,0.9,8.1l2.7,20.1c0.7,5.3,4.3,1.8,7.3-0.5l12-8.7c0.8-0.6,1.7-1.3,2.5-1.8l5,25
		c0.2,0.7,0.1,0.9,0.6,1.5c1.6,1.9,3.2,0,4.5-1.1l16.4-13.6c0.9-0.8,1.8-1.7,2.9-2.3c0.1,0.8,4.2,11.2,4.5,12.2l3.5,9.1
		c1.3,3.3,3.2,2.6,5.1,0.2c1.9-2.4,15.5-16.5,15.8-17.6c0.7,0.5,1.2,1.7,1.7,2.6l10.8,18.4c2,2.3,3.8-1.2,4.3-1.9l4.4-6.5
		c1.2-1.8,10.7-15.2,10.7-16.4c0-1.4-0.9-2-1.4-2c-3.2,0-6.1,0.4-9,0.7l-9.7,0.2c-19.7,0-37.1-3.5-52.2-8.1l-11-3.9
		c-0.9-0.4-1.7-0.6-2.6-1c-0.9-0.4-1.8-0.8-2.6-1.2c-1.8-0.8-3.5-1.5-5.3-2.3c-4.6-2.1-12.4-6.4-17.1-9.3c-1-0.6-1.5-1.3-2.8-1.3
		C51.1,111.8,50.2,112.5,50.2,113.3 M54.7,117.6c1.6,0.8,3,1.6,4.5,2.5l4.5,2.5c1.6,0.8,3.1,1.5,4.7,2.3c0.8,0.4,4.3,2.1,5,2.2
		c-0.5,0.7-3,2.3-3.8,2.9l-12.2,8.8C57.4,136,54.7,120.3,54.7,117.6z M79.8,130c1.9,0.4,3.5,1.3,5.3,1.9c2,0.7,3.6,1.3,5.5,1.9
		l8.5,2.6c0.6,0.2,0.7,0.2,1.4,0.4c0.9,0.2,0.9,0,1.4,0.6c-0.8,0.2-5.8,4.7-6.7,5.5l-11.1,9.2l-3.3-16.4
		C80.5,134.2,79.8,131.6,79.8,130z M108.9,138.9c4.6,1.1,16.5,3.2,21.4,3.2l-5.4,5.9c-0.7,0.9-1,1.2-1.8,2l-5.3,5.9
		c-0.6,0.8-1.2,1.4-2,1.9c-0.1-0.9-0.4-1.5-0.7-2.4l-4.5-11.7c-0.3-0.8-0.5-1.5-0.9-2.3C109.4,140.5,109,139.9,108.9,138.9z
		 M148,159.6l-8.6-14.7c-0.5-0.7-0.9-1.3-1.1-2.2c2.2,0,14.8,0.1,16.4-0.1c1.3-0.2,4-0.4,5.3-0.4l-8.9,13
		C150.4,156.3,148.7,159.1,148,159.6z"/>
	<path class="st0" d="M71.2,65.7c0,7.3,11.1,8.2,11.6,0.4c0.4-5-6-8.2-9.9-4.3C72.1,62.6,71.2,64.3,71.2,65.7 M77.5,67.5
		c-3.6,0-2.4-3.6-0.5-3.6C79.5,63.9,79.3,67.5,77.5,67.5z"/>
	<path class="st0" d="M144.1,114.9c0,9.2,11.5,7.8,11.5,0.7c0-1.9-0.7-3.2-1.7-4.1c-2.4-2.3-5.9-2.3-8.2,0.1l-1,1.3
		C144.4,113.4,144.1,114.1,144.1,114.9 M148,115.6c0-1.9,3.6-3.1,3.6,0.5C151.6,117.8,148,118,148,115.6z"/>
	<path class="st0" d="M61.7,161.7c3.8,0,7.8-4.3,4.8-9.1c-3.5-5.6-12.9-1.1-10,5.5c0.6,1.5,2,2.7,3.4,3.2
		C60.2,161.4,61.5,161.7,61.7,161.7 M59.9,155.8c0-2.4,3.6-2.4,3.6,0C63.5,158.2,59.9,158.2,59.9,155.8z"/>
	<rect x="119.1" y="104.1" class="st0" width="4.1" height="5.9"/>
	<path class="st0" d="M98.1,159.6h4.1v-5.2c0-0.5-0.2-0.7-0.7-0.7h-3.4V159.6z"/>
	<path class="st0" d="M102.5,56.6c0.3,0.8,1.9,2.3,2.5,2.8c0.8-0.2,3.6-3.1,4.1-3.8l-2.9-2.8L102.5,56.6z"/>
	<rect x="128.8" y="58" class="st0" width="3.8" height="5.9"/>
	<path class="st0" d="M129.3,127.6l2.6,2.7c1-0.3,1.4-1.1,2.1-1.7c0.7-0.7,1.3-1.2,1.9-2c-0.2-0.8-2-2.5-2.7-2.9L129.3,127.6z"/>
	<path class="st0" d="M129.2,160.1l2.9,3c0.9-1.3,3.3-2.8,3.7-4.1l-2.4-2.5C132,156.8,130.5,159.3,129.2,160.1"/>
	<polygon class="st0" points="68,143.8 71.7,147.6 74.7,144.8 70.8,141.1 	"/>
	<polygon class="st0" points="85.2,81.7 88,84.4 91.8,80.7 89.1,77.8 	"/>
	<polygon class="st0" points="152.2,88.2 156.1,92.1 158.9,89.5 155,85.5 	"/>
	<polygon class="st0" points="85.2,116.9 89.1,120.7 91.8,118.1 88,114.2 	"/>
	<polygon class="st0" points="52.8,71 56.5,74.8 59.3,72.1 55.6,68.2 	"/>
	<polygon class="st0" points="70,162.1 72.6,164.8 76.4,161 73.9,158.3 	"/>
</g>
</svg>
