<?xml version="1.0" encoding="utf-8"?>
<!-- Generator: Adobe Illustrator 25.2.0, SVG Export Plug-In . SVG Version: 6.00 Build 0)  -->
<svg version="1.1" id="Layer_1" xmlns="http://www.w3.org/2000/svg" xmlns:xlink="http://www.w3.org/1999/xlink" x="0px" y="0px"
	 viewBox="0 0 216 216" style="enable-background:new 0 0 216 216;" xml:space="preserve">
<style type="text/css">
	.st0{fill-rule:evenodd;clip-rule:evenodd;fill:#FFFFFF;}
</style>
<g>
	<path class="st0" d="M51.5,117.7v9.6c-3.4,0-5.8,0.5-8,2.7c-6.4,6.1-1.6,12.1-0.8,16.3c0.7,3.5,2.4,14.2,4.3,16.5
		c2.4,2.9,4.3,3.6,8.1,3.6c0,10-1.3,8.7,8.7,8.7c2.1,0,2.3-2.2,3.1-3.7c2.2-4.4,0.6-5,2.1-5h41c0,3.1,0.1,2.3,1.7,5.6
		c1.9,3.8,0.9,3.1,9.8,3.1c2.1,0,1.6-3.6,1.6-4.9c0-4.9-0.7-3.3,2.9-4c3.3-0.7,5.9-3.5,6.8-6.6c1.3-4.5,2.1-12.4,3.8-16.4
		c1.2-2.8,1.6-3.1,1.6-6.4c0-5.7-4.7-9.6-11.2-9.6c0-6.2,0.7-11.7-2.9-15.9c-1.8-2-4.5-3.8-8.3-3.8H62.5
		C56.6,107.6,51.5,112.7,51.5,117.7 M62.7,112H116c3,0,6.3,3,6.3,6v9.8c0,0.9-0.9,1-1.7,1.3c-0.6,0.3-1.4,0.8-1.9,1.1
		c-3.9,2.8-4.5,5.1-6.7,8.9c-0.4,0.8-0.6,1.8-1.5,1.8H67.9c-1.5,0-4.4-10.8-12-12.6c0-7.2-1.3-11.6,2.4-14.8
		C59.3,112.6,60.9,112,62.7,112z M44.7,137.6c0-8.5,12.1-8,16.9,1.7c0.5,1,0.9,1.5,1.4,2.5c1.1,1.9,1.2,3.7,3.9,3.7h45.1
		c2.2,0,2.8-2.2,3.6-3.7l2.8-4.9c4.5-6.8,15.5-7.5,15.5,0.7c0,2-1.7,4.2-2.2,6c-0.9,3.3-2.3,14.8-4.2,16.9c-0.5,0.6-2,1.4-2.9,1.4
		H53.7c-2,0-3.7-1.8-4.2-4.1L46.8,144C46.3,141.8,44.7,139.7,44.7,137.6z M114.4,166.6h4.3v4.1h-2.2c-0.9,0-1.1-1-1.4-1.6
		C114.8,168.2,114.4,167.9,114.4,166.6z M62.5,170.7h-3v-4.1h4.3C63.8,168.8,62.8,169,62.5,170.7z"/>
	<path class="st0" d="M131.3,105.4c0,1.1,1.3,2.2,2.5,2.2h9c0,6.8-1,9.6,3.3,9.6v41h-3c-2.8,0-5.7,3-5.7,5.7v9.3
		c0,1.3,0.9,2.2,2.2,2.2h28.2c1.3,0,2.2-0.9,2.2-2.2v-9.3c0-3-2.8-5.7-5.7-5.7h-3v-41c4.5,0,3.5-1.3,3.5-9.6h3v6.6
		c0,2.8,4.3,2.7,4.3-0.3v-6.3c1.8,0,4.3,0,3.9-2.6c-0.1-0.8-0.4-1.6-0.6-2.3l-7.5-25.6c-0.5-1.7-0.9-3.1-2.9-3.1h-22.1
		c-3.2,0-3.2,2.5-4.3,6.4L131.3,105.4z M143.6,78.6h20.2l1.7,6.2c0.6,2,1.3,4.2,1.8,6.1l3.6,12.2h-34.4
		C136.6,101.9,142.8,81.9,143.6,78.6z M147.1,112.8v-5.2h13.1v5.2c-1.3,0-1.1-0.3-2.5-0.3C153.4,112.5,151.4,112.3,147.1,112.8z
		 M150.4,117.2h6.3v40.7h-6.3V117.2z M141.7,164.4c0-1.3,0.6-1.9,1.9-1.9h19.9c2.8,0,1.9,3.4,1.9,8.5h-23.8V164.4z"/>
	<path class="st0" d="M40,43.7v39.1c0,1.9,0.9,3.3,2.8,3.3H89c2.1,0,3-1.2,3-3.3V43.7c0-1.3-0.8-3-1.9-3H42
		C40.8,40.7,40,42.3,40,43.7 M44.7,45h42.7v36.3H44.7V45z"/>
	<path class="st0" d="M95.8,42.3v41.5c0,1.4,1.2,2.2,2.5,2.2h31.7c1.8,0,2.8-1.4,2.8-3.3V44.2c0-1.5-0.5-3.6-1.9-3.6H98
		C97,40.7,95.8,41.4,95.8,42.3 M100.1,45H128v36.3h-27.9V45z"/>
	<path class="st0" d="M49.1,51.9v22.9c0,1.3,1.1,2.5,2.5,2.5h29.2c1.4,0,2.5-1.1,2.5-2.5V52.4c0-2-1-3-3-3H52.1
		C50.4,49.4,49.1,50.2,49.1,51.9 M66.8,63.6c-6.5,0-5.3-2.2-9.8-2.2c-1.5,0-1.9,0.3-3.6,0.3V54h25.4v7.7
		C74.4,59.6,69.2,63.6,66.8,63.6z M53.4,66.3c6.2-1.4,5.9,1,10.9,1.7c6.4,0.9,9.3-4,13.3-2.1c1.8,0.9,1.2,1.1,1.2,7H53.4V66.3z"/>
	<path class="st0" d="M103.7,50.5v25.1c0,1.4,1.1,2.5,2.5,2.5h16.1c1.4,0,2.5-1.1,2.5-2.5V50.5c0-1.1-1-2.5-1.9-2.5h-17.2
		C104.6,48,103.7,49.4,103.7,50.5 M108.1,59.8v-7.4h12.3v10.9c-0.9,0.1-2.2,0.4-3,0.6c-0.6-0.9-1.7-2.6-2.6-3.2
		C113,59.3,110.3,58.7,108.1,59.8z M108.1,67.2c0-0.9,0.2-1.7,0.5-2.2c0.3-0.5,0.3-0.5,0.6-0.8c3.3-2.7,3.7,4.1,8.2,4.1
		c1.3,0,2-0.3,3-0.6v6h-12.3V67.2z"/>
	<path class="st0" d="M95.8,119.3c-3.6,0-3.5,4.1,0,4.4c1.1,4.5,4.4,2.9,4.6,0c3.5-0.3,3.7-4.4,0-4.4
		C100.4,115.8,96.1,115.4,95.8,119.3"/>
	<path class="st0" d="M103.2,130.3c-3.8,0-3.8,4.4,0,4.4c0,3.8,4.3,3.8,4.3,0c3.8,0,3.8-4.4,0-4.4
		C107.5,126.5,103.2,126.5,103.2,130.3"/>
	<path class="st0" d="M110.3,119.3c-3.9,0-3.5,4.1,0,4.4c0,3.4,4.3,3.9,4.3,0c4.2-0.1,2.8-4.4,1.1-4.4h-1.1c0-1.5,0-2.7-2.2-2.7
		C110.8,116.6,110.3,117.7,110.3,119.3"/>
	<path class="st0" d="M88.7,130.3c-3.8,0-3.8,4.4,0,4.4c0.1,3.8,4.3,3.8,4.3,0c3.8,0,3.8-4.4,0-4.4C93,126.5,88.8,126.5,88.7,130.3"
		/>
	<path class="st0" d="M81.6,118.2v1.1c-1.3,0-2.8,0-2.8,2.2c0,1.6,1.2,2.1,2.8,2.2c0,3.7,4.3,3.5,4.3,0c3.4-0.1,4.1-4.4,0-4.4
		C85.9,115.1,81.6,116.5,81.6,118.2"/>
	<path class="st0" d="M67.1,119.3c-1.2,0-2.7-0.1-2.7,2.5c0,1,1.2,1.9,2.7,1.9c0.1,3.7,4.4,3.6,4.4,0c4.1-0.1,2.8-4.4,1.1-4.4h-1.1
		C71.5,115.6,67.1,115.6,67.1,119.3"/>
	<path class="st0" d="M74.2,130.3c-3.5,0-3.7,4.3,0,4.4c0.4,4.3,4.4,2.7,4.4,1.1v-1.1c3.9,0,3.9-4.4,0-4.4c0-1.1,0.1-2.7-2.5-2.7
		C75,127.5,74.3,129.1,74.2,130.3"/>
</g>
</svg>
