<?xml version="1.0" encoding="utf-8"?>
<!-- Generator: Adobe Illustrator 25.2.0, SVG Export Plug-In . SVG Version: 6.00 Build 0)  -->
<svg version="1.1" id="Layer_1" xmlns="http://www.w3.org/2000/svg" xmlns:xlink="http://www.w3.org/1999/xlink" x="0px" y="0px"
	 viewBox="0 0 216 216" style="enable-background:new 0 0 216 216;" xml:space="preserve">
<style type="text/css">
	.st0{fill-rule:evenodd;clip-rule:evenodd;fill:#FFFFFF;}
</style>
<g>
	<path class="st0" d="M102.5,131.5h-7.3c-1.1,0-2.1-3.4-3.6-3.4c-1.6,0-2.4,1.4-1,3.3c0.4,0.5,0.6,0.9,1,1.4
		c-1.4,2.1-1.3,7.3,1.1,7.9v12.8c-2.3,1.2-1.9,3.1-1.9,5.6c0,2,1.4,3.6,3.4,3.6h9.4c3.7,0,3.4-4,3.4-6c0-1.7-0.8-2.6-1.9-3.2v-12.8
		c2.4-0.6,2.5-5.8,1.1-7.9c4.9-7.4,7.6-5.6,14-9.1c5-2.6,8.4-8.6,8.4-14.7V84.5c0-2.7-3.4-3.5-3.4,0.6l0,23.1c0,3.8-0.3,5-1.6,7.6
		c-0.9,1.8-2.7,3.7-4.4,4.8c-1.1,0.7-1.7,1-3,1.4c-3.4,1.2-6.5,2.2-9.2,4.7C105.1,128.2,103.2,131.5,102.5,131.5 M94.1,135.2h9.4
		v2.8h-9.4V135.2z M96,141.4h5.6v11.8H96V141.4z M94.1,156.3h9.4v3.2h-9.4V156.3z"/>
	<path class="st0" d="M69.1,73.2v35.9c0,2.7,0.6,5.2,1.5,7.1c1.2,2.8,3.3,5.3,5.9,7c0.9,0.6,1.7,1,2.8,1.5c0.8,0.4,5.7,2.2,6.3,2.2
		c0.7,0,1.5-0.6,1.5-1.7c0-3.1-9.1-1.7-13-9.5c-0.9-1.7-1.6-3.4-1.6-5.9V72.1c0-6.8,4.7-11.9,10-14.3c1.7-0.8,4.5-1.3,7.1-1.3H108
		c8.7,0,15.2,5.4,16.8,12.7c1.2,5.4-1.2,8.4,2.5,8.4c1.7,0,1.3-3.4,1.3-4.5c0-5.3-2-10.1-5.4-13.8c-2.5-2.8-8-6-13.2-6H87.7
		c-5.2,0-10.7,3.3-13.2,6C71,63.1,69.1,67.8,69.1,73.2"/>
	<path class="st0" d="M119.1,142c0,7.5,6,13.9,12.8,13.9c5.1,0,7.6-0.7,11.2-4.2c1.1-1.1,2-2.4,2.6-4c5.8-14.4-12-25.7-22.4-15.4
		C120.9,134.8,119.1,138.3,119.1,142 M122.5,142.6c0-14.5,21-14.5,21,0c0,5.4-4.6,10.1-10.9,10.1
		C127.3,152.7,122.5,147.9,122.5,142.6z"/>
	<path class="st0" d="M86,72.5c0,2.5,4.3,2,4.3,0.4c0-1.1,0.1-2.1-2.4-2.1C86.9,70.8,86,71.4,86,72.5"/>
	<path class="st0" d="M75.3,72.5c0,1.5,1.5,1.7,2.6,1.7c2.1,0,3-3.4-0.6-3.4C76.2,70.8,75.3,71.5,75.3,72.5"/>
	<path class="st0" d="M107.4,72.1c0,1.2,0,2.1,2.1,2.1c3,0,2.8-3.4,0-3.4C108.5,70.8,107.4,71.2,107.4,72.1"/>
	<path class="st0" d="M107.4,89c0,0.8-0.1,2.1,1.9,2.1c0.6,0,1.2-0.1,1.6-0.4c0.9-0.5,1.8-3.1-1.8-3.1
		C108.3,87.7,107.4,88.3,107.4,89"/>
	<path class="st0" d="M119.8,74.2c3.5,0,3.5-3.4,0-3.4C117.4,70.8,117.4,74.2,119.8,74.2"/>
	<path class="st0" d="M120,91.1c3.1,0,2.9-3.4,0.6-3.4C116.4,87.7,117.8,91.1,120,91.1"/>
	<path class="st0" d="M75.3,89.4c0,1,1.1,1.7,2.1,1.7c2.6,0,3.7-3.4-0.4-3.4c-0.6,0-0.9,0.2-1.2,0.5C75.6,88.4,75.3,89.1,75.3,89.4"
		/>
	<path class="st0" d="M96.7,72.5c0,2.3,4.3,2.3,4.3,0C101,70.2,96.7,70.2,96.7,72.5"/>
	<path class="st0" d="M96.7,105.9c0,2.1,0.8,1.9,2.8,1.9c2.3,0,1.7-3.2,0.2-3.2C99,104.6,96.7,104.3,96.7,105.9"/>
	<path class="st0" d="M75.3,106.1c0,2,1.8,1.7,2.8,1.7c2.2,0,2.1-3.2,0-3.2C77.2,104.6,75.3,104.5,75.3,106.1"/>
	<path class="st0" d="M86,89.4c0,1.9,4.3,2.9,4.3-0.4C90.3,87.4,86,86.8,86,89.4"/>
	<path class="st0" d="M119.6,107.8c0.9,0,2.8,0.1,2.8-1.3c0-2.1-1.5-1.9-2.8-1.9C117.4,104.6,117.4,107.8,119.6,107.8"/>
	<path class="st0" d="M96.7,89.4c0,2.3,4.3,2.3,4.3,0C101,87,96.7,87,96.7,89.4"/>
	<path class="st0" d="M112.9,81.3c0,1.5,1,1.7,2.4,1.7c2.5,0,2.5-3.4-0.2-3.4C113.8,79.6,112.9,80,112.9,81.3"/>
	<path class="st0" d="M102,81.3c0,0.4,0.4,1.1,0.6,1.3c0.6,0.5,3.7,1,3.7-1.3C106.3,78.7,102,79.3,102,81.3"/>
	<path class="st0" d="M80.4,98.2c0,1.8,4.3,3,4.3-0.4C84.7,96.1,80.4,95.8,80.4,98.2"/>
	<path class="st0" d="M107.4,106.1c0,2,1.1,1.7,3,1.7c1.5,0,2-3.2-0.4-3.2C109,104.6,107.4,104.4,107.4,106.1"/>
	<path class="st0" d="M91.3,98.2c0,2.5,4.3,2.1,4.3,0C95.6,96,91.3,95.7,91.3,98.2"/>
	<path class="st0" d="M102,98.2c0,2.1,4.3,2.5,4.3,0C106.3,95.7,102,96,102,98.2"/>
	<path class="st0" d="M91.3,81.3c0,2.5,4.3,2.2,4.3,0C95.6,79.3,91.3,78.7,91.3,81.3"/>
	<path class="st0" d="M86,106.1c0,2,1.8,1.7,2.8,1.7c2.3,0,1.7-3.2,0.2-3.2C88,104.6,86,104.4,86,106.1"/>
	<path class="st0" d="M112.9,97.7c0,1.6,0.4,2.1,2.4,2.1c2,0,3.2-3.4-0.6-3.4C113.9,96.5,112.9,97,112.9,97.7"/>
	<path class="st0" d="M130.9,142.2c0,2.3,4.3,2.3,4.3,0S130.9,139.9,130.9,142.2"/>
	<path class="st0" d="M102,115.1c0,1.9,4.3,2.8,4.3-0.4c0-1.4-3-1.7-3.8-0.8C102.3,114,102,114.7,102,115.1"/>
	<path class="st0" d="M91.3,114.6c0,3.4,4.3,2.1,4.3,0.6C95.6,112.3,91.3,113.2,91.3,114.6"/>
	<path class="st0" d="M84.7,115.1c0-1.7-1.2-1.7-2.6-1.7c-1.7,0-2.2,2.2-0.9,3C82.4,117.1,84.7,116.8,84.7,115.1"/>
	<path class="st0" d="M82.1,66.1c1.1,0,2.6,0.2,2.6-1.7c0-1.8-1.5-1.5-3-1.5C80.3,62.9,79.7,66.1,82.1,66.1"/>
	<path class="st0" d="M82.4,83c3.5,0,2.7-3.4,0.4-3.4C79.7,79.6,79.9,83,82.4,83"/>
	<path class="st0" d="M112.9,64.4c0,1.9,1.5,1.7,2.6,1.7c2.2,0,2-3.2,0.4-3.2C114.4,62.9,112.9,62.6,112.9,64.4"/>
	<path class="st0" d="M112.9,114.6c0,2.7,2.8,2.2,3.5,1.8c0.8-0.5,1.8-3-1.8-3C113.9,113.3,112.9,113.9,112.9,114.6"/>
	<path class="st0" d="M91.3,64.4c0,2.4,4.3,2.4,4.3,0C95.6,62.4,91.3,62.1,91.3,64.4"/>
	<path class="st0" d="M102,64.2c0,2.6,4.3,2.7,4.3,0.2C106.3,62,102,62.6,102,64.2"/>
	<path class="st0" d="M136.7,137.9c1.1,0,2.6,0.3,2.6-1.9c0-1.5-1.9-1.3-2.6-1.3C134.4,134.7,134.6,137.9,136.7,137.9"/>
	<path class="st0" d="M126.8,136c0,2.1,1.1,1.9,2.6,1.9c2.1,0,2.2-3.2,0-3.2C128.8,134.7,126.8,134.5,126.8,136"/>
	<path class="st0" d="M136.7,149.7c0.8,0,2.6,0.2,2.6-1.5c0-2-1.7-1.7-2.6-1.7C134.6,146.5,134.4,149.7,136.7,149.7"/>
	<path class="st0" d="M126.8,147.8c0,2.1,1.1,1.9,2.6,1.9c2.2,0,2.1-3.2,0-3.2C128.8,146.5,126.8,146.3,126.8,147.8"/>
</g>
</svg>
