<?xml version="1.0" encoding="utf-8"?>
<!-- Generator: Adobe Illustrator 25.2.0, SVG Export Plug-In . SVG Version: 6.00 Build 0)  -->
<svg version="1.1" id="Layer_1" xmlns="http://www.w3.org/2000/svg" xmlns:xlink="http://www.w3.org/1999/xlink" x="0px" y="0px"
	 viewBox="0 0 216 216" style="enable-background:new 0 0 216 216;" xml:space="preserve">
<style type="text/css">
	.st0{fill-rule:evenodd;clip-rule:evenodd;fill:#FFFFFF;}
</style>
<g>
	<path class="st0" d="M36,38.4v139.2c0,1.4,0.9,2.4,2.4,2.4h14.4c1.4,0,2.4-0.9,2.4-2.4v-31.2c13.8,0,11.3,2.1,13.9-11
		c0.8-4.1,1.7-8.8,2.6-13h5.4L82,152c0.8,4.8,1.6,9.8,2.5,14.9c0.4,2.6,0.9,5.1,1.2,7.5c0.4,2.5,0.4,5.6,3.1,5.6
		c5,0,0.6-8.6,0.6-14.4H102c0.5,2.2,0.5,5.9,0.8,8.2c0.4,2.8-0.3,6.2,2.8,6.2c4.5,0,1.5-8,1.5-14.4H120v12c0,3.2,4.8,3.2,4.8,0v-12
		h12.9c0,1.7-0.4,4.5-0.6,6c-0.4,3.7-1.4,8.4,2.1,8.4c3.1,0,2.4-3.4,2.8-6.2c0.3-2.3,0.3-6,0.8-8.2h12.6c0,5.7-4.4,14.4,0.6,14.4
		c2.7,0,2.6-3,3-5.4l8.1-48.3c0.2-1.3,0.6-2.6,0.6-3.9c3.7,0,6.4,0.3,9.5-2.8c4.1-4.1,3.7-11-0.9-14.5c-2.7-2-4.2-1.9-8.6-1.9
		l1.8-6.6c2-10,0.7-21.6-3.6-30.3c-2-4-2.9-5.5-5.4-9c-0.5-0.7-0.8-0.9-1.4-1.6c-2.5-3.2-6-6.2-9.2-8.5c-2.5-1.8-4.4-2.9-7.4-4.3
		c-15.2-7.7-35.8-5.8-49.4,4.2C77.7,58.5,69.7,76.8,73.4,96.1c0.6,3.1,1.4,4.9,1.9,7.1H55.2V38.4c0-1.5-0.9-2.4-2.4-2.4H38.4
		C36.9,36,36,37,36,38.4 M123,43.2c8.7,0,16.7,3.2,23.1,7.5c2.4,1.6,5.1,4.1,5.7,4.5l-4.5,6.3c-3.9,5.8-6.1,12.9-7.1,19.9
		c-0.2,1.2-0.4,4-0.4,5h-4.5c0-4.2-0.4-8.9-1-12.8c-1.6-10.1-4.3-17.1-8.7-25.8C124.7,46,123.8,44.8,123,43.2z M116.7,43.5
		c2,0,8.5,14.8,9.6,18c2.3,7.3,3.9,15.5,3.9,24.9h-6.3c0-12.7-7.7-23.1-18.1-29.3c-2.9-1.8-7.3-3.7-11-4.6
		C97.1,49,110.5,43.5,116.7,43.5z M90,56.7c5.6,0,15.4,5.1,19.7,9.4c2.4,2.4,4.7,5.3,6.3,8.4c0.8,1.5,1.5,3.4,2,5.2
		c0.6,2.2,0.6,4.3,1.1,6.4l-9.3-0.8c-4.4-0.5-30.4-3.5-31.5-4.5c-1-1,2.8-10.8,3.2-11.8C82.7,66.2,88.6,56.7,90,56.7z M144.9,86.1
		c0-8.1,2.7-15.3,6.3-21.6c1.1-2,2.7-3.6,3.9-5.4c2.3,1.5,5.4,7.7,6.8,10.6c1.4,3.1,3.4,9.9,3.4,14.3c-1.5,0.3-3.1,0.5-4.7,0.7
		c-1.5,0.2-3.3,0.4-5.2,0.5C152.2,85.5,148.3,86.1,144.9,86.1z M77.7,85.8c4,0.9,16,2.6,20.5,3.2c2.6,0.3,4.6,0.5,7.3,0.8l10.6,1.1
		c2.1,0.1,2.8-0.5,2.5,1.2c-0.2,1.2-3.2,11.1-5.2,11.1H81.3c-2,0-3.6-10.9-3.6-12.6L77.7,85.8z M162.3,103.2h-14.4
		c-0.8-3.3-2.7-7.3-2.7-11.7c0-1,3.6-0.6,4.7-0.7c1.6-0.2,3.7-0.4,5.2-0.5c3-0.1,8.1-1.1,10.2-1.2
		C165.3,93.7,163.8,100.3,162.3,103.2z M128.7,103.2h-9c1.5-2.8,3.9-7.9,3.9-12c1.4,0,1.2,0.3,2.7,0.3h3.9c0,1.3-0.3,1.5-0.3,3
		l-0.7,5.9C129.1,101.1,128.8,102.3,128.7,103.2z M135,91.5l5.1-0.3c0,1.7,0.6,4.7,1,6.2l1.4,5.8h-8.7c0-1.5,0.6-4,0.8-5.5
		C134.9,95.5,135,93.8,135,91.5z M169.5,117.6H55.2V108h114.3C177,108,177,117.6,169.5,117.6z M95.4,122.4h52.2
		c-6.7,5.8-18.2,8.7-27,8.7c-7.5,0-13.9-2.3-19.9-5.3L95.4,122.4z M62.7,141.6h-7.5v-19.2h11.4C65.1,128.7,64.2,135.3,62.7,141.6z
		 M82.2,122.4c7.7,0,3.8-0.9,10.7,4.3c1.4,1.1,4.7,3.4,6.4,3.8c0,4.7,0.9,8.8,0.9,13.5H86.4c-1.2,0-1-2-1.5-4.8L82.2,122.4z
		 M158.4,144h-13.8c0-2.7,0.4-5.1,0.6-7.5c0.1-1.9-0.1-6.1,1-7.1l7.2-5.1c2.9-2.4-0.2-1.8,9.3-1.8c0,1.6-0.6,4.1-0.8,5.5l-2.3,13.9
		C159.3,143,159.5,144,158.4,144z M104.4,132.9c3.5,1.7,10.6,3,15.6,3v8.1h-14.7c0-1.3-0.3-4.1-0.5-5.5
		C104.6,137,104.4,134.3,104.4,132.9z M139.5,144h-14.7v-8.1c4.5,0,12.5-2.1,15.6-3.6C140.4,136.7,139.5,140.6,139.5,144z
		 M156.3,160.8h-13.2c0-3.4,0.9-7.2,0.9-12h14.4C158.1,149.4,156.3,159.5,156.3,160.8z M105.6,148.8H120v12h-13.2
		c-0.3-1.3-0.6-4.5-0.6-6C106.2,153.8,105.8,149.3,105.6,148.8z M138,160.8h-13.2v-12h14.4C138.4,152.2,138.8,157.4,138,160.8z
		 M86.7,148.8h14.1c0,2,0.1,3.9,0.3,5.9c0.2,1.6,0.6,4.3,0.6,6H88.5C88.4,158,86.7,151.9,86.7,148.8z M40.8,40.8h9.6v134.4h-9.6
		V40.8z"/>
</g>
</svg>
