<?xml version="1.0" encoding="utf-8"?>
<!-- Generator: Adobe Illustrator 25.2.0, SVG Export Plug-In . SVG Version: 6.00 Build 0)  -->
<svg version="1.1" id="Layer_1" xmlns="http://www.w3.org/2000/svg" xmlns:xlink="http://www.w3.org/1999/xlink" x="0px" y="0px"
	 viewBox="0 0 216 216" style="enable-background:new 0 0 216 216;" xml:space="preserve">
<style type="text/css">
	.st0{fill-rule:evenodd;clip-rule:evenodd;fill:#FFFFFF;}
</style>
<g>
	<path class="st0" d="M69.7,53.8v99.6c0,3.8,3.7,7.4,8.8,7.4c2.3,9.8-1.7,8.5,12,8.5c1.7,0,1.9-2.4,2.1-3.4c0.3-1.8,0.7-3.4,0.7-5.1
		h29.6c0,1,0.3,8.5,2.7,8.5c13.8,0,9.8,1.3,12-8.5c5,0,8.8-3.5,8.8-7.4V53.8c0-3.5-3.6-7.1-7.1-7.1H76.8
		C73.3,46.7,69.7,50.3,69.7,53.8 M74.1,151.8V55.4c0-2.7,1.1-4.4,3.8-4.4h60.2c2.7,0,3.8,1.6,3.8,4.4v96.3c0,2.3-1,4.4-3.3,4.4H77.4
		C75,156.1,74.1,154,74.1,151.8z M88,164.9h-4.4c0-1.7-0.4-2.7-0.5-4.1h5.7C88.5,161.5,88.3,163.9,88,164.9z M127.2,160.8h5.7
		c-0.1,1.4-0.5,2.4-0.5,4.1c-5.4,0-4.5,0.3-4.7-1.8C127.5,162.5,127.4,161.3,127.2,160.8z"/>
	<path class="st0" d="M81.7,123.3c0,8.6,1.9,14.8,7.9,20.9c10.7,10.8,33,10.6,42.1-7.5c3.5-7,3.4-16.4-0.2-23.5
		c-3.4-6.7-10.2-12.3-17.7-13.7c-6-1.2-10.4-0.9-16.2,1.5c-5.6,2.3-10.5,7-13.2,12.3C83.3,115.5,81.7,119.8,81.7,123.3 M86.1,125.8
		c0-9.5,4.9-16.8,12.7-20.4c10.7-5,24.7-0.1,29.2,10.9c9.7,23.7-19.5,40.4-35.1,24.7c-2.1-2.1-3.2-3.6-4.6-6.4
		C87.3,132.5,86.1,128.8,86.1,125.8z"/>
	<path class="st0" d="M88.6,72.1c0,4.2,0,6,1.9,9.9c7.4,14.8,27.8,14.4,34.9,0.2c2.6-5.2,2.7-11.6,0.4-16.9
		c-2.9-6.5-9.5-11.2-16.7-11.2c-6.1,0-10.6,1.2-15,5.5C91.1,62.6,88.6,67.7,88.6,72.1 M92.9,73.2c0-7.9,6.5-14.8,15.6-14.8
		c12.7,0,19.3,16.4,10.3,25.4c-6,5.9-15.8,5.9-21.6,0.1C94.9,81.6,92.9,77.8,92.9,73.2z"/>
	<path class="st0" d="M90.8,124.7c0,5.3,1.9,9.8,5.7,13.2c5.2,4.7,12.7,5.5,19.1,2.7c4-1.7,6.5-4.9,8.3-8.7c3.1-6.5,0.9-14.6-3.8-19
		C108.1,101.5,90.8,111.5,90.8,124.7 M95.4,125.2c0-6.7,5.3-12.6,11.5-12.6c4,0,7.2,0.5,10.1,3.6c4.9,5.1,4.6,13.1,0.1,17.8
		C109.9,141.6,95.4,137.3,95.4,125.2z"/>
	<path class="st0" d="M99.2,72.9v1.4c0,3.8,4.2,7.9,7.9,7.9h1.6c3.8,0,7.9-4.1,7.9-7.9v-1.4c0-4.6-4.2-8.5-8.8-8.5
		S99.2,68.4,99.2,72.9 M103.6,73.5c0-4.1,4.9-5.8,7.5-3.1c2.9,3.2,0.3,7.2-2.9,7.4c-1.1,0.1-2.4-0.5-3.1-1.1
		C104.5,76.1,103.6,74.5,103.6,73.5z"/>
	<path class="st0" d="M48.6,132.1c0,3.5,1.1,7.4,2.3,9.8c1.1,2.1,2.3,3.6,3.8,5.3c2,2.2,4.1,1,4.1-1.3c0-1.2-1.8-2.6-3.5-5.5
		c-3.3-5.6-2.4-14.1,1.9-19.3c0.3-0.4,1.1-1.3,1.4-1.7c0.6-0.9,0.5-3.3-2-3.3c-1.6,0-2.5,1.7-3.4,2.7
		C50.4,121.9,48.6,127.2,48.6,132.1"/>
	<path class="st0" d="M157.3,117.5c0,2.9,1.4,2.1,3.6,6.3c3.1,6,2.4,14.5-2.1,19.5c-0.6,0.6-1,0.8-1.4,1.7c-0.5,1.3,0.8,6.3,5.3,0.6
		c5.2-6.7,6.3-15.7,2.5-23.3c-0.7-1.5-1.3-2.5-2.3-3.7c-1.4-1.7-1.6-2.7-3.9-2.7C158.2,115.9,157.3,116.9,157.3,117.5"/>
	<path class="st0" d="M148.8,122.2c0,2.7,0.4,1.4,2.3,4.3c2.1,3.5,1.8,9.4-1.2,12.6c-3.1,3.2,1.4,8,5.4,0.2c4.6-9-0.5-18.7-4.7-18.7
		C149.8,120.6,148.8,121.5,148.8,122.2"/>
	<path class="st0" d="M59,131.5c0,6.2,3.9,12,5.7,12c2.5,0,3.4-2.4,1.4-4.5c-1.6-1.7-2.6-4.2-2.7-6.8c-0.2-5.8,3.7-7.9,3.7-9
		c0-3.7-3.3-4.3-6.5,1.5C59.9,126.3,59,129.2,59,131.5"/>
	<path class="st0" d="M49.4,66.6c0,1.8,4.8,5,6.2,6.4c1.2,1.1,3.1,3.2,4.4,3.2c1.7,0,2.8-1.6,2.1-3.2c-0.4-0.8-2.5-2.5-3.3-3.1
		c-1.5-1.2-5.4-5.5-7.1-5.5C50.3,64.5,49.4,65.4,49.4,66.6"/>
	<path class="st0" d="M155.3,76.2c1.9,0,3-1.3,4.9-3.1c0.6-0.6,0.9-0.7,1.5-1.2l2.6-2.3c0.8-0.8,2.3-1.6,2.3-2.9
		c0-1.7-2.3-3.3-4.5-1.2c-0.7,0.7-0.8,0.8-1.6,1.4c-1.1,0.9-2.1,1.9-3.2,2.8c-0.7,0.6-1,0.7-1.6,1.4c-0.5,0.4-1.3,1.1-1.6,1.4
		C152.9,74,154,76.2,155.3,76.2"/>
	<path class="st0" d="M164.1,103c1.6,0,2.5-1,2.5-2.2c0-1.6-4.8-5.2-6.2-6.4c-0.5-0.4-0.7-0.8-1.3-1.2c-2-1.7-1.9-2-3.8-2
		c-1.2,0-2.4,2-1.3,3.5l6.3,5.7C162,101.9,162.8,103,164.1,103"/>
	<path class="st0" d="M49.4,100.9c0,1.7,2.3,3.3,4.5,1.2l7.9-7.1c0.9-1.1,0.9-3.6-1.7-3.6c-1.4,0-2.1,1.2-3,1.9l-5.4,4.7
		C50.9,98.7,49.4,99.4,49.4,100.9"/>
	<path class="st0" d="M49.4,83.3c0,3.8,4.8,2.7,10.4,2.7c3.4,0,3.3-4.7,0.3-4.7c-2.9,0-8.5-0.5-9.8,0.6
		C50.1,82.2,49.4,83.1,49.4,83.3"/>
	<path class="st0" d="M156.2,86.1c2.3,0,8.3,0.4,9.5-0.6c1.7-1.4,0.7-4.1-1.6-4.1h-8.2C152.8,81.4,152.8,86.1,156.2,86.1"/>
	<path class="st0" d="M132.4,57.9c0,4.3,4.4,2.9,4.4,0.5C136.7,55.7,132.4,55.6,132.4,57.9"/>
	<path class="st0" d="M79.3,58.4c0,2.3,4.4,3.8,4.4-0.5C83.6,55.6,79.3,55.7,79.3,58.4"/>
	<path class="st0" d="M79.3,148.7c0,2.3,4.4,3.8,4.4-0.5C83.6,146,79.3,146.1,79.3,148.7"/>
	<path class="st0" d="M132.4,148.2c0,4.3,4.4,2.9,4.4,0.5C136.7,146.1,132.4,146,132.4,148.2"/>
</g>
</svg>
