<?xml version="1.0" encoding="utf-8"?>
<!-- Generator: Adobe Illustrator 25.2.0, SVG Export Plug-In . SVG Version: 6.00 Build 0)  -->
<svg version="1.1" id="Layer_1" xmlns="http://www.w3.org/2000/svg" xmlns:xlink="http://www.w3.org/1999/xlink" x="0px" y="0px"
	 viewBox="0 0 216 216" style="enable-background:new 0 0 216 216;" xml:space="preserve">
<style type="text/css">
	.st0{fill-rule:evenodd;clip-rule:evenodd;fill:#FFFFFF;}
</style>
<g>
	<path class="st0" d="M93.2,93c0,5.7,0.2,8.9,2.8,14.2c0.8,1.7,1.4,2.7,2.5,4.2l3.1,3.5c6.5,5.7,11.3,7.9,20.9,7.9
		c9.5,0,19.6-5.3,26.1-11.7c1.2-1.2,2.6-2.3,3.8-3.9c2.6-3.3,4.1-4.8,6.2-9.2c3.3-6.7,4.4-10.4,4.4-18.7c0-4.5-1.7-9.4-3.7-12.7
		c-4.7-7.9-14.3-13.6-23.6-13.6c-8.6,0-14.5,1.9-21,6.1c-4.2,2.7-4.9,3.5-8.4,6.8c-0.5,0.4-0.7,0.8-1.2,1.3l-3.5,4.1
		c-0.8,1-1.4,1.9-2,2.9C96.5,79,93.2,86.3,93.2,93 M129.8,55.4c1.2-0.1,1-0.3,2.3-0.3l6.9,0.2c-0.2,0.9-3.6,4.1-4.4,4.7L129.8,55.4z
		 M129.8,55.4l-4.6,1.2L129.8,55.4z M143.1,56.3c1.9,0.4,3.9,1.7,5.4,2.5l-1.3,1.4c-0.5-0.3-0.5-0.4-1-0.9
		C145.3,58.4,144.2,57.9,143.1,56.3z M125.2,56.6l-3.4,3.5l-1.8-1.7c0.9-0.1,1.7-0.6,2.6-1C123.4,57.1,124.3,56.7,125.2,56.6z
		 M115.4,66.5l-3.3-3.2c0.8-0.3,2.1-1.4,2.9-1.9c1.1-0.7,2-1.3,3.1-1.8l2,2.2L115.4,66.5z M123.4,61.8l4.7-4.8l4.8,4.7l-4.7,4.8
		L123.4,61.8z M136.2,61.8l4.7-4.8c0.7,1,1.5,1.6,2.3,2.5c1.1,1.1,1.9,1.5,2.4,2.3l-4.6,4.7L136.2,61.8z M150.5,60.2
		c1.2,0.4,4.4,3.7,5,4.5l-1.7,1.8c-1.7-1.2-3-3.2-5-4.5L150.5,60.2z M147.4,72.9l-4.8-4.7l4.7-4.8c1.1,0.8,4.3,3.7,5,4.7L147.4,72.9
		z M155.4,67.9c0.8-0.5,0.8-1,1.7-1.2c0.3,1.2,1.7,2.6,2.2,4.9C158.3,70.9,156.1,68.9,155.4,67.9z M109,72.9l-3.3-3.2l4.7-4.8
		l3.3,3.2L109,72.9z M117,68.2l4.7-4.8l4.8,4.7l-4.7,4.8L117,68.2z M129.8,68.2l4.7-4.8l4.8,4.7l-4.7,4.8L129.8,68.2z M153.8,79.3
		l-4.8-4.7l4.9-5c1,0.7,1.6,1.5,2.5,2.3c1,0.9,1.8,1.2,2.5,2.4L153.8,79.3z M102.6,79.3l-2.3-2.2c1-1.5,2.7-4.6,4-5.5l3,2.9
		L102.6,79.3z M110.6,74.6l4.7-4.8l4.8,4.7l-4.7,4.8L110.6,74.6z M123.4,74.6l4.7-4.8l4.8,4.7l-4.7,4.8L123.4,74.6z M136.2,74.6
		l4.7-4.8l4.8,4.7l-4.7,4.8L136.2,74.6z M97,84.9c0.2-1.1,0.6-2,1-3c0.3-0.8,0.8-2,1.2-2.7l1.8,1.7L97,84.9z M104.2,81l4.7-4.8
		l4.8,4.7l-4.7,4.8L104.2,81z M117,81l4.7-4.8l4.8,4.7l-4.7,4.8L117,81z M129.8,81l4.7-4.8l4.8,4.7l-4.7,4.8L129.8,81z M142.6,81
		l4.7-4.8l4.8,4.7l-4.7,4.8L142.6,81z M155.4,81l5.2-5.3c0.2,1.4,0.6,3.2,0.6,4.7c0,1.9-0.5,3.9-0.5,5.7L155.4,81z M102.1,92.6
		l-4.8-4.7l5.2-5.3l4.8,4.7L102.1,92.6z M110.6,87.4l4.7-4.8l4.8,4.7l-4.7,4.8L110.6,87.4z M123.4,87.4l4.7-4.8l4.8,4.7l-4.7,4.8
		L123.4,87.4z M136.2,87.4l4.7-4.8l4.8,4.7l-4.7,4.8L136.2,87.4z M149,87.4l4.7-4.8l5.3,5.2l-4.7,4.8L149,87.4z M149,87.4l10.1,3.6
		L149,87.4z M159.1,91c-0.1,1.3-1.2,3.7-1.7,4.7l-1.5-1.4L159.1,91z M108.5,98.9l-4.8-4.7l5.2-5.3l4.8,4.7L108.5,98.9z M117,93.8
		l4.7-4.8l4.8,4.7l-4.7,4.8L117,93.8z M129.8,93.8l4.7-4.8l4.8,4.7l-4.7,4.8L129.8,93.8z M142.6,93.8l4.7-4.8l5.3,5.2l-4.7,4.8
		L142.6,93.8z M95.4,98.9c0-1.8-0.2-2.6-0.2-4.2c0-1.8,0.5-3.6,0.5-5.2l4.7,4.6C99.8,95.1,96.4,98.6,95.4,98.9z M152.7,103.6
		c-0.8-0.2-2.7-2.2-3.2-3l4.6-4.7l2.1,2C155.6,99.7,153,102.6,152.7,103.6z M114.9,105.3l-4.8-4.7l5.2-5.3l4.8,4.7L114.9,105.3z
		 M123.4,100.2l4.7-4.8l4.8,4.7l-4.7,4.8L123.4,100.2z M136.2,100.2l4.7-4.8l5.3,5.2l-4.7,4.8L136.2,100.2z M97.3,100.7l4.7-4.8
		l4.8,4.7l-4.7,4.8L97.3,100.7z M97.3,100.7l-0.4,2.9L97.3,100.7z M96.9,103.6l3.5,3.4c-0.5,0.7-0.7,1.1-1.5,1.3
		C98.3,107.2,97,104.9,96.9,103.6z M146.4,110.3l-3.3-3.2l4.7-4.8l3.3,3.2L146.4,110.3z M121.3,111.7l-4.8-4.7l5.2-5.3l4.8,4.7
		L121.3,111.7z M129.8,106.6l4.7-4.8l5.3,5.2l-4.7,4.8L129.8,106.6z M103.7,107.1l4.7-4.8l4.8,4.7l-4.7,4.8L103.7,107.1z
		 M100.3,110.2l1.7-1.5l4.8,4.7l-1.7,1.8C103.4,113.7,101.5,112,100.3,110.2z M139,115.6l-2.3-2.2l4.7-4.8l3.3,3.2
		c-1.1,0.6-1.8,1.3-2.8,2C140.8,114.6,140.1,115,139,115.6z M110.1,113.5l4.7-4.8l4.8,4.7l-4.7,4.8L110.1,113.5z M122.9,113.5
		l5.2-5.3l5.3,5.2l-5.2,5.3L122.9,113.5z M112.4,119.1c-0.7-0.1-2.2-0.7-2.9-1.1c-0.9-0.4-1.6-0.9-2.5-1.4l1.4-1.5L112.4,119.1z
		 M131.1,119.1l3.9-4l1.8,1.7C135.7,117.4,132.4,118.9,131.1,119.1z M131.1,119.1h-18.7H131.1z M112.4,119.1h18.7H112.4z
		 M121.3,115.1l5.2,5.1c-1.4,0.1-3.7,0.5-5,0.6c-1.1,0-1.2-0.2-2.5-0.3c-1.3,0-1.6-0.1-2.5-0.5C116.8,119.1,120.4,115.7,121.3,115.1
		z"/>
	<path class="st0" d="M86.3,93.5c0,5.2,0.7,5-0.3,9.5c-1,4.3-2.1,8.7-3.9,12.6c-0.9,1.9-1.8,3.9-2.9,5.5c-2-1.3-1.6-2.2-4.9-2.2
		c-3,0-6.6,4.1-6.6,6.1c0,3.1,1.3,5.3,3.7,6.9c-0.8,1.2-2.2,2.2-3.3,3.1c-3,2.7-11.2,10.8-13.2,12.4c-1.4,1.1-2.1,2-3.3,3.1
		c-3.5,3.3-5.6,4-5.6,8.2c0,2.8,3,5,4.5,6.6c3,3.1,3.7,4.7,7.8,4.7c2.9,0,5.7-3.6,7.3-5.2c2.5-2.5,18-18.3,19.2-19.1
		c1.8,1.2,1.8,2.7,5.9,2.7c3,0,8.7-4.1,5.4-10.3l5.2-2.6c5.2-2.6,12.9-4.6,19-5.4c2.5-0.3,4.8-0.3,7.2-0.7c8.2-1.3,15.8-4.9,22.2-10
		l4.4-3.7c5.6-5.6,10.3-11.8,13-19.5c2.8-7.9,3.8-15.9,1.8-24.2c-1.1-4.4-2.8-7.8-5.3-11.4c-1.3-2-1.5-1.9-2.8-3.3
		c-6.3-6.6-15-11.1-24.5-11.1c-9.3,0-14.1,1.3-21.4,4.9c-5.5,2.7-9.4,5.9-13.6,10l-5.4,6.4C91,74,86.3,84.4,86.3,93.5 M121.7,127.7
		c-11.3,0-21.4-5.2-27.8-14.3c-7-9.9-6.7-23.3-2.5-33.7c5-12.3,15.4-23.6,27.8-28.5c33.3-13.1,59.6,17.5,44.1,48.3
		C155.9,114.4,139.8,127.7,121.7,127.7z M83.9,125.7l-3.1-3c0.3-0.7,0.6-1,1-1.8c0.4-0.8,0.7-1.4,1.1-2.1c0.7-1.2,1.4-2.9,1.9-4.2
		l3.1-9.2c1.9,8.4,4.4,2.3-0.3,13.7C86.6,121.2,85.1,123.8,83.9,125.7z M90,132.1l-4.6-4.7c2.6-5.1,2.9-4.4,5.7-11.4
		c0.3-0.7,0.4-1.2,0.7-1.8c0.8,0.6,1.7,2.3,2.5,3.1l5.9,5.4c0.8,0.6,2.7,2,3.7,2.3c-0.4,0.6-2.2,1.1-3.5,1.6
		C96.3,128.2,93.5,129.7,90,132.1z M69.6,125.7c0-1.5,2.1-3.8,3.3-4.4c2.5-1.3,3.6,0,5,1.5l15.3,15.3c2.2,2.2,3.1,4.6-0.1,7.2
		c-3.7,3-6.3-0.8-8.8-3.2L74,131.7C72.8,130.5,69.6,127.7,69.6,125.7z M94.7,136.5c-0.6-0.4-1-0.9-1.5-1.4c-0.6-0.6-1.2-0.9-1.4-1.8
		l3.4-2c1.1-0.6,2.2-1.3,3.6-1.9c8.9-3.7,6.7-3.1,11.4-1.5c1.1,0.4,2.4,0.8,3.7,1c-0.3,0.2,0.2,0-0.5,0.2l-4.7,1.2
		c-1.7,0.5-3.4,1.1-5,1.7c-1.6,0.7-3.1,1.3-4.6,2L94.7,136.5z M57.8,168c-1.5,0-2.2-0.9-3-1.7c-5.8-5.9-10.2-7.3-3.1-13.3
		c3.4-2.9,8-7.6,11.4-10.5l6.3-6c0.8-0.6,1-0.8,1.7-1.5c0.6-0.6,1-1.1,1.7-1.5l10.4,10.3l-23.1,23.3C59.6,167.5,58.5,168,57.8,168z"
		/>
	<path class="st0" d="M126.7,149.3c0,6.5,1.7,10.9,5.7,14.9c7.7,7.7,20.3,7.6,27.9,0c7.6-7.6,7.7-20.2,0-27.9
		c-7.7-7.7-20.3-7.7-27.9,0C129.7,139.1,126.7,144,126.7,149.3 M128.6,150.3c0-2.4,0.8-5.5,1.6-7.2c6.7-13.9,25.4-13.9,32.2,0
		c4.1,8.5,0.3,18.9-8.9,23.3C142.3,171.8,128.6,162.9,128.6,150.3z"/>
	<path class="st0" d="M134.5,159.1c0,2.6,3.7-0.9,5.5-1.6c10.2-4.1,15.9,2.6,17.1,2.6c1.7,0,1.4-2.4-3.3-4.3
		C143.2,151.4,134.5,157.6,134.5,159.1"/>
	<path class="st0" d="M134.5,141.4c0,1.1,3.5,3,4.5,3.4c4.8,2,9.7,2,14.5,0.1c5.5-2.2,5-4.5,3.9-4.5c-1.1,0-1.6,0.8-2.4,1.3
		c-3.7,2.3-7.3,3-11.7,2.3c-2-0.3-3.6-1.1-5.3-2.1C138,141.9,134.5,139,134.5,141.4"/>
</g>
</svg>
