<?xml version="1.0" encoding="utf-8"?>
<!-- Generator: Adobe Illustrator 25.2.0, SVG Export Plug-In . SVG Version: 6.00 Build 0)  -->
<svg version="1.1" id="Layer_1" xmlns="http://www.w3.org/2000/svg" xmlns:xlink="http://www.w3.org/1999/xlink" x="0px" y="0px"
	 viewBox="0 0 216 216" style="enable-background:new 0 0 216 216;" xml:space="preserve">
<style type="text/css">
	.st0{fill-rule:evenodd;clip-rule:evenodd;fill:#FFFFFF;}
</style>
<g>
	<path class="st0" d="M49.2,44.4v127.3c0,1,0.5,2,1.4,2h114.6c0.7,0,1.4-0.8,1.4-1.4V44.4c0-1-0.5-2-1.4-2H50.7
		C49.8,42.4,49.2,43.4,49.2,44.4 M55.6,45.5c3.5,0,7.1,0,10.6,0c2.3,0,3.4-0.4,4.5,0.9c0.4,0.6,0.7,0.9,1.1,1.5
		c0.4,0.5,0.9,1.1,1.2,1.6c-3.5,0-7.1,0-10.6,0c-2.5,0-2.5-0.4-3.9-1.6C57.8,47.4,55.9,46.1,55.6,45.5z M73.9,45.5h14.6
		c0.6,1.3,1.1,2.8,1.7,4H76.8C75.9,47.9,74.7,47.1,73.9,45.5z M140.1,49.2h-13.2c0.3-1.3,1-2.6,1.1-3.7h14.6
		C141.9,46.7,140.3,48.5,140.1,49.2z M143.8,49.2c0.8-1.5,1.8-2.2,2.6-3.7h14c-0.4,0.6-1.9,1.7-2.7,2.2c-1.6,1.2-1.1,1.6-3.6,1.5
		C150.7,49.2,147.3,49.2,143.8,49.2z M122.9,49.5H110v-4h14.9c-0.2,0.9-0.4,1.3-0.7,2.1C123.8,48.6,123.9,49.5,122.9,49.5z M92,45.5
		h14.9v4H93.4C93,48.1,92.2,47.2,92,45.5z M134.4,56.7H124c0.3-1.3,1.3-3,1.4-4.3h12c-0.5,0.7-1,1.4-1.6,2.1
		C135.2,55.5,135,55.6,134.4,56.7z M138.1,56.7c1-1.5,2.1-2.8,3.2-4.3h10.3c-0.5,0.8-2.5,2.2-3.6,3C145,57.8,144.2,56.7,138.1,56.7z
		 M64.7,52.7c3.1,0,6.1,0,9.2,0c2.1,0,2,0.3,3,1.6c0.7,0.9,1.6,1.8,2.2,2.7c-1.8,0-7.8,0.3-9-0.1C69.4,56.6,65.1,53.2,64.7,52.7z
		 M79.6,52.7h11.8c0.4,0.8,1.5,3.3,1.7,4.3H82.8C81.9,55.3,80.5,54.4,79.6,52.7z M120.9,56.7H110v-4.3h12.3
		C122,54,121.3,55.1,120.9,56.7z M94.8,52.7l11.5-0.3c1.3,0,0.9,1.5,0.9,4.6C93.3,57,97.1,57.9,94.8,52.7z M58.4,62.4
		c-1.5-0.8-4.8-3.4-6-3.7V47l6.3,4.9C58.7,55.7,58.4,58.5,58.4,62.4z M157.9,62.1V51.2c1.7-0.4,4.1-3.6,5.7-4v11.5
		C161.9,59.2,159.6,61.7,157.9,62.1z M85.4,59.8h9.2c0.1,1.8,1.6,3.4,1.7,5.2c-1.3,0-2.7,0-4,0c-3.4,0-2.6,0.4-5.2-2.9
		C86.4,61.3,86,60.8,85.4,59.8z M128.1,65h-7.2c0.8-1.6,1.2-3.6,2-5.2h8.9L128.1,65z M131.8,65l3.7-5.2h6.6l-6.4,5.1
		C135.1,65.1,132.6,65,131.8,65z M74.2,60.1c7.8,0,6.1-1.6,9.1,2.1c0.8,1,1.5,1.7,2.1,2.8c-5.2,0-4.5,0.6-6.8-1.3
		C77.6,62.9,74.8,60.9,74.2,60.1z M97.7,59.8h9.5V65h-6.9c-0.9,0-0.8-0.5-1.5-2.3L97.7,59.8z M110,59.8h9.5
		c-0.1,1.5-1.3,3.5-1.7,5.2h-7.5v-3.2C110.3,60.9,110.1,60.7,110,59.8z M148.4,68.4v-9.7c1.2-0.3,4.8-3.8,6.3-4.6v10.3
		C152.7,65.8,150.6,67.3,148.4,68.4z M61.6,54.4c1.2,0.3,4.8,3.8,6.3,4.6v9.7c-1-0.7-2-1.4-3.1-2.1c-1.1-0.7-2.1-1.4-3.2-1.9V54.4z
		 M71,61.9c1.6,0.4,5.6,4.8,7.2,5.2v8.3c-1.5-0.4-5.6-3.6-7.4-4.6C70.7,67.7,71,65.2,71,61.9z M137.8,75.3V67
		c0.7-0.2,1.3-0.7,1.9-1.2l3.5-2.8c0.9-0.7,0.9-0.9,2-1.4v9.2C143.4,71.7,139.4,75,137.8,75.3z M52.4,62.1c2,1.3,4,2.7,6,4v11.5
		c-1-0.1-5-2.1-6-2.6V62.1z M157.9,77.6V65.9c1.9-1,3.9-2.5,5.7-3.7V75L157.9,77.6z M67.6,82.2c-1.1-0.3-2.3-1-3.3-1.5
		c-3.9-1.9-3,0.7-3-9.9c0-1.4,0.3-1.3,0.3-2.6c1.1,0.7,5.4,3.8,6.3,4C67.9,75.9,67.6,78.5,67.6,82.2z M148.4,82.2v-10
		c2-1.4,4.1-2.9,6.3-4v11.2L148.4,82.2z M70.7,74.5c1,0.3,2.8,1.7,3.7,2.3c1.2,0.8,2.4,1.6,3.7,2.3v8.3l-7.4-3.4V74.5z M137.9,87.5
		l0-8.4c1.3-0.7,2.5-1.5,3.7-2.3c0.9-0.6,2.7-2,3.7-2.3v9.5L137.9,87.5z M52.4,78.5c1.1,0.2,1.8,0.8,2.8,1.2c1.1,0.5,1.9,0.9,3,1.3
		v12.6c-1.6-0.4-4.2-1.4-5.7-1.4V78.5z M157.9,93.7V81.1c1.9-0.4,3.8-2.1,5.7-2.6v13.8C162.1,92.3,159.4,93.3,157.9,93.7z
		 M61.3,82.8l6.3,2.9v10.6c-1.1-0.1-2.3-0.5-3.2-0.8c-1.2-0.3-2.2-0.6-3.4-0.9C61,90.4,61.3,87.1,61.3,82.8z M148.4,96.2V85.6
		l6.3-2.9v11.7C154,94.9,149.4,96.2,148.4,96.2z M70.5,96.5l0.3-9.2c1.4,0.3,6.1,2.7,7.4,3.4v8.6c-0.8-0.4-2.9-0.9-4-1.2
		C72,97.6,70.5,97.6,70.5,96.5z M137.8,99.4v-8.6c1.2-0.6,2.3-1.2,3.6-1.8c0.9-0.5,2.9-1.4,3.8-1.6v10
		C144.2,97.5,138.6,99,137.8,99.4z M57.8,110.3c-2.1-0.5-2.9-0.3-5.4-0.3V95.4c1.5,0,4.2,1.1,5.7,1.4l-0.3,6.6
		C57.8,105.7,57.8,108,57.8,110.3z M67.3,101.4v9.2h-3.7c-1.4,0-1.3-0.3-2.6-0.3V97.7l6.6,1.7C67.5,100.3,67.3,100.4,67.3,101.4z
		 M157.9,110.3V96.8c1.7-0.4,4-1.3,5.7-1.4V110h-3.7C158.9,110,158.8,110.2,157.9,110.3z M148.4,110.9V99.4c1-0.1,5.5-1.3,6.3-1.7
		v12.6c-1.2,0.1-1.6,0.3-3.1,0.3C150.2,110.6,149.3,110.4,148.4,110.9z M70.5,100.3c1.3,0.6,6.4,1.7,7.7,2.3v8.9
		c-2.2-0.2-5.5-0.6-7.7-0.6V100.3z M137.8,111.4v-8.9c0.6-0.3,6.6-2,7.5-2v10.3L137.8,111.4z M57.6,127.5c-1.5,0.3-3.4,0.9-5.2,0.9
		v-15.5l5.4,0.3C57.8,118.1,57.6,122.3,57.6,127.5z M60.7,126.9v-13.5c2.6,0,4,0.3,6.6,0.3c0,2.7,0.1,7.6-0.2,10.1
		C66.8,126.4,68.1,125.2,60.7,126.9z M70.2,124.9V114l8,0.3l0,9.1C75.7,123.5,72.7,124.9,70.2,124.9z M137.8,114.3l7.4-0.3l0,11
		c-1.2-0.3-2.3-0.5-3.6-0.7c-1.3-0.2-2.7-0.7-3.9-0.7V114.3z M148.4,113.7c2.5,0,3.9-0.3,6.3-0.3v13.2c-2,0-4.3-1-6.3-1.1V113.7z
		 M157.9,113.2h2c1.7,0,2.1-0.3,3.7-0.3v15.5c-2.1,0-3.6-0.9-5.7-0.9V113.2z M69.9,139.5c0-2.2,0.3-3.2,0.3-5.4c0-2,0-4,0-6
		c2.5-0.2,5.4-1.4,8-1.4c0,10.8,1.2,8.2-3.9,10.7C72.7,138.1,71.3,138.8,69.9,139.5z M137.8,134.9v-8.3c2.8,0,4.9,1.1,7.5,1.1V139
		c-1.3-0.3-4.2-2-5.8-2.8C138.5,135.8,137.8,135.9,137.8,134.9z M57.3,145.8l-4.9,2.3l0-16.6c1.8,0,3.4-0.8,5.2-0.9v2.3
		C57.6,137.6,57.3,141.2,57.3,145.8z M148.4,140.1v-11.5c2,0,4.3,1,6.3,1.1v14c-1.1-0.6-2.1-1-3.3-1.6
		C150.6,141.8,148.4,141.1,148.4,140.1z M60.5,144.2l-0.1-11c0-1.7,0.3-2,0.3-3.4c0.9,0,5.8-0.9,6.3-1.1V141L60.5,144.2z
		 M157.9,130.4c0.6,0.3,4.8,1.1,5.7,1.1v16.6l-5.7-2.9V130.4z M81.1,67.9h53.9v78.5H81.1V67.9z M66.7,157c-1.9,1-4.5,4-6.6,5.2
		c0-2.5,0-5,0-7.5c0-2.6,0.3-4.4,0.3-7.2l6.5-3.3L66.7,157z M69.9,154.1V143l8.3-4.1c0.1,2,0,3.9,0.1,5.8c0,3.3,0,2.5-1.9,4.1
		L69.9,154.1z M137.8,139l7.4,3.5l0,10.8c-2.4-1.6-4-3.4-6-4.9c-1.8-1.3-1.5-1.1-1.4-4C137.8,142.6,137.8,140.8,137.8,139z
		 M79.6,155.9h-6.9c0.5-0.7,3.8-3.4,4.8-4.1c3.1-2.4,1.4-2.2,6.7-2.2c-0.7,1-1.6,2.2-2.3,3.2C81.1,153.8,80.4,154.8,79.6,155.9z
		 M133.2,149.6c4,0,3,0.4,5.3,2.2l4.2,3.6h-5.7C135.9,153.3,134.3,151.7,133.2,149.6z M93.4,155.9h-10c0.6-0.8,1.3-1.8,1.9-2.7
		c3.5-4.6,0.9-3.6,10.4-3.6C95.6,150.5,93.8,155.1,93.4,155.9z M121.8,149.6h7.7c0.8,1.5,2.7,3.7,3.7,5.7c-1.6,0-3.2,0-4.9,0
		c-2,0-2.9,0.3-4.6,0.3C123.2,154.5,121.9,151,121.8,149.6z M99.7,149.6h7.5v6H96.8c0.4-0.9,0.8-2.2,1.1-3.2
		C98.3,151.5,98.6,149.6,99.7,149.6z M110.3,149.6h7.5c1.1,0,1.3,1.7,1.6,2.7c0.4,1.1,0.9,2.2,1,3.3h-10V149.6z M148.4,144.1
		c2.1,0.5,4.3,2.4,6.3,2.9v14.3l-4.7-3.9c-0.7-0.5-1.3-0.8-1.5-1.6C148.2,154.7,148.4,146,148.4,144.1z M124.7,158.4
		c3.1,0,6.3-0.1,9.4,0c2.1,0,2.7,1.6,4.9,4.9c-2.1,0-4.2,0-6.3,0c-2.5,0-3.9,0.3-6.3,0.3L124.7,158.4z M139.2,158.4
		c1.4,0,3.2,0.1,4.6,0c2.7-0.2,1.3-1.3,5.9,2.7c0.6,0.5,2.1,1.7,2.4,2.2h-9.7C142.2,162.5,139.9,159.4,139.2,158.4z M73.9,163.9
		c-3.9,0-7.1,0.3-11.2,0.3c7.4-6.5,4.9-5.2,14.6-5.2C76.3,160.6,74.8,162.2,73.9,163.9z M90.5,163.9H77.6l2.9-4.2
		c0.7-0.7,0.7-0.6,1.9-0.7c3.3,0,6.2-0.3,9.8-0.3C92.2,159.6,90.9,163.2,90.5,163.9z M52.4,168.8v-17.2l4.8-2.4
		c0.1,4.2,0.1,8.2-0.2,11.9c-0.2,2.7,0.7,3.4-1.1,4.9c-0.7,0.6-1,0.8-1.7,1.4C53.7,167.8,52.9,168.4,52.4,168.8z M93.7,163.9
		c3.4-6.5-2.3-5.2,13.5-5.2v4.9L93.7,163.9z M110,158.7c4.1,0,7.3-0.3,11.5-0.3l1.7,5.2H110V158.7z M157.9,148.7l5.7,2.9l0,17.2
		l-5.2-4.2c-0.7-0.8-0.5-1.6-0.5-3C157.9,157.3,157.9,153,157.9,148.7z M145,166.5l10.3-0.3c0.7,0,5.2,4,5.4,4.3h-13.2
		C145.9,167.9,146.4,169.1,145,166.5z M69,170.5H55.3c3-2.6,3.1-3.4,6.3-3.5c3.2,0,6.5,0,9.8,0C70.7,168.2,69.8,169.4,69,170.5z
		 M88.2,170.5H72.7c0.7-1.1,1.7-2.3,2.3-3.4h14.3C89.1,167.6,88.3,169.8,88.2,170.5z M127.5,166.5h13.8l2.6,4h-15.2
		C128.5,169.1,127.7,168.2,127.5,166.5z M92.5,166.8h14.3v3.7H91.4C91.7,169,92.4,168.2,92.5,166.8z M110,166.8h4.3
		c3.7,0,6.3-0.3,10-0.3c0.1,1.4,0.8,2.7,1.1,4H110V166.8z"/>
	<path class="st0" d="M91.7,93.7c-2.3,0.2-4,1.9-4,4.3v40.1c0,5.6,6.4,4.3,12.3,4.3c3.1,0,4-3.2,4-6V99.7c0-3.6-1-5.3-4-6
		c0-2,0.2-15.8-0.1-17.1c-0.9-4.3-7.5-3.8-8.1-0.3c-0.2,1.2-0.1,4.3-0.1,5.7C91.7,85.8,91.7,89.8,91.7,93.7 M94.5,77.3
		c0-1.2,2.3-1.2,2.3,0v1.1h-2.3V77.3z M94.5,81.6h2.3v12h-2.3V81.6z M90.8,135.2v-34.1c0-4.7-0.8-4.3,3.4-4.3v32.1
		c0,0.8-2.2,4.6-3,5.6L90.8,135.2z M97.4,129.5V96.8c4.3,0,3.4-0.9,3.4,8.6v30.1c-0.4-0.4-0.1-0.1-0.5-0.7l-1.3-2.2
		C98.8,132.2,97.4,129.9,97.4,129.5z M96,132.9c0.3,1.2,1.1,2.2,1.7,3.2c0.5,0.8,1.6,2.5,1.8,3.4H92C92.5,138.5,95.3,133.4,96,132.9
		z"/>
	<path class="st0" d="M106.6,131.5c0,5.7,4.8,10.9,10.3,10.9c3.8,0,5.7-0.7,8.4-3.4c8.4-8.3-1.6-22.4-12.2-17.4
		c-2.1,1-3,1.8-4.4,3.6C107.5,126.7,106.6,129.4,106.6,131.5 M115.5,124c5.8-1.4,9.7,3.1,9.7,6.6v2.9c-3.3,0-5.6,0.3-8.1-2.8
		C115.6,128.8,115.5,127.4,115.5,124z M109.7,132.4c0-2.5,0.4-5.1,2.6-6.6c0.1,6.1,4.8,10.9,11.2,10.9c-0.4,0.6-1.6,1.5-2.4,1.9
		C115.5,141.5,109.7,136.7,109.7,132.4z"/>
</g>
</svg>
