<?xml version="1.0" encoding="utf-8"?>
<!-- Generator: Adobe Illustrator 25.2.0, SVG Export Plug-In . SVG Version: 6.00 Build 0)  -->
<svg version="1.1" id="Layer_1" xmlns="http://www.w3.org/2000/svg" xmlns:xlink="http://www.w3.org/1999/xlink" x="0px" y="0px"
	 viewBox="0 0 216 216" style="enable-background:new 0 0 216 216;" xml:space="preserve">
<style type="text/css">
	.st0{fill-rule:evenodd;clip-rule:evenodd;fill:#FFFFFF;}
</style>
<g>
	<path class="st0" d="M99.8,69.6c0,1.7,1.2,2.3,2.8,2.3c0.3,0,11.2-8.1,11.2-15.5c1.1,0.8,2.1,3.6,2.1,5.6c0,4.9-3.3,7.2-5.8,9.7
		c-1.9,1.9-22.2,22.4-23.2,23.1c-3.5-2.3-6.8-7.9-6.8-12.9c0-3.7,0.5-6.3,2.5-9.2c0.6-1,1-1.2,1.6-2.1c1.1-1.4,14.3-14.7,16.1-16
		c0.7-0.5,1.7-1,2.5-1.2c2-0.7,3.9-0.8,6.1-0.3c0,2,0.9,3.1-1,6.7c-0.8,1.5-1.6,2.1-2.7,3.2c-1,1-1.9,1.9-2.9,2.9
		C101.5,66.9,99.8,68.1,99.8,69.6 M112.4,76.4c0.8-1.3,3.3-3.4,4.5-4.6c1.1-1.1,3.2-4.2,3.2-6.2c1.2,0.3,10.8,10.5,11.9,11.5
		c2,2,3.6,4.5,2.8,8.3c-0.4,2.1-3,6-5.8,6c-2.5,0-3.2-1.4-5.1-3.3c-1.3-1.3-2.5-2.5-3.9-3.9L112.4,76.4z M89.3,103.5
		c0-5.4-0.8-3.3,4.7-8.8c2-2,13.9-14.1,14.9-14.8c3,2,13.1,14.1,16.5,15.6c1.9,0.8,1.3-0.2,1.3,7.6c0,6.6-3.6,7.6-7.3,9.8
		c-1.8,1.1-9.3,5.7-11.2,5.8c-1.2,0.1-2.3-0.5-3.2-1c-1.9-1-12.3-6.9-13.4-7.9C90.3,108.5,89.3,106.2,89.3,103.5z M48,166v-0.7
		c0.1-1.1,1-2.1,1.9-2.1h15v-9.4c0-7.5,4.8-15.1,10.8-18.8c3-1.8,5.5-2.7,8.8-3.8c2.2-0.8,4.1-1.5,6.2-2.2c8-2.9,6.3-1.3,6.3-10.6
		c-0.9-0.2-3.9-2-4.9-2.6c-0.9-0.5-1.5-0.8-2.3-1.4c-2-1.3-3.9-3.9-4.6-6.4c-1.6-5.7,0.7-7.5-1.4-9.6c-1.7-1.7-3.9-3.8-5.1-5.9
		c-1.9-3.1-3.3-6.6-3.3-11.4c0-4.9,1.9-9.2,4-12.1c2.5-3.4,12.1-12.5,15.7-16.2c1.1-1.1,3.1-2.8,4.6-3.4c6.9-3,14.2-1.8,18.6,4.3
		c2.5,3.5,1.2,3.7,3.1,5.6c3.2,3.1,15.3,14.9,16.8,17.4c4.9,8.1-0.9,17.7-6.6,19c0,8.9,1.2,15.1-6.8,19.7l-5.6,3.1v8
		c2.7,1.8,17.1,5.8,21.3,8.7c3.1,2.1,5.5,4.3,7.4,7.6c4.2,7,3.4,12.5,3.4,20.5h15c2.1,0,2.9,4.7-0.5,4.7H50.4
		c-0.6,0-1.2-0.3-1.5-0.6C48.4,167,48.1,166.5,48,166z M79.4,152v11.2h-9.8c0-11.9-0.5-20.9,13.7-26.4l12.3-4.5
		c6.2-2.3,6.3-3.6,6.3-10.8c7.5,4,9.6,0.7,12.2,0c0,7.1-0.2,8.4,6.3,10.8c4.2,1.6,14.9,5.1,18.2,7.4c2,1.4,4,3.5,5.1,5.6
		c0.3,0.6,0.5,0.7,0.8,1.3c2.4,4.7,1.9,11.1,1.9,16.6h-9.8v-11.5c0-2.1-1.6-4.6-3.1-5.8c-1-0.8-1.4-1.1-2.9-1.6
		c-2.5-0.8-9.8-0.5-12.8-0.5c-3.7,0-4.8,5,0.7,4.9c2.5,0,9.8-0.5,11.5,0.6c1.3,0.8,1.8,2.2,1.8,4.3v9.6H84.1v-10.1
		c0-5.2,4.3-4.4,7.5-4.4c4.6,0,9.6,0.9,9.6-2.6c0-1.2-1.3-2.3-3-2.3c-2.9,0-10.2-0.3-12.6,0.5c-1.4,0.4-2,0.8-3,1.6
		C81,147.2,79.4,149.4,79.4,152z"/>
	<path class="st0" d="M141.3,109.4c0,3.3,0.4,4.1,2.2,6.7c1.5,2.2,2.8,2.5,2.8,5.7c0,2.3-2.6,4-0.9,5.8c3.4,3.5,8.2-5.3,4.4-11.1
		c-1.9-2.9-5.1-5.2-2.9-9c0.8-1.4,2.7-2.7,2.7-4.4c0-1.8-2.5-3.7-4.6-1C143.3,104.1,141.3,106.4,141.3,109.4"/>
	<path class="st0" d="M158.1,100.7c0,6,5.3,7.8,5.1,11.7c-0.1,2.1-1.6,2.9-1.6,4.3c0,2.3,3.1,3.9,5.1,0.2c0.7-1.2,1.1-2.6,1.2-3.9
		v-1.4c-0.1-2-0.9-4-2.2-5.6c-3.4-4.1-3.9-5.8-0.3-10.1c2.2-2.6-0.1-4.7-1.8-4.4C161.8,91.9,158.1,96.9,158.1,100.7"/>
	<path class="st0" d="M48,109.4c0,7.9,4.9,7,4.9,12.4c0,2.4-1.4,2-1.4,4.4c0,2,3.2,3.7,5.2-0.4c1.5-3.1,1.5-6.7-0.4-9.5l-2.9-3.9
		c-2.5-4.4,2.8-7,2.8-9.4c0-1.6-2.4-3.8-4.6-1c-0.6,0.8-1.1,1.3-1.7,2.1C49.1,105.3,48,107.5,48,109.4"/>
	<path class="st0" d="M64.9,101c0,3.2,1.9,5.4,3.5,7.5c0.9,1.1,1.7,2.1,1.6,3.9c-0.1,2-1.5,3.2-1.5,4c0,4.1,6.3,4.1,6.3-5.1
		c0-2.8-2.3-5.4-3.8-7.3c-3.7-4.7,2.1-7.9,2.1-10.1c0-1.7-1.4-2.6-2.5-2.5c-1.3,0.1-2.2,1.4-2.8,2.3C66.3,95.8,64.9,97.6,64.9,101"
		/>
	<path class="st0" d="M107.8,110.8c6.5,0,6.2-5.6,2.8-5.6c-1.1,0-1.4,0.7-2.4,0.8c-0.9,0.1-3.4-2-4.8,0.2c-0.4,0.7-0.6,1.7-0.2,2.4
		C103.9,109.8,105.9,110.8,107.8,110.8"/>
	<path class="st0" d="M93.9,75.4c0,2.4,3.6,3.3,4.6,0.9c1.2-2.8-2.9-4.5-4.2-2.3C94.3,74.2,93.9,75.2,93.9,75.4"/>
	<path class="st0" d="M108.5,148.8c0.4,0,1.2-0.5,1.5-0.7c2.4-2.1-0.7-5.6-3.1-3.6C105,146.1,106.3,148.8,108.5,148.8"/>
</g>
</svg>
