<?xml version="1.0" encoding="utf-8"?>
<!-- Generator: Adobe Illustrator 25.2.0, SVG Export Plug-In . SVG Version: 6.00 Build 0)  -->
<svg version="1.1" id="Layer_1" xmlns="http://www.w3.org/2000/svg" xmlns:xlink="http://www.w3.org/1999/xlink" x="0px" y="0px"
	 viewBox="0 0 216 216" style="enable-background:new 0 0 216 216;" xml:space="preserve">
<style type="text/css">
	.st0{fill-rule:evenodd;clip-rule:evenodd;fill:#FFFFFF;}
</style>
<g>
	<path class="st0" d="M61.2,93.9H42c-0.5,0.7-1,0.9-1,1.7c0,18.5-1.8,16.1,7.7,16.1l-11,15.9c-4.3,5.7,3.5,4.3,11,4.3v42.3
		c0,3.5,3.5,2.4,10.8,2.4c1.1,0,1.7-1.3,1.7-2.4V132h6.3v14c0,2.7,6.1,1.7,10.8,1.7c0.8,0,1.4-0.6,1.4-1.4V132h16.1
		c-0.2,2.5-1.1,1.7-1.1,7.3c0,4.1,2.4,4.8-1.1,7.6c-3,2.4-9.4,6.4-4.6,11.7c1.1,1.2,2.3,1.6,4.3,1.6c5.2,0,7.2-8,9.8-8
		c3.1,0,8,2.4,14.7-1.4c4.5-2.5,7.2-5.5,9.2-10.4c0.7-1.6,1.9-6.6,0.9-8.5h8.4v14.3c0,0.8,0.6,1.4,1.4,1.4c4.7,0,10.8,1,10.8-1.7
		v-14h6.3v42.3c0,3.5,3.5,2.4,10.8,2.4c1.1,0,1.7-1.3,1.7-2.4V132c7.5,0,15.3,1.4,11-4.3c-0.6-0.8-1-1.5-1.5-2.3l-9.4-13.6
		c9.5,0,7.7,2.4,7.7-16.1c0-0.8-0.6-1-1-1.7h-19.2c-0.4-1.4-1.3-2.1-2-3.2c-2.8-4.1-4.6-8.3-8.1-8.3H71.3c-3.4,0-5.2,4-8,8.1
		C62.6,91.7,61.5,92.6,61.2,93.9 M71.3,86.3h73.4c1.1,0,3.7,4.6,4.5,5.7c0.6,0.8,1,1.3,1.5,2H65.7c0.3-1.1,1.8-3.1,2.5-4.1
		C69.5,88.2,70.3,86.3,71.3,86.3z M44.4,97.8h127.2v10.1H44.4V97.8z M98.2,128.2H42c0.4-1.3,2.4-3.7,3.3-5.1l7-10.1
		c1.3-1.8,3.3-1.2,7.6-1.2h103.4c0.6,2.1,10.3,14.5,10.8,16.4h-47.2c-0.6-2.4-3.2-5.2-5.2-6.4c-5.5-3.4-12.6-2.7-17.7,0.6
		C101.7,124,99.5,125.8,98.2,128.2z M113.6,123.3c10,0,14.5,10.8,7.5,20.1c-1.5,2-4.6,4.5-7.1,5.1L99.3,134c0.6-2.9,2.9-5.6,5.1-7.3
		C106.6,124.9,109.7,123.3,113.6,123.3z M98.6,138.7l10.9,10.7c-6-0.2-6.6-3.7-12.6,3.7c-0.5,0.7-2,2.7-2.5,3.1
		c-2.1,1.6-4.3-0.9-2.6-3c2.8-3.6,9.1-3.7,7-11.6C98.5,140.4,98.6,140,98.6,138.7z M71.3,132h4.9v12.2h-4.9V132z M139.8,132h4.9
		v12.2h-4.9V132z M52.5,132h4.9v41.2h-4.9V132z M158.7,132h4.9v41.2h-4.9V132z"/>
	<path class="st0" d="M87.4,53.1c0,2.5,0.5,3.6,0.7,5.6c-5.3,3.5-2.8,12.9,4.9,12.9c2.3,0,3.3-1.4,4.5-1.3c1.7,0.1,4.9,3.2,12.1,1.8
		c3.9-0.7,2.8-1.6,6.4,3c0.8,1,2.6,3.3,3.7,4c3.9,2.1,8.6-0.9,8.6-5.1c0-3.3-3.5-5.5-5.5-7c-4.7-3.5-1.8-3.3-1.8-9.4
		c0-9.3-8.3-18.5-19.6-18.5C93.7,39.1,87.4,45.5,87.4,53.1 M101.7,67.7c-4.1,0,0.2-2.1-2.2-6.9c-2.8-5.7-8.3-3.1-8.3-5.3
		c0-3.9-0.1-6.8,3-9.9c4.4-4.4,11.7-3.4,16.7,0.3c1.3,1,2.1,1.8,3.1,3.1c1.2,1.5,1.4,2.4,2.3,4C115.5,54.3,102,67.7,101.7,67.7z
		 M116.4,63.2c0,6.9,8,7.2,8,11.2c0,0.9-0.8,1.7-2.1,1.7c-2.7,0-4.4-8.3-10.4-8.2c-2.3,0-3.1,0.8-5.6,0.8L117,57.9
		c0.1,1.1,0.2,1.8-0.1,2.7C116.7,61.9,116.4,61.7,116.4,63.2z M89.1,64.6c0-6.1,7.3-4.9,7.3-0.7C96.5,69.5,89.1,68.5,89.1,64.6z"/>
</g>
</svg>
