<?xml version="1.0" encoding="utf-8"?>
<!-- Generator: Adobe Illustrator 25.2.0, SVG Export Plug-In . SVG Version: 6.00 Build 0)  -->
<svg version="1.1" id="Layer_1" xmlns="http://www.w3.org/2000/svg" xmlns:xlink="http://www.w3.org/1999/xlink" x="0px" y="0px"
	 viewBox="0 0 216 216" style="enable-background:new 0 0 216 216;" xml:space="preserve">
<style type="text/css">
	.st0{fill-rule:evenodd;clip-rule:evenodd;fill:#FFFFFF;}
</style>
<g>
	<path class="st0" d="M52,115.6H33.4v6.4H52v6.1H33.4v6.4H52v12.2H39.2c-3,0-5.8,2.8-5.8,5.8v10.2c0,1.4,1.2,2.6,2.6,2.6h9.6v9.3
		H33.4v6.4h87.1v-6.4h-6.1v-9.3h9.6c1.4,0,2.6-1.2,2.6-2.6v-10.2c0-3-2.8-5.8-5.8-5.8H108v-12.2h18.7v-6.4H108V122h18.7v-6.4H108
		v-6.1h-6.4v6.1H58.5v-6.1H52V115.6z M58.5,122h43.1v6.1H58.5V122z M58.5,134.5h43.1v12.2H58.5V134.5z M39.8,153.2h80.4v5.8H39.8
		V153.2z M52,165.4h6.1v9.3H52V165.4z M64.6,165.4h30.9v9.3H64.6V165.4z M101.9,165.4h6.1v9.3h-6.1V165.4z"/>
	<path class="st0" d="M108,61.7c0,2.6-0.2,3.7,0.3,5.8c-9.4,2.2-18.9,14.1-18.9,24.8c0,3.6,0,14,4.7,14c2.4,0,3.5-1.8,3.5-2.9
		c0-0.9-0.8-2.6-1-3.6c-2.2-7.7,0.3-16.2,5.9-21.5c0.5-0.5,0.9-0.7,1.4-1.2c1.6-1.3,2.9-2.1,5-2.9c2.1-0.8,2.7-0.8,4-1.2
		c4.3-1.4,1.6-5.4,1.6-9.2c0-7,1.6-11.6,6.2-16.3c8.4-8.4,22.4-8.4,30.9,0.1c4.5,4.5,6,9.4,6,16.4c0,3.7-2.1,7.7,1.9,8.9
		c4.2,1.2,6.6,1.7,10.3,5.4c1.7,1.7,3.4,3.8,4.4,6.1c2.7,6.1,2.9,13.1-0.1,19.1c-0.6,1.3-1,2-1.8,3.1c-0.5,0.8-0.6,0.8-1.2,1.4
		l-2.5,2.5c-3.7,3-8.3,5-13.3,5h-16c0-13.7-1.7-9.2,7.2-18.1c1.3-1.3,7-6.5,7.4-7.8l-4.3-4.4l-10.2,10.3l-0.1-20.5h-6.4v29.7
		l-6.9-6.8l-4.5,4.4c1.6,2.4,11.4,10.9,11.4,12v60.3h-6.1v6.4h56v-6.4h-43.4v-23c0-1.5,7.6-7.1,8.2-9l-4.3-4.4l-3.8,3.9l-0.1-20.2
		h16c4.2,0,7.9-1.2,11-2.5c4.3-1.8,8.3-5.3,11.1-9c3.3-4.4,5.1-9.7,5.3-15v-3c-0.3-5.7-2.3-11.3-6-16c-3-3.9-8.2-8-13-9.2
		c0.5-2.2,0.3-3.2,0.3-5.8c0-14.1-12.7-26.8-26.8-26.8c-9.1,0-15.6,2.6-21.1,8.1C112.1,46.9,108,53.9,108,61.7"/>
	<path class="st0" d="M64,68.1c-1.3-0.9-1.8-2.1-4.6-3.5c-2.5-1.3-4.2-1.7-7.3-1.7v6.4c5.4,0,9.2,3.8,9.3,9.3h6.4
		c0-4.9,1.7-8.7,4.6-11.5c2.7-2.6,6.9-4.2,10.9-4.3v-6.4c-5.6,0-12.6,3-16.1,6.9C66.2,64.4,64.3,66.8,64,68.1"/>
</g>
</svg>
