<?xml version="1.0" encoding="utf-8"?>
<!-- Generator: Adobe Illustrator 25.2.0, SVG Export Plug-In . SVG Version: 6.00 Build 0)  -->
<svg version="1.1" id="Layer_1" xmlns="http://www.w3.org/2000/svg" xmlns:xlink="http://www.w3.org/1999/xlink" x="0px" y="0px"
	 viewBox="0 0 216 216" style="enable-background:new 0 0 216 216;" xml:space="preserve">
<style type="text/css">
	.st0{fill-rule:evenodd;clip-rule:evenodd;fill:#FFFFFF;}
</style>
<g>
	<path class="st0" d="M36,94.5c0,1.5,0.4,2.3,1.3,3c1.1,0.9,1.8,0.7,3.6,0.7l26,0c2.8,0,5.9-0.2,7.8,0.8l11.6,9.8
		c1.1,0.9,1.6,1.1,2.4,2.2H47c-2.3,0-11-1.2-11,3.1c0,4.6,4.1,3.7,8.6,3.7h49.9l23.1,2c2.1,0.3,3.4,0.3,4.9,1.2
		c1.6,0.9,2.5,1.8,3.3,3.2c-1.5,0-4-0.2-5.4,0.1c-3.6,0.8-3.6,6.6,1.1,6.6h6.1c0,2.4,0.5,5-1.9,6c-1.3,0.6-3.1,0.4-4.8,0.4
		c-3.4,0-6.7,0-10.1,0c-0.4-4.4-6.2-9.8-11.6-9.8c-3.7,0-6.8,0.6-9.4,3.1c-1.5,1.4-3.8,4.1-4.1,6.7c-13.2,0-26.3,0-39.5,0
		c-4.5,0-10.1-1.1-10.1,3.4c0,1.8,1.5,3,3.2,3.3c1.9,0.3,43.5,0.1,46.5,0.1c0.4,5.1,10.3,14.5,20.6,6.8c2.1-1.5,3.8-4,4.5-6.8
		c12.3,0,23.6,2.5,23.6-12.6c0-7.6-2.7-13.2-9.1-16.7c-3.3-1.8-6.4-1.6-10.7-2.1c-3.8-0.5-7.9-0.8-12-1.2c-3.8-0.4-3.8-0.8-8.1-4.8
		l-14.1-12c-1.6-1.2-1.9-1.6-4-2.4c-1.7-0.6-3.5-1-5.7-1h-30C38.2,91.4,36,92.6,36,94.5 M91.8,140.5c0-8.1,12.9-8.1,12.9,0
		c0,6.4-7.2,8.6-11,4.8C92.5,144.2,91.8,142.7,91.8,140.5z"/>
	<path class="st0" d="M143.9,78.3c0,8.9,7.6,16.1,13.2,16.2v23.9c-7.3,1.7-6.7,10.4-6.7,15.6c-4.3,0-9.8,0.3-9.8,7.4
		c0,5.6-0.8,12.6,8,12.6h27c6.6,0,5.1-6.7,1.5-6.7h-29.7v-6.4h29.4c4.4,0,4.4-6.7,0-6.7h-6.4c0-4.8,0.8-11-3.9-14.2
		c-0.9-0.6-1.5-1.1-2.6-1.4V94.5c5.9-0.5,12.9-7.6,12.9-15c0-5.6-1.2-9-4.8-12.6c-1.2-1.2-3.1-2.6-4.7-3.3
		C156.4,58.5,143.9,66.9,143.9,78.3 M150.6,78.9c0-5.7,4.5-10.1,9.5-10.1c9.4,0,12.8,11.3,7,16.8C160.6,91.6,150.6,86.8,150.6,78.9z
		 M157,128.2c0-5,6.4-4.7,6.4-0.6v6.4H157V128.2z"/>
</g>
</svg>
