<?xml version="1.0" encoding="utf-8"?>
<!-- Generator: Adobe Illustrator 25.2.0, SVG Export Plug-In . SVG Version: 6.00 Build 0)  -->
<svg version="1.1" id="Layer_1" xmlns="http://www.w3.org/2000/svg" xmlns:xlink="http://www.w3.org/1999/xlink" x="0px" y="0px"
	 viewBox="0 0 216 216" style="enable-background:new 0 0 216 216;" xml:space="preserve">
<style type="text/css">
	.st0{fill-rule:evenodd;clip-rule:evenodd;fill:#FFFFFF;}
</style>
<g>
	<path class="st0" d="M52.7,65.4c0,7.4,1.6,8.6,1.6,11.1c0,0.2-4.4,6.7,1.1,11.9c1.6,1.5,3.4,2.2,6.4,2.2c1,4.3,4.1,8.5,7.6,10.3
		c-0.1,1-0.8,4.7-1.7,5.1c-2,1-15.8,0.1-22.7,12c-1.6,2.7-3.3,6.6-3.3,10.8v46.4h73.8v-46.4c0-7.3-4.2-13.7-9.8-17.8
		c-6.3-4.6-13-4-15.9-5c-0.8-0.2-0.5,0.1-0.9-0.8l-1-4.4c3.4-1.8,6.6-6.1,7.6-10.3c1.9,0,2.5,0,3.8-0.5c4.7-1.8,7.2-7.4,4.5-12.4
		c-1-1.9-1.1-0.4,0.2-5.4c2-7.8,0.1-15.3-5.6-20.9c-7.7-7.7-14.7-6.3-25.4-6.3c-3.1,0-5.9,1-8.1,2C58.3,50.2,52.7,57.8,52.7,65.4
		 M70,59.2c0,1.3,0.7,3.7,1.1,4.6c-3.6,0.8-8.4,6-9.2,9.5c-1.8,0-2.3,0-3.5,0.5c-1.3-5.7-2.2-8.7,0.3-14.4c2.7-6,8.8-10,16.3-10
		c7.6,0,14.6-0.8,20.1,4.8c3.2,3.2,5.4,7.7,5.4,12.3c0,1.6-0.9,6-1.4,7.1c-1.2,0-1.7-0.3-3.3-0.3c-0.5-2.3-2.3-3.9-4.4-4.6
		c-1.4-0.4-6.5-0.7-8.3-0.9c-4.7-0.6-8.6-4.4-8.8-9.7H70V59.2z M61.3,77.6v8.7c-2.3-0.5-4.3-1.7-4.3-4.3
		C57.1,79.1,59,78.2,61.3,77.6z M96.1,86.3v-8.7c1.3,0.1,2.2,0.4,2.9,1.1C101.8,81.4,100.4,85.9,96.1,86.3z M65.7,85.2
		c0-6.3-1-10.5,2.8-14.3c1.3-1.3,3-2.8,5.1-3.3c1.6,1.2,3.4,3.9,8.4,4.6c11.5,1.4,9.7-1.6,9.7,13.3c0,5.8-2.9,10.4-7.5,12.6
		C76.3,101.8,65.7,96.8,65.7,85.2z M73.6,103.1c1.4,0,2.3,0.5,6.2,0.5c1.8,0,2.5-0.5,4.1-0.5c0,0.8,0.8,3.8,1.1,4.3l-6.2,6l-6.2-6.1
		C72.7,106.9,73.5,103.9,73.6,103.1z M66.8,110.7c3.6,0,1.3-1.5,6.4,3.6c0.7,0.7,1.4,1.1,1.7,2.1c-2,1.1-3.7,2.2-5.7,3.3
		C68.9,119,66.8,111.6,66.8,110.7z M88.2,119.7c-2-1.1-3.7-2.2-5.7-3.3c0.3-1.3,2.4-2.8,3.3-3.7c3.4-3.4,1.7-2,4.8-2
		C90.6,111.6,88.5,119,88.2,119.7z M54.8,140.6h-8.7c0-9.6-1.2-16.9,5.6-23.7c1.1-1.1,2.4-2.2,3.8-3c3.9-2.1,5.2-1.7,6.6-2.4
		c0.4,0.8,0.8,2.7,1.1,3.6l3.3,11.4c1.6-0.4,11.2-6.9,12.2-6.9c1,0,10.6,6.6,12.2,6.9l4.3-14.9c2,0.9,10.4,1.2,14.7,11.9
		c1.8,4.6,1.3,11.7,1.3,17.1h-8.7v-13h-4.3v43.4H59.2v-43.4h-4.3V140.6z M46.2,144.9h8.7v26h-8.7V144.9z M102.6,144.9h8.7v26h-8.7
		V144.9z"/>
	<path class="st0" d="M122.1,52.9c0,3.4,0.7,6.5,2.9,8.8c1.5,1.6,3.6,3.8,6.3,4c-0.1,1.1-0.7,2.4-1.1,3.5
		c-2.1,5.5-5.2,10.8-2.9,15.2c0.5,0.9,1.1,1.4,1.6,2.2c-1.7-0.1-0.8-0.3-3.5-0.3c-3.6,0-7.6,4-7.6,7.6c0,7.5,0.7,10.5,2.1,17.7
		l3.9,21.3c1.2,6.2,1,10.1,6.8,14.1c0.7,0.5,2.4,1,2.4,1.9v26.3H172v-56.2c0-3.6-2-7.3-3.9-9.1c-2.4-2.2-5.5-4.2-9.1-4.2V94.4
		c0-0.8,1.1-1.3,2.4-2.2c1-0.7,1.8-1.3,2.8-2c5.4-4,9.9-11.4,9.9-18.8v-2.2c0-13-11.9-24.2-24.1-24.1c-5.5,0-3,0.2-6.1-2.1
		c-3.6-2.7-5.3-2.3-9.7-2.3C128,40.7,122.1,46.6,122.1,52.9 M135.1,52.1c0,3.3,2.9,6,7.1,6c3,0,6-3,6-6v-2.7
		c6.7,0,11.9,2.5,15.3,5.9c7.2,7.3,8.6,17.8,3.1,26c-2.2,3.2-4.3,5.1-7.5,7.2c0-4.2-0.3-3.1,2-5.4c2.7-2.7,3.2-6.5,1-9.6
		c-0.8-1.1-1.8-1.5-3-2.2c0-4.1-1.9-6.5-4.5-8c-1.8-1-2.6-1-5.2-1c-4.6,0-14.3,0.3-17.6-1.2c-6.3-2.9-6.4-10.3-2.6-13.8
		c2.9-2.7,9.5-3.4,12.6-0.5c2.8,2.6,2.6,6.9-0.1,6.9c-2.4,0-2.2-3.2-2.2-4.3h-4.3V52.1z M154.7,84.4v21.4H146v-4.3h4.3v-4.3
		c-1.9,0-9.9,0.2-11.1-0.2c-1.1-0.4-0.5-0.2-1.3-1.2c-2.9-3.5-2.8,0.5-2.8-11.1c-2.9-0.7-5-2.4-3.9-5.5l3.8-10.3
		c0.2-0.5,0.2-0.7,0.4-1.2c0.3-0.6,0.2-0.9,1-0.9h13c5.8,0,5.2,4.8,5.2,8.7c1.6,0,2.5-0.2,3.5,0.6C161.4,78.9,154.7,81.4,154.7,84.4
		z M126.2,90.6c1,0,2.2,0.6,2.7,1.1c1.9,1.5,1.2,4.4,2.9,5.3c2.7,1.4,4.7,1.5,1.8,7.1c-0.7,1.4-0.9,1.2-0.5,2.8l5.7,22.6
		c1.1,4.2-0.9,3.1-1.1,6l3.8,1.9c1-1.4,2.9-6.2,5.4-7.9l6.3,6.2c-2.6,0.8-9.7,9.3-15.3,9.3c-3.3,0-6-1.8-7.7-4.5
		c-1.1-1.8-1.9-7.6-2.3-10.1c-0.9-5.2-5.3-27.6-5.5-31.4c-0.1-2.8-1-5.3,1.4-7.3C124.3,91.2,125.5,90.6,126.2,90.6z M140,101.5h1.6
		c0,5.1,0.5,4.9-1.2,7.7c-0.3,0.5-0.4,0.7-0.7,1.2l-0.8,1.4c-1.6-6.9-1.9-3.8,0.2-9.3C139.4,101.8,139.2,101.5,140,101.5z
		 M142.7,127c-1.5-6.5-2.9-6.6,0.3-13c0.5-0.9,1.7-2.9,1.9-3.8c4.8,0,11.4-0.5,15.6,0.4c2.9,0.7,5.5,3.1,6.5,5.7
		c1.4,3.6,0.6,7-1.9,9.7l-8.5,6.7l-6.8-6.7c1.6-2.2,5-5.5,6.6-7.9c-0.4-0.5-2.6-2.3-3.3-2.7c-0.9,0.6-4,4.7-5.1,5.8
		c-0.6,0.6-0.7,0.8-1.2,1.5L142.7,127z M137.3,149.2c7,0,10.3-3.8,16.7-8.8c2.3-1.8,4.5-3.3,6.8-5.2l7-5.2v41h-30.4V149.2z"/>
	<path class="st0" d="M70.3,89.3c1.7,7.5,15.1,7.5,16.8,0l-3.8-1.9c-2.7,4.1-6.2,4.2-8.4,1.3c-0.3-0.4-0.6-0.9-0.9-1.3L70.3,89.3z"
		/>
	<path class="st0" d="M70,82c0,2.9,4.3,2.9,4.3,0C74.4,79.1,70,79.1,70,82"/>
	<path class="st0" d="M83,82c0,2.9,4.3,2.9,4.3,0C87.4,79.1,83,79.1,83,82"/>
</g>
</svg>
