<?xml version="1.0" encoding="utf-8"?>
<!-- Generator: Adobe Illustrator 25.2.0, SVG Export Plug-In . SVG Version: 6.00 Build 0)  -->
<svg version="1.1" id="Layer_1" xmlns="http://www.w3.org/2000/svg" xmlns:xlink="http://www.w3.org/1999/xlink" x="0px" y="0px"
	 viewBox="0 0 216 216" style="enable-background:new 0 0 216 216;" xml:space="preserve">
<style type="text/css">
	.st0{fill-rule:evenodd;clip-rule:evenodd;fill:#FFFFFF;}
</style>
<g>
	<path class="st0" d="M61.3,101c-1.3-0.4-4.6-3.9-11.8-2.2c-2.8,0.6-1.9,0.3-3.6,1.4c0,1.6,1.2,5.3,1.8,6.5c0.5,0.8,1,1.6,1.6,2.4
		c1.7,2.3,4.7,4.1,7.8,4.8c2.2,0.5,5.8,0.2,7.5-0.6c0,0.9,0.3,1.8,0.4,2.8c0.4,2.4,0.9,6.8,0.9,9.2c-0.7-0.5-1.2-1.3-1.9-2.1
		c-4.7-4.7-9.5-4.8-15.7-4.1c-3.3,0.4-2.3,2.2-1.8,5.2c0.8,4.5,3.3,8.1,6.3,10.2c1.7,1.2,3.4,2.1,5.7,2.6c2.4,0.6,5.4,0.1,7.7,0.1
		c0,7.5-1.3,11.5-1.9,17.9c-8.2,0-9.8,0.7-14.6,4.4c-1.8,1.4-3.1,3.5-4,5.6c-0.7,1.5-2.1,5.8-1.2,7.9c0.6,0.6,58.8,0.3,64.5,0.3
		c21.7,0,43.4,0,65.1,0l0.7-0.9c0.1-7.6-4.5-13.2-9.6-15.6c-4.9-2.3-14.3-1.7-20.5-1.6c-1.4,0-2.3,0.3-2.6-0.6
		c0-0.1-0.3-2.2-0.3-2.6c-0.2-0.9-0.4-1.6-0.6-2.6c-1.3-4.6-3.8-8.7-7.2-12c-4.1-4.1-11-8.3-17.3-8.3c0.1-4,1.9-10.2,1.9-18.7
		c6.6,0,8.8-0.7,12.7-3.6c4.6-3.5,5.8-8.7,5.8-14.5c0-1.8-0.4-1.8-2-2c-4.8-0.7-9.3,0.7-12.8,3.3c-1.7,1.3-2.6,2.8-3.9,4.3
		c0-3.1-0.7-7.1-1.2-10c-0.7-3.8,4.7,0.5,10.5-6.3c4.2-4.9,3.7-12.6,2.7-13.5c-1.2-1.2-9.6,0-13.3,4.3c-0.7,0.8-2.1,2.7-2.2,3.9
		c-1-0.7-0.2,0.2-0.6-1c-0.1-0.2-0.2-0.8-0.3-1.3c-0.7-2.5-2.4-4.8-1.1-7.3c8.3-15.9-7.8-24.7-9.9-24.1c-1.5,0.4-3.6,6.1-4,7.7
		c-1.4-0.3-2.4-0.6-4-0.8c-2.3-0.3-2.3-0.6-4,0.6c0,5.9,1.8,9.6,5.3,13.6c1.5,1.7,3.6,3,5.6,4c1.8,0.9,5,1.9,7.7,1.9l1.6,5.1
		c-4-2.6-7.4-3.6-13-2.2c-2.6,0.6-3.1,1-2.3,3.6c1.4,4.5,2.9,7.5,7.1,9.9c5.4,3,8.4,0.8,10.9,1c0.6,0,1.7,10.8,1.7,12
		c-2.7-1.8-4.8-8.4-17.4-6.4c-1.3,0.2-2.4,0.1-2.6,1.4c-0.1,0.7,0.3,3.1,0.4,3.8c0.8,4.6,3.2,8,6.3,10.2c5.3,4,8.3,2.7,13.6,2.7
		l-0.6,7.4c-0.2,2.3-0.7,5.1-1,7.3c-0.9,6.4,0,1.3-11,5.3c-3.9,1.4-7.1,3.5-9.9,6.4c-1.5,1.5-2.5,2.4-3.7,4.3
		c-0.9,1.3-2.5,3.8-2.9,5.4c-3.7-0.9-6.2-3.1-11.7-0.2c-3.5,1.9-5.3,4.8-6.2,8.7h-1.9c0-2.5,0.8-6.1,1.1-8.7
		c0.4-2.4,0.7-6.6,0.7-9.4c3.8,0,5.6,0,8.4-1.2c2.7-1.1,3.8-2.1,5.6-4c1.5-1.5,2.9-3.7,3.6-6c0.6-2.1,1.1-6,0.5-8.6
		c-4.4-2.1-12,0.5-15.3,3.4l-2.6,3c-0.2,0.2-0.3,0.4-0.5,0.6c-0.1-3.3-0.8-6.9-1.4-10.2c-0.4-2.1,1.3-1,3.5-1.6
		c7.4-2,12.1-8.6,9.9-17.8c-4.1-2-12.1,1.6-14.8,6.3c-0.5,0.9-0.5,1.4-1.2,2c-0.1-2.6-1.6-5-2.2-7.4c-0.2-1,0.1-1.2,0.6-2.1
		c4.7-7.5,2-17.8-5.7-22.2c-1.6-0.9-2.7-1.9-4.8-1.9c-1,1.9-3.3,5.3-3.5,7.7l-4.9-1c-2.3-0.4-3.6,0-3.3,2.4c1,6.7,3.8,11.6,9.4,15
		c2.3,1.4,6,2.8,9.5,2.8C60.1,97.8,61.2,99.2,61.3,101 M103.2,65c-2.4-0.6-4.8-3-6.2-4.8c-1.4-1.8-3.2-5-3.2-8
		c1.9,0,3.3,0.7,4.8,1.1c0,3.4,0.2,4.3,1.2,6.8C101,62.9,102.2,63.4,103.2,65z M101.3,53.8c0-1.3,0.4-3.3,0.8-4.3
		c0.5-1.2,1.3-2.6,1.6-3.7c2.7,1.4,4.3,2.1,6.1,4.6c3.9,5.2,3.1,10.4,0.3,15.7c-2.1-0.5-4.8-2.8-6-4.4
		C102.7,59.9,101.3,56.9,101.3,53.8z M101.3,53.8l1.9,11.2L101.3,53.8z M116.8,83.4c0-1.2-0.3-0.9-0.3-1.9c0-3.2,1.3-5.8,2.9-7.5
		c2.2-2.5,5-3.4,8.6-3.4v2.9C128,79.1,122.6,83.4,116.8,83.4z M98.7,75.2c1.9-0.2,1-0.5,4.8-0.5c5.3,0,9.9,5.4,9.9,9.1
		c0,1-10.4,3-14-6C99.1,76.8,98.9,75.7,98.7,75.2z M53.3,91.7c-2-0.5-4.9-3.3-6.1-4.9c-2-2.7-2.4-4.2-3.3-7.9c0.9,0,4,0.6,4.4,0.9
		c0.5,0.4,0.3-0.2,0.6,2.1c0.3,2.4,0.8,4.5,2,6.5c0.3,0.6,0.7,1.1,1.1,1.6C52.8,90.8,52.8,90.7,53.3,91.7z M51.7,80.8
		c0-2,0.2-3.2,0.8-4.8c0.4-1.1,1.4-2.7,1.6-3.5c1.2,0.6,1.9,1,3,1.8c0.6,0.4,0.8,0.6,1.3,1.1c3.5,3,4.1,6.5,4.1,10.8
		c0,3.1-1.6,4.6-2.1,6.7C57.3,92.5,51.7,86.8,51.7,80.8z M51.7,80.8l1.6,10.9L51.7,80.8z M122.7,107.4h-3.7c0-6.3,2.8-11.7,8.7-13.7
		c2.3-0.8,3.8-0.7,6.8-0.7c-0.7,3.1,0.2,5.7-3.2,9.9C129.7,104.9,126,107.4,122.7,107.4z M98.7,95.2c4,0,7.8-1.6,13.1,3.7
		c2.1,2.1,3.7,4.8,3.7,8.9c-4.4,1-9.2,0-11.8-2.3C101.1,103,98.8,99.8,98.7,95.2z M98.7,95.2L61.3,101L98.7,95.2z M66.9,110.1
		c0-2.5-0.1-4.5,1-6.7c0.7-1.4,1.4-2.2,2.4-3.2c3.6-3.6,6.7-2.5,8.1-3.1c0,5-0.3,6.7-2.7,9.5c-0.7,0.9-2.5,2.1-3.6,2.6
		C70.7,109.7,68.9,110.1,66.9,110.1z M49.1,101.8c7.4-1.7,12.8,0.9,14.7,8.8c-5.6,1.3-10.5,0.4-13.5-5.2
		C49.6,104.3,49.3,103.3,49.1,101.8z M72.8,134.1h-3.5c0-4.3,0.9-7.6,3.4-10.2c4-4.2,6.8-4.2,11.8-4.2c0,5.6-1.1,8.6-5,11.8
		c-0.7,0.6-1.2,0.9-1.9,1.3C76.5,133.3,74.5,134.1,72.8,134.1z M49.1,121.8c3.8,0,7.8-1.7,13.1,3.7c2.2,2.2,3.7,5.8,3.7,8.9
		c-2.9,0.2-3.3,0.7-6.6,0.2c-2.1-0.4-3.9-1.4-5.2-2.5c-1.1-0.9-1-0.7-1.9-1.8c-0.7-0.9-1-1.2-1.5-2.2
		C49.8,126.4,49.1,124.3,49.1,121.8z M49.1,121.8l16.8,3.5L49.1,121.8z M84.8,156.2c0,2.1-0.2,2.7,1.6,2.7c1.4,0,1.1-2,1.4-5
		c0.5-4.3,2.3-8,4.6-11.4c0.6-1,0.9-1.1,1.5-1.9c3.7-4.6,11.3-8.8,17.3-8.8c1.2,0,1.9-0.2,2.8-0.2c4.9,0.5,8,0.8,12.7,3.6
		c1.3,0.8,2.8,1.8,3.9,2.8c4.6,4.2,8.7,10.7,8.9,17.3c-5.4,0-7.5-0.7-7.5,1.6c0,1.9,3.5,1.3,5.3,1.3h20.3c5.7,0,10,2.4,12.8,7.2
		c0.6,1.1,1.5,3.8,1.6,5.3H47.2c0-6.5,6.8-12.5,12.5-12.5h9.3c0,2.2,1,4.9,2.9,5.9c3.3-1.7-0.3-2.4-0.3-6.9c0-7.1,7.8-11.7,14.1-7.5
		C85.3,152.1,84.8,153.3,84.8,156.2z"/>
	<path class="st0" d="M90.1,166.4c0,1.5,0.9,1.9,2.4,1.9h28.3c3.6,0,2.5-2.9,1.1-2.9H91.5C90.9,165.3,90.1,166.1,90.1,166.4"/>
	<path class="st0" d="M129.9,168.2c2.5,0,5.9,0.5,5.9-1.6c0-2-3.9-1.3-6.9-1.3C127.5,165.3,126.4,168.2,129.9,168.2"/>
</g>
</svg>
