<?xml version="1.0" encoding="utf-8"?>
<!-- Generator: Adobe Illustrator 25.2.0, SVG Export Plug-In . SVG Version: 6.00 Build 0)  -->
<svg version="1.1" id="Layer_1" xmlns="http://www.w3.org/2000/svg" xmlns:xlink="http://www.w3.org/1999/xlink" x="0px" y="0px"
	 viewBox="0 0 216 216" style="enable-background:new 0 0 216 216;" xml:space="preserve">
<style type="text/css">
	.st0{fill-rule:evenodd;clip-rule:evenodd;fill:#FFFFFF;}
</style>
<g>
	<path class="st0" d="M97.4,84.5c0-3.5-1-10.9,4-10.9c5.2,0,4,7.1,4,12.4c0,4.5-5.1,5.4-7.1,2.8C97.7,87.8,97.4,86,97.4,84.5 M85,85
		c0-3.2-0.8-9.8,4-9.8c5.1,0,4,6.4,4,10.6c0,1.3-0.4,2.3-1.1,3C89.7,91.4,85,90.5,85,85z M116.6,89.1c-2.1,0-3.8-0.1-5.5,0.3
		c-0.4-0.7-1.2-1.5-1.2-2.6V74.4c0-4.3,7.8-4.6,7.8,0.3v11.8C117.8,87.6,117.1,88.4,116.6,89.1z M129,89.1h-5.7
		c-0.3-1.2-0.9-0.9-0.9-2.3v-9.2c0-4.2,7.8-4.5,7.8,0.3v8.6C130.1,87.6,129.4,88.4,129,89.1z M134.2,89.4c0.3-0.8,0-0.4,0.9-0.6
		l10.4,0v11.8h-7.2c0-4.2,0.6-6.6-1.5-9.1c-1.1-1.3-1.4-1.1-2.1-1.6C133.1,88.9,134.6,89.9,134.2,89.4z M134.2,89.4l-28.5,4.3
		L134.2,89.4z M105.7,93.7c-0.9,3.8-0.9,3.1,0,6.9H70.6V88.8H81c1.5,2.8,2.4,4.5,5.7,5.5c3.3,1,7.1-0.5,8.4-2.4
		C100.4,95.5,100,95,105.7,93.7z M160.9,132.2c-4.6,0-10.9,1.1-10.9-3.4V61.2c0-5.2,5.3-4,10.9-4c4.5,0,3.4,6.8,3.4,9.8V100
		c0,0.8-0.1,2.7,0,3.4c0.5,2.8,4.3,1.9,4.3,0V71c5.2,0,8.6-0.9,8.6,2v43.4c0,2.9-3.5,2-8.6,2c0-5.9,0.9-8.3-2.6-8.3
		c-2.2,0-1.7,3.7-1.7,4.9l-0.1,13.7C164,130.4,162.9,132.2,160.9,132.2z M181.6,72.1v45.2c0,2.8-2.6,5.4-5.5,5.4h-7.5
		c0,4.5,0.7,8.9-2.5,11.9c-3.2,2.9-7.5,2.2-12.4,2.2c-5.2,0-8.3-4.2-8.3-9.8v-22.1h-7.2c0,5.5,0.6,6.3-2.5,10.2l-5.4,6.4
		c-2.2,2.6,1.1,8.1-3.1,8.1c-1.2,0-2-1.1-2-1.7c0-4.1-0.6-6.6,0.9-8.3c0.6-0.7,0.7-0.9,1.3-1.6c0.9-1.1,1.5-1.9,2.5-3
		c2.2-2.6,3.9-3.8,3.9-7V96c0-1.1-0.8-2.3-1.7-2.3h-19.5c-1.7,0-3.2,1.8-3.2,3.4c0,4.8,7.4,3.8,12.4,3.7c5.2,0,2.9,4.3,1.4,4.3H102
		c-6.9,0-12.9-0.3-19.8-0.3c0,3.6-0.4,4.9,1.6,7.4l6.3,7.5c0.5,0.6,0.8,0.8,0.8,1.8v40.2c0,0.9-1.3,1.7-2.3,1.7c-2.6,0-2-3.5-2-6
		v-24.1c0-2.1,0.5-10.1-0.6-11.5l-1.8-2.2c-6.3-7.5-6.2-6.4-6.2-14.7h-7.2V127c0,5.6-3.2,9.8-8.3,9.8c-4.9,0-9.2,0.7-12.4-2.2
		c-3.2-3-2.5-7.4-2.5-11.9h-7.5c-2.8,0-5.5-2.6-5.5-5.5V72.1c0-2.8,2.7-5.5,5.5-5.5h7.5V60c0-3.6,3.9-7.5,7.8-7.5
		c5.4,0,10.4-0.9,13.6,3.1c2.5,3.2,2,8,2,12.7c0,3.5-2.9,3.7-4.1,2.4c-1.3-1.5,0.3-9.2-1-11.7c-0.5-1-1.7-1.9-3-1.9
		c-6.5,0-10.9-1.2-10.9,4.6v65.8c0,2.4,1,4.6,3.5,4.6c12.2,0,10.9,1.4,10.9-12.4c0-3.5-0.2-41.1,0.1-42.2c0.2-0.8,1.4-1.5,2.2-1.5
		c3,0,2.3,5.5,2.3,8.3h10.1V79c0-6.2,6.7-9.7,12-7.4c1.1,0.5,0.9,0.7,2.1,1c0.3-1.2,1.4-1.7,2.3-2.3c4.8-2.8,8.5,0,9.5,0.3
		c4.6-6.9,13.5-3.8,14.7,0.6c4-2.1,8.3-2.2,11.4,1.5c2.7,3.2,2.1,7.2,2.1,11.7h10.6V62.3c0-5.7,3.3-9.8,8.3-9.8
		c4.7,0,9.5-0.8,12.6,2.4c3.1,3.1,2.4,7.1,2.4,11.7h7.5C178.9,66.6,181.6,69.3,181.6,72.1z M38.7,116.4V73c0-2.9,3.5-2,8.6-2v47.4
		C42.2,118.4,38.7,119.2,38.7,116.4z"/>
	<path class="st0" d="M125.2,136.5v25.3c0,2,4.3,2.7,4.3-0.6v-25C129.6,134.2,125.2,133.4,125.2,136.5"/>
</g>
</svg>
