<?xml version="1.0" encoding="utf-8"?>
<!-- Generator: Adobe Illustrator 25.2.0, SVG Export Plug-In . SVG Version: 6.00 Build 0)  -->
<svg version="1.1" id="Layer_1" xmlns="http://www.w3.org/2000/svg" xmlns:xlink="http://www.w3.org/1999/xlink" x="0px" y="0px"
	 viewBox="0 0 216 216" style="enable-background:new 0 0 216 216;" xml:space="preserve">
<style type="text/css">
	.st0{fill-rule:evenodd;clip-rule:evenodd;fill:#FFFFFF;}
</style>
<g>
	<path class="st0" d="M55.2,55.3v105.4c0,0.9,0.2,1.4,0.5,2c0.6,0.1,0.6,0.3,1.3,0.3h86.2c0.6,0,1.3-0.7,1.3-1.3V54.3
		c0-0.6-0.7-1.3-1.3-1.3H57C55.5,53.1,55.2,53.9,55.2,55.3 M71.7,55.8H128c0,4.1,0.3,6.7,3.5,9.7c2.3,2.1,6.1,3.7,10.1,2.8v79.4
		c-7-1.5-13.6,3.9-13.6,10.5v2H71.7c0-1.6,0.5-2.2-0.4-5.1c-1.5-4.8-7.2-8.6-13-7.3V68.3c4.3,0.9,8.4-1,10.6-3.5
		c2.1-2.3,2.4-3.4,2.8-6.4C72,57,71.7,57.2,71.7,55.8z M61.3,65.5h-2.9v-9.5H68C70.3,56.1,67.8,65.5,61.3,65.5z M131.2,58.3v-2.2
		h10.1v9.5c-3.1,0-5,0.2-7.8-2.2C132.4,62.4,131.2,60.3,131.2,58.3z M68,159.9h-9.6v-9.5h2.9c3.8,0,7.5,3.9,7.5,7.5
		C68.8,159.4,69,159.9,68,159.9z M131.2,157.7c0-4,3.9-7.2,7.5-7.2h2.7v9.5h-10.1V157.7z"/>
	<path class="st0" d="M47.1,54.1v107.9c0,4.5,3.6,8.5,8.3,8.5h89.4c2,0,4.2-1.3,5.3-2.3c1.1-1,2.5-3.1,2.5-4.9V52.8
		c0-3.5-4-7.2-7.7-7.2H55.4C50.7,45.6,47.1,49.6,47.1,54.1 M143.4,167.7H56c-2.9,0-5.6-2.3-5.6-5V53.3c0-2.7,2.7-5,5.6-5h88
		c2.9,0,5.6,2.5,5.6,5.2v108.9C149.6,165.4,146.8,167.7,143.4,167.7z"/>
	<path class="st0" d="M92.8,111c0,1,0.3,1.7,0.5,2.5c-2.1,0.9-2.2,0.4-3.9,2.1c-2.1,2-2.3,4.3-1.7,6.9c-1.9,0.9-2.6,0.6-4.1,2.2
		c-2.7,2.8-1.6,5-1.5,6.8c-1.6,0.7-5.9,1.7-5.9,6.5c0,5.1,5.7,8.3,10.4,6c1-0.5,1.5-1.2,2.4-1.7c2.4,3.3,8.3,3.3,10.7,0
		c0.8,0.5,1.2,1,2.3,1.6c4.8,2.5,7.6-0.6,9.2-1.6c3.2,4.5,11.9,2.7,12.3-3.6c0.2-2.7-1.2-5-3.4-6.2c-1-0.5-1.6-0.5-2.5-0.9
		c1.2-2.2,0.1-5.2-1.3-6.8c-0.5-0.5-1.1-0.9-1.8-1.3c-1-0.5-1.6-0.5-2.5-0.9c1.9-3.7-1.3-8.7-5.3-8.7c0-2.1,1.3-4.6-1.9-7.4
		C99.7,101.9,92.8,106.3,92.8,111 M96,111.5c0-4.6,5.2-4.7,6.9-2.9c2.3,2.4,0.7,6-2.7,6.3C98.2,115.1,96,113.3,96,111.5z
		 M101.6,120.7c0-3.2,1.1-4.2,4.5-4.2c2.7,0,4.7,4,2.2,6.3C105.9,125.1,101.6,123.3,101.6,120.7z M90.4,120.2c0-5.2,8-4.8,8-0.3
		C98.4,125.2,90.4,124.8,90.4,120.2z M84.8,129.2c0-4.8,8-5.3,8,0c0,2-1.8,3.5-3.2,3.5c-1.4,0-2.6,0.1-3.7-1.1
		C85.5,131.3,84.8,129.8,84.8,129.2z M100.5,132.7c-1.5,0-2.2,0.2-3.5-1.2c-2.7-2.7,0.5-6.1,1.9-6.1c1.6,0,2.7-0.2,3.9,1.1
		C105.4,129.1,103.1,132.7,100.5,132.7z M106.9,129.2c0-4.7,8-5.4,8,0.3c0,1.4-1.7,3.2-3.2,3.2c-1.4,0-2.6,0.1-3.7-1.1
		C107.7,131.3,106.9,129.8,106.9,129.2z M90.4,138.2c0-5.2,8-4.9,8-0.3C98.4,143.1,90.4,142.8,90.4,138.2z M112.5,138.2
		c0-5.2,8-4.9,8-0.3C120.5,143.1,112.5,142.8,112.5,138.2z M79.4,138.7c0-2.3,0.8-4.3,3.8-4.3c5.6-0.1,4.8,7.3,0.8,7.3
		C82,141.7,79.4,141.1,79.4,138.7z M101.6,138.7c0-2.3,0.8-4.3,3.8-4.3c5.6-0.1,4.8,7.3,0.8,7.3
		C104.1,141.7,101.6,141.1,101.6,138.7z"/>
	<path class="st0" d="M159.7,138.7v18.7c0,2.4,2.9,1.7,7.2,1.7c1.2,0,1.9-0.6,1.9-1.7c0-5.9,0.2-15.6-0.3-21.2l0-49.7
		c0-3.8-0.3-7-0.3-11c0-2.1,0.4-15-0.3-16.4c-1.1-2.1-3.4-3-5.7-1.7c-2.5,1.4-2,3.9-2,6.4c0,3.6,0,7.2,0,10.7
		c0,3.8-0.3,6.9-0.3,10.5l0,48.5C160.1,135.1,159.7,136.8,159.7,138.7 M163.2,60.8c0-0.6,0.4-1,1.1-1c0.8,0,1.1,0.7,1.1,1.5v4.2
		h-2.1V60.8z M163.2,89.3v-21h2.1l0.3,62.7h-2.7C162.9,116.8,163.2,103.4,163.2,89.3z M162.9,134h2.7v22.2h-2.7V134z"/>
	<path class="st0" d="M92.8,77.8c0,3.6,3.1,6.7,7.2,6.7c3.5,0,6.9-2.8,6.9-6v-1.2c0-4.4-6.8-8.5-11.9-4.1C94,74,92.8,76.1,92.8,77.8
		 M100.5,81.5h-1.3c-3.6,0-5.4-7.2,1.3-7.2c2.2,0,3.5,2.5,3.5,3.5C104,79.6,102.4,81.5,100.5,81.5z"/>
</g>
</svg>
