<?xml version="1.0" encoding="utf-8"?>
<!-- Generator: Adobe Illustrator 25.2.0, SVG Export Plug-In . SVG Version: 6.00 Build 0)  -->
<svg version="1.1" id="Layer_1" xmlns="http://www.w3.org/2000/svg" xmlns:xlink="http://www.w3.org/1999/xlink" x="0px" y="0px"
	 viewBox="0 0 216 216" style="enable-background:new 0 0 216 216;" xml:space="preserve">
<style type="text/css">
	.st0{fill-rule:evenodd;clip-rule:evenodd;fill:#FFFFFF;}
</style>
<g>
	<path class="st0" d="M61.9,52.9c-1.5,0-1.6-0.3-3.2-0.3H46.5c-3.4,0-1.9,4.5-2.5,9.1c-0.4,2.9-0.1,8.6-0.1,11.8
		c0,2.1-0.3,3.2-0.3,5.5c0,10-1.4,33,0.2,39.8c1.5,6.5,5.7,10.7,12.8,10.7l5.5,9.9c-3.5,1.8-7.5,8-7.5,13.3c0,5.9,1,9.6,5.3,13.8
		c9.4,9.4,24.3,5.6,29-5.4c2.2-5.2,2.2-11.1-0.7-16c-1.3-2.2-3.1-4.4-5.2-5.8c0.3-1.1,0.7-1.6,1.2-2.5c0.7-1.1,3.6-7,4.5-7h11.3
		c0.9,0,1.2,1.3,1.7,2.1c0.5,0.9,0.9,1.5,1.4,2.4c0.7,1.2,2.4,4,2.7,5.1c-8.5,5.7-10.2,19.1-2.5,26.9c12.2,12.4,30.9,2.3,30.9-11.2
		v-2.3c0-5.4-4.1-11.5-7.5-13.3c0.9-1.7,1.7-3.1,2.7-4.8c1-1.6,1.8-3.3,2.8-4.8h8.4l2.9,5.2c0.7,1.2,2.6,4.3,2.9,5.5
		c-1.8,0.9-4.4,1.9-3.9,3.9l7.4,13.1c2.2,4.1,3.3,2,7.4-0.2l13.2-7.6c3.3-1.8,2.4-2.8-0.4-7.3l-5.6-9.7c-1.4-2.3-3-1-4.9,0
		c-0.6-1-1.2-1.6-1.5-2.9c1.4,0,2-0.3,2.5-1.3c0.6-1.5,0.4-7,0.4-8.8c0-11.2-6-19.2-15.3-23.9c-11.5-5.8-19.6-2.6-31.7-7.4
		c-8.8-3.5-16.1-10.6-21.1-18c-2.6-3.9-5-8.2-6.9-12.8c-1-2.4-1.9-4.6-2.8-7.1c-0.4-1.2-0.8-2.4-1.2-3.7c-0.9-2.9-1.6-2.4-5.4-2.4
		C71.3,44.2,64.2,48.6,61.9,52.9 M59.6,107.7l-9.6,0c-1.5,0-1.4,0.3-2.9,0.3c0-2.3,0.3-3.6,0.3-6.1c0-2.2,0-4.4,0-6.7
		c0-2.3,0.3-3.6,0.3-6.1c0-10.9,0.6-21.9,0.6-32.5h6.4l-0.7,6.5c-0.6,4,0.1,16.2,0.5,20.4c0.5,6.3,2,12.1,3.5,18.2
		C58.4,103.8,59.1,105.8,59.6,107.7z M73.8,80.7c0,2,1.8,4.3,3,6c6,8.8,14.8,14,25.1,17c5.4,1.6,10.8,2.2,16.9,2.2
		c2.1,0,6.9-5.2,8.3-7.1c0.9-1.2,1.2-2.1,1.9-3.4c5.8,0,14,2.6,18.8,5.8c4.9,3.2,8.8,9.4,9.3,15.4H86.8c-2.9,0-3.8,0.4-5.6-0.8
		l-7.6-5.2c-3.1-2.1-4.6-3-9.7-3c-0.4-0.9-0.8-2.6-1.2-3.7c-0.4-1.2-0.8-2.7-1.1-3.9c-3.9-15.8-4.2-22.2-3.5-37.9
		c0.1-1.7,0.5-3.6,0.6-5.2c8.9,0,3.8-1.1,10.4-5.8c2.5-1.8,5.3-2.9,9.6-2.9c0.1,1.4,2.6,7.8,3.3,9.4c0.9,2.2,4.1,7.9,3.8,8.9
		c-0.5,1.6-7,8.7-8.9,10.6C76.2,77.9,73.8,79.8,73.8,80.7z M85.7,83.1c0,1.2,0.6,2,1.7,2c2.1,0,5.4-4.2,7.8-5.5l2.8,3
		c1.2,1,2.1,1.5,3,2.8c-0.7,0.4-4.3,3-4.3,4.1c0,1.4,0.1,2.3,2,2.3c1.6,0,3.7-2.6,5.8-4.1c1.2,0.8,4.4,2.9,5.8,3.2
		c-0.3,1-0.1,0.4-0.7,1c-1.4,1.2-2.7,1.8-2.7,3.1c0,1.2,0.9,2.3,2,2.3c0.9,0,3.9-2.7,4.7-3.4c1.8-1.6,2.1-0.5,6.1,0.4
		c1.7,0.4,3.3,0.6,4.9,0.9c-1.1,1.6-5.3,6.7-6.7,6.7c-4.4,0-9.4-0.8-13.2-1.6c-4.3-1-7.6-2.2-11.1-4c-3-1.5-6.2-3.8-8.7-6.1
		c-1.4-1.3-6-6.9-6.4-8.6c0.9-1.3,9-9.2,9.6-11.3h0.6c0.4,1.4,3.2,4.8,4.1,6.1L87,80.9C86.2,81.6,85.7,81.8,85.7,83.1z M47.1,112
		l11.6,0c4.2-0.1,7.5-1.4,11.8,1.5c1.3,0.9,9.9,7.2,11.4,7.2h75.4v4.9H60.2c-7,0-11-1.5-12.3-7.7C47.6,116.5,47.1,113.5,47.1,112z
		 M79.3,137.3c-3.7-2-9.8-1.8-13.6,0c-0.4-1.6-3.7-5.9-4.1-7.5h22c-0.7,1.2-1.4,2.4-2.1,3.7C80.7,134.8,80,135.9,79.3,137.3z
		 M105.4,129.7h22c-0.2,1-1.5,2.9-2,3.8l-2,3.7c-3.8-1.8-10-1.9-13.6,0C108.4,134.7,106.7,132.3,105.4,129.7z M145.4,129.7h8.1
		c5.1,9.7,4.9,8.4,8.7,6.4l5.8,10.4l-14.8,8.4c-0.3-1.2-0.8-1.7-1.4-2.7l-4.4-7.7c1.4-0.4,4.1-1.7,4.1-3.5
		C151.5,139.8,146.3,131.5,145.4,129.7z M116.1,139.9c12.4,0,17.9,13.6,11.6,22.1c-0.3,0.4-1.2,1.6-1.6,1.9
		c-0.5,0.4-0.4,0.3-0.8,0.6c-0.4,0.3-0.5,0.4-1,0.8c-8.6,6-21.6,0.3-21.7-11.2c0-2,0.2-3.9,1.1-5.7c0.4-0.9,0.7-1.5,1.2-2.2
		c1.4-2.1,1.5-2.1,3.4-3.6c0.7-0.6,1.5-0.9,2.2-1.2C111.9,140.7,114.6,139.9,116.1,139.9z M72.6,167.7c-15.5,0-18.9-21-5.7-26.5
		c9.5-4,19.2,2.6,19.5,12.7C86.6,161.2,80.2,167.7,72.6,167.7z"/>
	<path class="st0" d="M107.7,153.8c0,5.2,3.9,8.7,9.6,8.7c3.7,0,7.8-4.1,7.8-7.8c0-2.9-0.2-4.9-2.7-7.2
		C116.2,141.7,107.7,147.3,107.7,153.8 M116.4,149.1c5.9,0,6.6,9.3-0.3,9.3c-2.9,0-6.2-4.5-2.8-7.8c0.5-0.5,0.6-0.7,1.3-1
		C114.8,149.5,116.2,149.1,116.4,149.1z"/>
	<path class="st0" d="M63.9,152.9v1.7c0,3.7,4.1,7.8,7.8,7.8c13.1,0,11.9-17.4,0.6-17.4C68,145.1,63.9,149.3,63.9,152.9 M72.9,158.4
		c-5.1,0-6.1-5.4-3.7-7.8c4.4-4.4,10.6,2,6.8,6.3C75.5,157.5,73.9,158.4,72.9,158.4z"/>
</g>
</svg>
