<?xml version="1.0" encoding="utf-8"?>
<!-- Generator: Adobe Illustrator 25.2.0, SVG Export Plug-In . SVG Version: 6.00 Build 0)  -->
<svg version="1.1" id="Layer_1" xmlns="http://www.w3.org/2000/svg" xmlns:xlink="http://www.w3.org/1999/xlink" x="0px" y="0px"
	 viewBox="0 0 216 216" style="enable-background:new 0 0 216 216;" xml:space="preserve">
<style type="text/css">
	.st0{fill-rule:evenodd;clip-rule:evenodd;fill:#FFFFFF;}
</style>
<g>
	<path class="st0" d="M50.3,122c0,5.8,2.8,8.3,7.1,10l0.8,0.4c-8.2,1.9-10.3,11.4-5.1,16.9c3.3,3.5,7.7,3.4,11.9,2.1
		c1.4-0.4,2.6-0.8,4.2-1.3l20.3-6.1c5.1-1.5,3.2-1.5,8.1,0c4.4,1.3,26.2,8.3,29,8.3c3.1,0,5.8-1,7.6-3c5.1-5.4,3-15-5.1-16.9
		c0,0,0.1-0.1,0.1-0.1l1.3-0.5c0.6-0.2,1.1-0.4,1.6-0.7c0.9-0.6,1.8-1.2,2.5-2c6-7.7,0-16.7-7.5-16.7c-2.7,0-14,3.7-16.9,4.6
		l-16.5,4.9c-1.3,0-29.9-9.5-33.2-9.5C55.1,112.3,50.3,116.7,50.3,122 M55.3,122.9c0-3.4,2-5.6,5-5.6c1.2,0,2.9,0.6,3.9,0.9
		l34.1,10.2c2.5,0.8,5.1,1.6,7.6,2.3l11.5,3.4c1.2,0.4,2.6,0.8,3.9,1.1c-0.7,1.1-3.6,3.3-3.6,7.2c0,0.8,0.2,2,0.4,2.5
		c-1.1-0.1-3.1-0.8-4.1-1.1l-12.2-3.6c-5.5-1.7-10.8-3.3-16.4-4.9l-24.5-7.3C59,127.3,55.3,126.5,55.3,122.9z M120.5,129.7
		l-15.9-4.6c-0.5-0.1-0.7-0.2-1.1-0.3l-1.1-0.5l12.1-3.5c1.5-0.4,11-3.5,12.3-3.5c5.3,0,8.2,7.9,0.8,10.3L120.5,129.7z M66.1,135.1
		c1.4-0.3,2.7,0.3,4.5,0.9c1.6,0.5,3.1,0.9,4.7,1.4c1.4,0.5,3,0.9,4.5,1.4c1,0.3,3.7,1.2,4.8,1.3c-0.7,0.9-9.8,3.2-11.3,3.6
		c-1,0.3-3,1-4.1,1.1c0.9-2,0.2-4.9-0.7-6.6C67.8,136.6,66.9,136.3,66.1,135.1z M55.3,142.5c0-6.1,9.5-6.1,9.5,0
		C64.8,148.9,55.3,148.7,55.3,142.5z M122.5,142.8c0-6.4,9.5-6.3,9.5-0.2C132,148.7,122.5,148.7,122.5,142.8z"/>
	<path class="st0" d="M101.5,36.7h0.5c0.9,0.1,1.6,0.7,1.9,2c0.2,1,0.2,2.8,0.4,3.9c1.5,7,5.5,11,9.1,16.4c2.6,3.9,4.3,6.1,6.2,10.7
		c0.8,2,1.6,4.3,2,6.5c1.5,7.3,1.4,14.3-1.9,21c-1.2,2.4-3.9,6.6-5.9,8.3c-0.5,0.4-0.6,0.4-1,0.8c-0.4,0.3-0.5,0.6-0.9,0.9
		c-0.6,0.5-1.4,1.1-2.1,1.5c-5.8,3.9-12.2,5.5-19.3,4.8c-10.1-1-18.4-7.3-22.8-16.2c-4.7-9.5-4-24.5,2.8-32.5c0.9-1,3.1-3.2,4.5-3.2
		c2.9,0,2.2,2.8,4.1,7c1.2,2.6,2.5,4.6,5,5.9c0-8.2,1.3-16.1,4.7-23.1c2.3-4.9,6.2-10.4,10.5-13.7C99.9,37.1,100.8,36.7,101.5,36.7
		 M69.8,85.6c0-4.5,0-6.4,1.1-10.8c0.4-1.7,1.8-5.3,2.9-6.1c0.2,2.7,4.1,8.3,7.2,9.9c2.2,1.2,3,1.3,5.7,1.3c2.8,0,2.2-4,2.2-6.8
		c0-1.3,0.2-1.6,0.2-2.9c0-7.7,3.1-16.8,7.6-22.9c0.6-0.8,2.1-2.8,2.8-3.3c0.1,1.4,1.2,4.1,1.7,5.3l2.6,4.7c0.9,1.4,1.9,2.9,3,4.3
		l5.9,8.5c3.5,6.4,4.9,10.7,4.9,18.8c0,3.8-1.1,6.7-2.3,9.4l-4.8,6.9c-0.6,0.6-1,0.8-1.6,1.4c-2.8,2.5-6.2,4-9.8,4.9
		c-0.7,0.2-1.8,0.4-2.5,0.5c-4.2,0.4-8.5,0-12.5-1.8c-1.9-0.9-3.9-2-5.4-3.4C74,99.3,69.8,93.7,69.8,85.6z"/>
</g>
</svg>
