<?xml version="1.0" encoding="utf-8"?>
<!-- Generator: Adobe Illustrator 25.2.0, SVG Export Plug-In . SVG Version: 6.00 Build 0)  -->
<svg version="1.1" id="Layer_1" xmlns="http://www.w3.org/2000/svg" xmlns:xlink="http://www.w3.org/1999/xlink" x="0px" y="0px"
	 viewBox="0 0 216 216" style="enable-background:new 0 0 216 216;" xml:space="preserve">
<style type="text/css">
	.st0{fill-rule:evenodd;clip-rule:evenodd;fill:#FFFFFF;}
</style>
<g>
	<path class="st0" d="M50.2,51.6v112.8c0,0.6,0.8,1.4,1.4,1.4h112.8c0.6,0,1.4-0.8,1.4-1.4V51.6c0-0.6-0.8-1.4-1.4-1.4H51.6
		C51,50.2,50.2,51,50.2,51.6 M53.9,53.9h108.1v108.1H53.9V53.9z"/>
	<path class="st0" d="M55.8,57.2v32.6c0,0.6,0.8,1.4,1.4,1.4h32.6c0.6,0,1.4-0.8,1.4-1.4V57.2c0-0.6-0.8-1.4-1.4-1.4H57.2
		C56.6,55.8,55.8,56.6,55.8,57.2 M59.5,59.5h28v28h-28V59.5z"/>
	<path class="st0" d="M124.8,57.2v32.6c0,0.6,0.8,1.4,1.4,1.4h32.6c0.6,0,1.4-0.8,1.4-1.4V57.2c0-0.6-0.8-1.4-1.4-1.4h-32.6
		C125.6,55.8,124.8,56.6,124.8,57.2 M128.5,59.5h28v28h-28V59.5z"/>
	<path class="st0" d="M55.8,126.2v32.6c0,0.6,0.8,1.4,1.4,1.4h32.6c0.6,0,1.4-0.8,1.4-1.4v-32.6c0-0.6-0.8-1.4-1.4-1.4H57.2
		C56.6,124.8,55.8,125.6,55.8,126.2 M59.5,128.5h28v28h-28V128.5z"/>
	<path class="st0" d="M124.8,126.2v32.6c0,0.6,0.8,1.4,1.4,1.4h32.6c0.6,0,1.4-0.8,1.4-1.4v-32.6c0-0.6-0.8-1.4-1.4-1.4h-32.6
		C125.6,124.8,124.8,125.6,124.8,126.2 M128.5,128.5h28v28h-28V128.5z"/>
	<path class="st0" d="M91.2,92.6v30.8c0,0.6,0.8,1.4,1.4,1.4h30.8c0.6,0,1.4-0.8,1.4-1.4V92.6c0-0.6-0.8-1.4-1.4-1.4H92.6
		C92.1,91.2,91.2,92.1,91.2,92.6 M94.9,94.9h26.1v26.1H94.9V94.9z"/>
	<path class="st0" d="M96.8,107.1c0,2.2,0,3.9,1.1,5.9l2.2,3.1c7.2,6.6,19,2.3,19-8.6c0-1.5-0.4-3.2-0.9-4.2
		c-0.2-0.5-0.6-1.2-0.9-1.6c-1.7-2.7-5.2-4.9-8.4-4.9h-1.9C102.1,96.8,96.8,102.1,96.8,107.1 M100.5,108.5c-0.3-1.4,0.7-4,2-5.4
		c4.7-4.9,12.2-2,12.8,4.6c0.2,2.1-1,4.3-2,5.4c-2,2.1-5.1,3.1-8.1,1.9c-1.6-0.6-3.1-2.1-3.9-3.6L100.5,108.5z"/>
	<path class="st0" d="M130.4,132.2c0,1.3,2.8,3.6,4.1,5c1.8,1.8,12.9,12.7,13.6,13.7l-8.6,0c-2.5,0.3-1.8,3.7-0.2,3.7H153
		c1.1,0,1.6-0.5,1.6-1.6v-13.7c0-1.6-3.3-2.2-3.7,0l0,8.8c-1-0.7-13.7-13.5-15.9-15.8c-0.7-0.7-1.5-1.9-2.7-1.9
		C131.1,130.4,130.4,131.1,130.4,132.2"/>
	<path class="st0" d="M137.8,62.8c0,2.8,1.2,2.3,4.4,2.3c1.9,0,3.9,0,5.8,0c-0.7,1-13.5,13.7-15.8,15.9c-0.7,0.7-1.9,1.5-1.9,2.7
		c0,1.1,0.7,1.9,1.9,1.9c1.2,0,1.9-1.1,2.6-1.8c2.2-2.2,15-15.2,16-15.9l0,8.6c0.3,2.5,3.7,1.8,3.7,0.2V63c0-1.1-0.5-1.6-1.6-1.6
		h-13.8C138.7,61.4,137.8,62.2,137.8,62.8"/>
	<path class="st0" d="M65.1,148.1l0-8.6c-0.3-2.5-3.7-1.8-3.7-0.2V153c0,1.1,0.5,1.6,1.6,1.6h13.8c1.6,0,2.2-3.3,0-3.7l-8.8,0
		c0.7-1,13.5-13.7,15.8-15.9c0.7-0.7,1.9-1.5,1.9-2.7c0-1.1-0.7-1.9-1.9-1.9c-1.2,0-1.9,1.1-2.6,1.8
		C78.9,134.4,66.1,147.4,65.1,148.1"/>
	<path class="st0" d="M61.4,63v13.8c0,1.6,3.3,2.2,3.7,0l0-8.8l12.3,12.2c1.3,1.3,3.2,3.7,4.5,3.7c1.1,0,1.9-0.7,1.9-1.9
		c0-1.3-2.4-3.2-3.7-4.5L67.9,65.1l8.6,0c2.5-0.3,1.8-3.7,0.2-3.7H63C61.9,61.4,61.4,61.9,61.4,63"/>
</g>
</svg>
