<?xml version="1.0" encoding="utf-8"?>
<!-- Generator: Adobe Illustrator 25.2.0, SVG Export Plug-In . SVG Version: 6.00 Build 0)  -->
<svg version="1.1" id="Layer_1" xmlns="http://www.w3.org/2000/svg" xmlns:xlink="http://www.w3.org/1999/xlink" x="0px" y="0px"
	 viewBox="0 0 216 216" style="enable-background:new 0 0 216 216;" xml:space="preserve">
<style type="text/css">
	.st0{fill-rule:evenodd;clip-rule:evenodd;fill:#FFFFFF;}
</style>
<g>
	<path class="st0" d="M129.3,101.7c-4.7-3.1-11.1-20.7-3.5-19.7c1.6,0.2,2.1,1,3.2,1.3c-0.2,2.5-1.3,3.4-1.3,9.2
		C127.7,96.5,128.6,98.5,129.3,101.7 M144.1,83.3c0.9-0.2,4.7-3,6.2,0.1c2,4.1-1.3,11.6-3.8,15.2c-0.7,1-1.7,2.5-2.7,3.1
		c0.3-1.3,0.8-2.3,1-3.7c0.7-3.5,0.8-7.3,0.1-10.9C144.7,85.6,144.2,84.6,144.1,83.3z M130.9,93.3c0-3.5,0.1-6.4,1.3-9.5
		c4.5-11.3,10-0.6,10,6.6c0,4.4,0,9.3-2.7,13.1C135.2,109.6,130.9,100.2,130.9,93.3z M49,108.3c0,7.2,0.2,4.9,1.6,10.8
		c-3.9-2.6-10.6-18.1-5-19.8c1.6-0.5,3.5,0.7,4.8,1.3C49.8,103.1,49,105,49,108.3z M65.1,119.1c0.1-1.3,0.8-2.6,1.1-4.2
		c1.5-8.8-0.5-10.1-0.8-14.2c1.6-0.8,4.3-2.7,5.9-0.4c2.1,3.1-0.4,10.4-2.4,13.7C67.1,116.9,67.3,116.5,65.1,119.1z M65.1,119.1
		l64.2-17.4L65.1,119.1z M129.3,101.7l34.8,5.3L129.3,101.7z M57.7,122.7c-3.3,0-5.5-7.4-5.5-11.3v-3.9c0-3.9,2.2-11.3,5.5-11.3
		c4.6,0,5.8,9.7,5.8,14.2C63.5,114.7,61.5,122.7,57.7,122.7z M57.7,122.7l7.4-3.7L57.7,122.7z M175.4,141v0.1c0,0.6-0.4,0.8-1.4,1.3
		c-1.1,0.5-1.7,0.9-2.5,1.7c-8.2,8.1-5.7,19.8-10.3,15.7c0-4.1,3.6-12.6,6.4-16c0.6-0.7,1-0.9,1.5-1.7c-1.7,0.4-3.5,0.5-5,1
		c-7.1,2.2-12.4,7.8-14.5,14.9c-1.1,3.6-0.5,8.5-4.1,6.2c0-7,0.4-11.8,1.4-17.8c0.9-5.6,2.3-10.3,3.9-15.1c0.8-2.5,1.7-4.5,2.6-6.8
		l3.1-6.4c1.5-3,3.6-6,5.6-8.7c0.4-0.5,0.7-0.9,1-1.4c0.4-0.5,0.7-0.8,1.1-1.3c-2.1,0.2-6.3,3.1-8.1,4.5l-3.2,2.8
		c-0.4,0.4-0.5,0.7-0.9,1.2c-6.4,6.6-10.5,15.6-12.9,24.5c-0.5,1.7-0.8,5.5-2.7,5.5c-2-0.5-1.7-2.5-2-4.9
		c-1.3-9.4-2.5-17.8-8.1-25.6c-1.4-1.9-4.8-5.6-7.3-6.2c0.7,1.3,1.3,2.3,2,3.8c5.7,11.5,6.7,20.7,6.7,33.3c0,2.2-0.8,11.3-1.5,13
		c-0.3,0.7-2,2.2-3.1-0.8c-2.4-6.2-3.8-13.4-3.8-21.4c-0.9,0.6-2.3,3-3,4.1c-4.8,8.6-2,14.6-2,17.7c-0.7,0.5-1.2,1.3-2.3,0.5
		c-0.5-0.4-0.9-1.3-1.2-2c-3.3-6.7-6.5-17.8-7-25.4l-0.3-6.2c-0.1-0.8-0.2-1.7-0.2-3c0-1.3,0.3-1.5,0.3-2.9c-1,1.1-3,7.1-3.5,8.4
		c-0.9,2.8-1.8,6.3-2.3,9.5c-0.6,3.2-1.3,13.3-0.8,17c0.4,3,0.6,3.1-0.3,4.5h-1.6c-1-1.5-0.6-0.4-0.9-2.7
		c-1.2-8.8-4.2-21.1-10.2-27.5c-1.7-1.8-5.5-5.4-8.1-5.6c0.1,0.9,1.3,3.5,1.7,4.6c3.7,9.7,5.1,21.2,3.6,31.8c-0.3,2.3-0.2,3-1.4,4.7
		c-1.7,0-1.9-0.2-2.5-1.5l-3.6-8.3c-1.1-2.8-2-6.1-2.7-9.1c-0.3-1.3-0.1-2.1-0.9-2.7c-0.4,1.6-1.3,3.3-1.8,4.8c-0.5,1.6-1,3.4-1.3,5
		c-0.5,3.4,0.1,10-0.3,12c-4.2,2-2-4.9-7.4-12.4c-0.4-0.6-0.7-0.8-1.2-1.4c-2.5-3.3-7.6-5.9-12-5.9c0.6,0.9,1.5,1.8,2.1,2.6
		c5.4,7.5,7.9,14.9,7.9,25c29.9,0,59.9,0,89.8,0c5,0,26.5-0.4,29.6,0.3l-0.1,2.4c-0.5,0.1-1.1,0.2-1.9,0.3h-14.7h-1.3h-1.3h-1.3
		h-1.3H152h-1.3h-1.3H148h-1.3h-1.3h-1.3h-1.3h-1.3h-1.3h-1.3h-1.3h-1.3h-1.3h-1.3h-1.3h-1.3h-1.3h-1.3H127h-1.3h-1.3H123h-1.3h-1.3
		h-1.3h-1.3h-1.3h-1.3h-1.3h-1.3h-1.3h-1.3h-1.3h-1.3h-1.3h-1.3h-1.3h-1.3h-1.3h-1.3H98h-1.3h-1.3H94h-1.3h-1.3h-1.3h-1.3h-1.3h-1.3
		h-1.3h-1.3h-1.3h-1.3h-1.3h-1.3h-1.3h-1.3h-1.3H44c-1.6-0.1-2.7-0.1-3.2-0.3l0.1-2.4c3.2-0.7,8.2-0.3,11.8-0.3
		c0-4.1-0.1-6.5-0.9-9.9c-0.8-3.2-1.6-5.3-2.9-7.9c-1.2-2.5-2.6-4.5-4.2-6.6c-2.5-3.4-4.4-3.6-3.8-6.2c1.9-0.9,2.2-0.5,4.2-0.3
		c8.1,0.7,9,3.1,11.3,3.7v-19.5c-5.3-0.4-9.6-6-12.1-10.1c-7.5-12.4-2.9-24.7,7.3-17.9c0.5-2.1,3.6-4.9,6.1-4.9
		c2.6,0,5.6,2.5,6.1,4.7c1.9-0.2,2.8-1.7,5.8-1.6c7.2,0.3,5.7,10.5,4,14.8c-0.7,1.8-1.5,3.4-2.4,5c-2.8,4.7-6.4,8.7-11.9,10
		c0,5.4,0,10.7,0,16.1c0,2.2-0.5,5.5,0.9,7c0.7,0.8,1.2,1.4,1.8,2.2c0.5,0.7,1,1.9,1.6,2.4c0.5-5.6,2.7-11.3,5.9-15.7
		c1.2-1.7,3-1.5,3.3,0.9c0.2,1.3,0.2,1.8,0.4,3c0.4,2.3,3.4,14.3,5.2,15.6c0-2.2,0.3-3.4,0.3-5.5c0-5-0.7-10.4-1.7-15.2
		c-0.6-2.9-1.6-6-2.6-8.7c-0.9-2.3-3-5.8-3-8c1.7-1.1,2.1-0.8,4.4-0.2c8.3,2.4,13.7,10,16.8,17.7c0.4,1.1,0.9,3.2,1.7,3.8
		c0-4.7,1.2-9,2.4-13.4c0.8-2.8,6.3-17.1,8.9-17.2c2.1,0.5,1.5,1.7,1.3,3.7c-1.1,9.7-0.4,19.8,2.3,29c0.3,1.1,1.1,3,1.1,4.2
		c0.9-0.7,0.3,0.1,0.6-1.2c0.9-4,2.6-7.8,5.1-11c0.6-0.8,0.9-1.1,1.5-1.9c1.2-1.5,2.3-2.7,4.4-2.7c1.4,2,0.5,2.1,0.5,5
		c0,5.1,0.2,8.3,1.2,13.3c0.1,0.5,0.1,0.8,0.3,1.3c0,0.1,0.2,0.5,0.2,0.6l0.2,0.4c0-0.9,0.2-2.2,0.3-3.4l0.3-7.1
		c0-1.6-0.2-2-0.3-3.4c-0.2-9.3-3.2-17.8-7.4-25.8c-2-3.9-3.7-4.5-3.7-7.1c0.8-0.6,0.9-0.8,1.9-0.6c4.1,0.8,7.8,3.4,10.7,6.2
		c2.6,2.5,4.4,5.6,6.1,8.9l3.2,8.4v-19c-3.5-0.1-7.2-3.7-9-5.7c-4.2-4.8-9.2-15.3-5.6-21.3c2.4-4.1,6.6-2.6,9.9-0.9
		c4.3-8.1,11.3-4.2,12.4,0c1.2-0.6,3.6-2,5.5-1.8c9.8,0.8,4.9,17.5-1.3,24.1c-2.3,2.4-5.2,5.5-8.9,5.6v23.7l0.7-1.4
		c3.3-8.6,8.6-16.6,16-22.2c1.6-1.2,3-2.2,4.8-3.1c1.2-0.6,10.7-5.5,11.1-1.7c-0.4,1.8-2.7,3.1-3.8,4.6l-3.7,4.7
		c-2.4,3.4-4.3,7-6.1,10.8c-2.6,5.6-7.3,20.5-7.5,26.2c0.6-0.5,1.5-1.8,2.2-2.6c5.9-6.2,14.7-10,23.4-8
		C175.3,140.2,175.4,140.7,175.4,141z M65.1,119.1l10.5,4.2L65.1,119.1z"/>
	<path class="st0" d="M53.8,49.3c0-9,7.9-6.4,9.2,2.6c1,6.8-0.8,5.7-2.1,11.3c-0.9-0.2-2-1.9-2.6-2.7C55.8,57.1,53.8,54.2,53.8,49.3
		 M43.8,60.3c0-2,1.2-2.7,3.5-2.5c1.6,0.2,3.3,0.6,4.3,1.2c2.2,1.2,4.4,3.5,5.8,5.5c-1.4,0.4-3.8,4-10.2,0.2
		C46.1,64,43.8,62,43.8,60.3z M64,63.8c0-5.6,6.4-6,9.3-2.4C81.2,71.5,64,72.1,64,63.8z M40.6,60.9v-1.3c0.5-3.9,5.7-6.4,11.3-3.7
		c-1.1-4.5-1.1-2.5-1.1-7.6c0-7.6,8.6-11.4,13.3-2.2c1.9,3.7,2,4.9,2,10.4c0.6-0.3,1.5-0.5,2.4-0.5c0-2.2-1.2-4.4,1.5-8
		c3-4.1,5.6-3,5.2-1.1c-0.3,1.5-3.8,2.1-3.8,5.9c0,3.5,0.1,1.7,0.5,3.4c1.2-0.9,0-1.3,2.8-4c1.7-1.6,6.4-2.9,6.4-0.2
		c0,2.1-2.7,1.2-4.3,2.3c-1.2,0.9-1.9,2.5-2,4.3c0.7,1.1,1.5,1.6,2.2,3.1c1.9,3.7,1.9,8.2-2.2,10.1c-1.8,0.8-2.1,0.2-2.6,1.6l-1,2.9
		c-3.4,8.4-16.5,15.4-22.5,9.2c-5.5-5.7,1.3-13.9,2.4-16.1c-2.6-0.6-4.9-1.6-6.8-3C42,64.5,40.8,62.6,40.6,60.9z M49.8,80.6
		c0-5.4,3.3-9.7,7.3-12.4c2.7-1.8,2.4-1.2,4.3-2c0.8,3.6,4.5,5.5,7.9,6.3C66.7,83.7,49.8,89,49.8,80.6z"/>
	<path class="st0" d="M89,71.9c-2.2-1.1-4.8-2.6-7.7-1.1c-1,0.5-1.9,1.5-2.4,2.6c-4.2,8.7,6.9,26.3,14.8,26.4v9
		c0,1.6,3.2,2.2,3.2-0.5v-8.4c5.6-0.1,11.7-8.6,13.7-13.5c1.8-4.3,4-13.5-1.8-15.8c-1.7-0.7-3.9-0.4-5.6,0.5
		c-0.8,0.4-0.8,0.6-1.8,0.9c-0.2-1-1.3-2.3-2-3c-1.3-1.3-2.5-1.8-4.3-1.8C92.1,67.2,90.3,70.1,89,71.9 M102.7,74.8
		c8.1-5.5,8.2,4.1,4.4,11.8c-0.9,1.8-3.2,5.7-4.7,6.7c1.6-7,1.6-3.3,1.6-11.6C104.1,79.7,103.4,76.1,102.7,74.8z M88,93
		c-0.6-0.4-1.4-1.6-2-2.3c-5.1-6.7-7.3-18.3-1.5-17.4c1.7,0.2,2.1,1,3.2,1.3c-0.1,2.7-2.7,7.8-0.4,16.2C87.6,91.6,87.9,92,88,93z
		 M89.6,83.8c0-12.1,6.6-18.6,10.2-8.4c4.4,12.5-3.4,30-8.8,16.7C90.1,89.9,89.6,86.7,89.6,83.8z M89.6,83.8L88,93L89.6,83.8z"/>
	<path class="st0" d="M165.9,58.8c0-9.8-12.7-11.5-16-3.8c-1.5,3.5-0.6,7.1,1.5,9.3C156.7,69.8,165.9,65.6,165.9,58.8 M152.2,58.2
		c0-2.8,2.7-5,4.5-5h1.3c2.4,0,4.7,2.3,4.7,4.7c0,1.7,0,2.9-1.6,4.4C158.1,65.2,152.2,63.7,152.2,58.2z"/>
	<path class="st0" d="M155.9,42.4c0,2.6-0.4,4.2,1.8,4.2c1.8,0,1.3-2.9,1.3-4.7c0-0.7-0.6-1.2-1.3-1.3h-0.5
		C156.5,40.7,155.9,41.3,155.9,42.4"/>
	<path class="st0" d="M155.9,72.2c0,1.3-0.3,4.2,1.6,4.2c2.3,0,1.6-4.4,1.3-5.8C157.4,69.9,155.9,70.2,155.9,72.2"/>
	<path class="st0" d="M139.6,58.5c0,1.9,2.9,1.6,4.2,1.6c2,0,2.3-1.4,1.6-2.9C144,56.9,139.6,56.2,139.6,58.5"/>
	<path class="st0" d="M169.3,58.2c0,2.1,1.5,1.8,3.7,1.8c1.5,0,2.2-0.6,2.4-1.2v-0.7c-0.1-0.7-0.7-1.3-1.3-1.3
		C172.2,56.9,169.3,56.5,169.3,58.2"/>
	<path class="st0" d="M148,50.6c3.8,0-0.1-5.3-2.1-5.3c-1.8,0-1.9,1.7-0.7,2.8C145.7,48.7,147.3,50.6,148,50.6"/>
	<path class="st0" d="M165.4,49c0,0.7,0.8,3,3.8,0.1c3-3,0.7-3.8,0.2-3.8C167.8,45.3,165.4,48.2,165.4,49"/>
	<path class="st0" d="M145.6,71.7c3.2-0.7,5.6-5.3,2.6-5.3c-1.3,0-2.4,1.4-3.1,2.2C144,70,144.4,70.6,145.6,71.7"/>
	<path class="st0" d="M165.4,67.7c0,1.2,2.6,3.4,3.7,4c2.1-1.1,2.2-1.7,0.2-3.6c-1.2-1.2-1.1-1.6-2.6-1.6
		C166.1,66.4,165.4,67.1,165.4,67.7"/>
	<path class="st0" d="M158.8,166.5c0,1.1,0.8,2.1,1.8,2.1c1.1,0,2.1-0.8,2.1-1.8C162.8,163.8,158.8,164.2,158.8,166.5"/>
	<path class="st0" d="M93.3,116.7c0,2.3,4,2.7,4-0.3c0-0.9-1.2-1.8-2.1-1.8C94.2,114.7,93.3,115.6,93.3,116.7"/>
	<path class="st0" d="M67.5,62.7c0,3.1,3.7,4.1,3.7,0.8C71.1,61.9,67.5,60.7,67.5,62.7"/>
</g>
</svg>
