<?xml version="1.0" encoding="utf-8"?>
<!-- Generator: Adobe Illustrator 25.2.0, SVG Export Plug-In . SVG Version: 6.00 Build 0)  -->
<svg version="1.1" id="Layer_1" xmlns="http://www.w3.org/2000/svg" xmlns:xlink="http://www.w3.org/1999/xlink" x="0px" y="0px"
	 viewBox="0 0 216 216" style="enable-background:new 0 0 216 216;" xml:space="preserve">
<style type="text/css">
	.st0{fill-rule:evenodd;clip-rule:evenodd;fill:#FFFFFF;}
</style>
<g>
	<path class="st0" d="M95.7,93.6c0,8,4.2,14.4,8.2,18.5c3.2,3.2,7.9,6.2,12.5,7.4c9.7,2.5,18.8-1.2,25.7-6.7l4.3-3.8
		c0.6-0.7,0.7-0.9,1.3-1.5c7.3-7.2,15.2-23.3,15.2-34.3c0-6.3-0.9-11.1-5-15.2c-12-12.1-37.3,0.2-46.3,7.5c-1,0.8-2,1.6-2.9,2.5
		c-3.9,3.9-4.6,4.4-7.6,8.9C98.5,80.8,95.7,87.1,95.7,93.6 M144,55.7h0.7v0.5C144,56,144.4,56.2,144,55.7z M132.8,58.1
		c0.9-1.3,2.9-1.5,5.1-1.9c2.1-0.3,2.9-0.8,4.6,1.8c-0.4,0.6-4.1,4.5-5,4.7L132.8,58.1z M146.3,58.1l1.9-2c2.6,0.3,5.3,1.8,6.9,2.9
		c-0.5,0.8-3.2,3.6-4,3.8L146.3,58.1z M124.1,62.8c-0.6-0.4-1-0.6-1.2-1.4l5-2.1c-0.5,0.7-1.1,1.2-1.7,1.8
		C125.5,61.7,125.1,62.5,124.1,62.8z M117.5,69.6l-2.9-2.8c0.8-1.1,4.6-3.4,6-4.1l1.7,1.9C122,65.5,118.3,69,117.5,69.6z
		 M126.2,64.7l4.7-4.8l4.9,4.7c-0.3,0.9-3.9,4.4-4.8,5c-0.9-0.6-2.6-2.5-3.6-3.5C126,64.8,126.6,65.3,126.2,64.7z M139.7,65
		c0.4-1.2,1.5-1.8,2.2-2.6c0.9-0.9,1.6-1.8,2.5-2.4l4.8,4.7c-0.3,0.9-3.9,4.4-4.8,5L139.7,65z M153.2,65c0.3-0.9,3.1-3.6,3.9-4.1
		c1.1,1.7,2.6,4.4,2.8,6.9l-1.8,1.9L153.2,65z M146.4,71.3l4.7-4.6c0.9,0.3,4.4,3.9,5,4.8l-4.7,4.8
		C150.3,75.6,147.2,72.5,146.4,71.3z M110.7,76.3l-3.2-3.1c0.6-1.1,1.3-1.8,2.3-2.6c1-0.8,1.6-1.5,2.5-2.2l3.1,3L110.7,76.3z
		 M119.4,71.5l4.7-4.8c0.9,0.3,4.4,3.9,5,4.8l-4.7,4.8c-1.2-0.4-1.8-1.5-2.6-2.2C120.9,73.2,120,72.5,119.4,71.5z M132.9,71.5
		l4.7-4.8c1.2,0.3,1.8,1.5,2.6,2.2c0.9,0.9,1.8,1.6,2.4,2.5l-4.7,4.8C137,76,133.5,72.4,132.9,71.5z M159.9,71.3h0.5V72
		C159.4,71.4,160.2,72,159.9,71.3z M158,83.1l-4.8-4.7c0.3-0.9,3.9-4.4,4.8-5c2.8,1.9,2.3,2.9,1.2,7.4C158.9,82.2,159,82.4,158,83.1
		z M103.8,83.2l-2-2.1c0.3-1.1,3.1-5.2,3.8-5.7l3.1,3L103.8,83.2z M117.4,73.4l4.9,5l-4.7,4.8l-5-4.8L117.4,73.4z M126.2,78.2
		l4.7-4.8l4.9,4.7c-0.3,0.9-3.9,4.4-4.8,5C129.8,82.4,126.9,79.5,126.2,78.2z M139.7,78.5c0.3-1,3.9-4.5,4.8-5l4.8,4.7
		c-0.4,1.2-1.5,1.8-2.2,2.6c-0.9,0.9-1.6,1.8-2.5,2.4L139.7,78.5z M99.3,87.7c0-1.3,0.8-2.8,1.1-4.1l1.5,1.4L99.3,87.7z M105.8,85.1
		l4.7-4.9l5.1,5l-4.9,4.7L105.8,85.1z M119.3,85.1l4.7-4.9l5.1,5l-4.9,4.7L119.3,85.1z M132.8,85.1l4.7-4.9c1.2,0.4,1.8,1.5,2.6,2.2
		c0.9,0.9,1.8,1.6,2.4,2.5l-4.9,5L132.8,85.1z M151.3,80.2l4.9,4.7l-4.8,5l-4.9-4.7L151.3,80.2z M151.3,80.2l5.3,8.3L151.3,80.2z
		 M156.6,88.6c-0.1,1-1.5,3.7-1.9,4.5c-0.8-0.2-1-0.6-1.4-1.2L156.6,88.6z M103.8,87l5,4.9l-4.7,4.9l-5-4.9L103.8,87z M117.4,86.9
		l4.9,5l-4.7,4.9l-5-4.9L117.4,86.9z M126.2,91.7l4.7-4.8c0.6,0.4,4.5,4.1,4.8,5l-4.7,4.8C129.9,95.9,127,93,126.2,91.7z M139.7,92
		c0.4-1.2,1.5-1.8,2.2-2.6c0.9-0.9,1.6-1.8,2.5-2.4l4.8,4.7c-0.3,0.9-3.9,4.4-4.8,5L139.7,92z M149.2,101.4l-2.9-2.8l4.7-4.9
		c1.1,0.3,1.4,1.2,2.2,1.7C152.5,96.8,150.3,100.6,149.2,101.4z M98.5,95.2l3.5,3.4l-2.3,2.4C99.3,99.2,98.6,97.2,98.5,95.2z
		 M105.8,98.6l4.7-4.9l5,4.8l-4.7,4.9L105.8,98.6z M119.3,98.6l4.7-4.9c1.2,0.3,1.8,1.5,2.6,2.2c0.9,0.9,1.8,1.6,2.4,2.5l-4.8,4.9
		L119.3,98.6z M132.8,98.6l4.7-4.9c1.2,0.3,1.8,1.5,2.6,2.2c0.9,0.9,1.8,1.6,2.4,2.5l-4.8,4.9L132.8,98.6z M100.9,103.5l3-3.1l4.9,5
		c-0.6,0.8-1.2,1.3-1.9,2s-1.2,1.6-2.2,1.8c-0.2-0.7-1.1-1.4-2-2.7C102,105.4,101.5,104.5,100.9,103.5z M142.8,108.5
		c-0.6-0.4-1-0.9-1.6-1.5c-0.6-0.6-1.2-1-1.5-1.8l4.7-4.8l3.2,3.1c-1.3,1.8-1.3,1.5-2.2,2.7C144.6,107.2,144,107.7,142.8,108.5z
		 M112.7,105.2l4.6-4.7l5,4.9l-4.7,4.9C116.3,109.4,113.5,106.5,112.7,105.2z M126.2,105.5l4.7-4.9l4.9,4.7l-4.7,4.9L126.2,105.5z
		 M135,114.2l-2.2-2.1l4.9-4.7l3.1,3C140.1,111.1,136.1,113.9,135,114.2z M110.6,107.3l5,4.9l-3.1,3l-4.3-2.9
		c-0.6-0.5-0.5-0.8-1.4-1c0.3-1,1.1-1.4,1.7-2.1C109.2,108.5,109.8,107.8,110.6,107.3z M119.3,112.1l5-4.9l4.7,4.9l-4.7,4.9
		L119.3,112.1z M128.4,116.8l2.6-2.7l1.5,1.4C131.1,115.9,129.6,116.7,128.4,116.8z M117.4,114.1l3.4,3.3c-1.5,0.1-4.5-0.7-5.5-1.1
		L117.4,114.1z"/>
	<path class="st0" d="M124.6,123.2c-4.2,0-7,0.1-11.1-1.5c-4-1.5-4-1.9-8.6-1.9c-3.6,0-7,1.9-9,3.5c-3,2.4-17.1,17.6-19.1,19l-3-3.1
		c1.2-1.9,16-15.7,18.8-19c2.5-3,3.6-6.2,3.6-10.6c0-5-3.3-8.3-3.3-14.4c0-8.8,1.3-13.5,6-20.5c1.6-2.4,3.4-4.2,5.2-6.4
		c1.5-1.8,7.2-6.3,9.4-7.8c10.2-6.9,27.5-13.6,39.6-8.9c1.3,0.5,2.6,1,3.7,1.7c12.5,7.8,10.1,26.2,5,37.5c-2.6,5.9-4.7,9.6-8.5,14.7
		c-1.8,2.4-3.4,4-5.5,6.1l-4.5,4c-0.9,0.6-1,0.7-2.2,0.9c-2.1,0.3-2.7,0.6-4.2,1.4c-0.6,0.3-1.2,0.6-1.7,1.1
		c-0.3,0.3-0.4,0.4-0.7,0.7c0,0-0.1,0.1-0.1,0.1c0,0-0.1,0.1-0.1,0.1c-1.6,1.6-0.9,1.5-4.5,2.4C128.1,122.7,126.4,123.2,124.6,123.2
		 M152.8,128.1v0.9h-19.7c0-9,10.3-13.1,16.4-7.6C151,122.8,152.8,125.4,152.8,128.1z M133.1,131.7h19.7v3.3h-19.7V131.7z
		 M150.2,137.8h3.3c0.4,1.8,1.6,3.6,2.3,5.3l2.4,5.4c0.9,1.8,4.6,9.6,4.6,11.1c0,3.5-4.3,5-6.5,2.5c-0.7-0.8-0.9-1.8-1.2-3.1
		c-0.6-2.5-1-4.7-1.6-7.2L150.2,137.8z M132.6,137.8h3.1l-3.3,14.9c-0.7,3.5-1.2,8.9-3.4,10.1c-2.3,1.2-5,0.2-5.6-2.4
		c-0.5-1.9,2.5-7.2,3.6-9.8c0.9-2.2,1.9-4.3,2.9-6.4L132.6,137.8z M56.4,166c-3.9,0-6.4-2.5-6.4-6.4c0-2.6,2.2-4.5,3.6-5.9
		c1.8-1.8,13.6-14.3,14.9-14.3c2.6,0,2.7,0.9,4.9,3.1c2.2,2.2,3.1,2.3,3.1,4.9c0,1.1-12.5,13.1-14.1,14.7
		C60.9,163.7,59,166,56.4,166z M139,137.6h2.6v22c0,5.4-8.8,4.7-7.9-0.6c0.6-3.6,2.4-10.4,3.2-14.6l1.2-5.4
		C138.3,138.4,138.2,137.6,139,137.6z M47.4,160.2v-0.8c0.1-1.6,0.6-3.2,1.6-4.6l14.9-14.9c3.3-3.3,3.4-3.6,7.9-2.5
		c0.7-1.1,10.3-10.4,12.1-12.3c4.6-4.6,9.6-8.2,9.6-14.5c0-6-3.5-8.2-3.5-17.5c0-13.7,9.8-25.3,17.6-31.5
		c7.1-5.6,11.1-7.8,19.6-11.2c3.9-1.6,10.7-3.1,15.2-3.1c6.4,0,13.4,0.9,18.1,5.2c1.8,1.7,2.7,2.4,4.2,4.6c3.8,5.6,4.1,10.4,4.1,17
		c0,12.2-7.5,25.8-14.3,34.5c-1.7,2.2-7.9,8.1-8,8.2c1,0.5,1.8,0.6,2.8,1.2c4.6,2.7,6.4,7.1,6.4,12.5c0,7.4-0.5,4.3,1.8,9.8
		l5.9,13.1c1.5,3.5,2.1,3.6,2.1,6.9c0,5.1-8,8.2-11.4,3.1c-0.8,0.5-1.2,1.2-2.1,1.7c-2,1.2-4.9,1.2-6.9,0.1c-1-0.6-1.1-1-2-1.6
		c-0.9,0.6-2.3,2.4-4.7,2.4c-4.6,0-4.3-1.4-6.2-2.6c-3.3,4.9-11.6,2.4-11.6-3.8c0-2.1,2.4-6.4,3.1-8.3l3.5-7.8
		c0.6-1.3,1.1-2.6,1.7-3.9c0.3-0.7,0.6-1.3,0.9-2c0.4-0.8,0.7-1,0.7-2.1c0.2-3.5-0.5-8.2,0.7-10.7c-15.5,3.6-19-2.4-25.3-2.4
		c-3.6,0-6.9,1.7-8.8,3.5c-2.6,2.6-17.1,17.4-18.4,18.3c0.8,3.6,1.5,4.1-2.4,8l-11.8,11.8c-3.3,3.3-4.3,4.6-8.9,4.6
		C50.8,168.6,47.6,164.5,47.4,160.2z M144.2,158.9v-21.1h3.3l3.6,16.3c0.3,1.4,1.1,4.1,1.1,5.7C152.3,164.2,144.2,165.3,144.2,158.9
		z"/>
</g>
</svg>
