<?xml version="1.0" encoding="utf-8"?>
<!-- Generator: Adobe Illustrator 25.2.0, SVG Export Plug-In . SVG Version: 6.00 Build 0)  -->
<svg version="1.1" id="Layer_1" xmlns="http://www.w3.org/2000/svg" xmlns:xlink="http://www.w3.org/1999/xlink" x="0px" y="0px"
	 viewBox="0 0 216 216" style="enable-background:new 0 0 216 216;" xml:space="preserve">
<style type="text/css">
	.st0{fill-rule:evenodd;clip-rule:evenodd;fill:#FFFFFF;}
</style>
<g>
	<path class="st0" d="M154.7,53.8c0,1.9,1.5,1.8,2.3,1.8c0.6,0,2.8-2.8,5.1-0.3c2.3,2.6-0.9,4.9-3,7c-1.6,1.6-3,3-4.6,4.6
		l-24.8,24.8c-0.6,0.6-2,1.7-2,2.6c0,1,0.7,1.8,2.1,1.8c1.4,0,2.2-1.6,3.2-2.3c1.9,3.9-3.4,9.5-5.9,12c-1.6,1.5-8.2,5.5-10.2,6.7
		c-4.6,2.8-1.7,0.8-9.1,0.8c-0.9,0-1.6,0.9-1.6,1.8c0,2.6,4.4,2,8.8,2.8l9.6,2.1c2.7,0.6,6.6,1.4,9.3,2.4c4.9,1.9,7.4,3,5.8,9.8
		l-1.2,5.9c-0.2,0.8-0.5,2.1-0.6,3h-6l0.9-8.9c0-1.8-3.4-1.5-4.3-1.7c-1.5-0.2-3.7-0.4-5.6-0.4c-1.3,0-1.5-0.2-2.7-0.2
		c-7.8-0.1-17.9,1.3-21.4-5.8c-1.1-2.2-2-7.5-0.3-9.3l2.7-2.1c4.5-3.4,2.3-5,0.7-5c-1.2,0-3.2,2.3-5,3.7c-0.6,0.4-1.2,0.7-1.9,1.1
		c-5.1,3.2-13,10.1-18.1,14.4c-0.6,0.5-1,0.9-1.6,1.3c-1.1,0.9-2.1,1.8-3.1,2.6c-4.4,3.4-3.8,3.5-10.1,7.7c-2.4,1.6-4.7,3.1-7.1,4.8
		c-3.4,2.3-5.4,2.9-5.4,7.6c0,1.4,3.3,9.6,4.1,10.8c-2.1,0-4.1-0.3-4.1,1.8c0,1.1,0.7,1.8,1.8,1.8h113.5c1.1,0,1.8-0.7,1.8-1.8
		c0-1.8-1.4-1.8-3.2-1.8l-15.1,0c-1.1-4.8-5.4-5.7-9.6-6.6l2.7-12.8c0.7-3.3,2.5-10.8,2.5-13.9c0-2.4-1.5-5.1-2.8-6.4
		c-2.3-2.3-9.9-4.6-13.3-5.2c-1.4-0.3-2.7-0.5-3.9-0.7c-1.3-0.2-2.8-0.7-4.1-0.7c0.4-0.5,3-2.1,3.9-2.7c2.7-1.7,4.1-2.4,6.5-4.9
		c3.3-3.3,6.7-7.2,6.7-12.5c0-1.9-0.8-2.9-1.1-4.3c0.7-1.1,24.9-25,27.7-27.9c2.5-2.5,2.9-3.3,2.9-6.5c0-3.3-3-6-7.3-6
		C157.5,50.6,154.7,52,154.7,53.8 M71.8,142.8c-0.4-1.8-1.4-3.3-1.8-5c0.6-0.9,9-7.7,10.1-8.7l2.8-2.4c3.5-2.7,7-6.2,10.6-8.6
		c0,3.5,1.1,7.6,3,10c1.2,1.5,2,2,2.2,2.4l-13.6,6c-2.4,1-4.4,2.2-6.7,3.1C76.8,140.3,73,142.5,71.8,142.8z M125.6,158.6
		c0,2.6,0,1.3,0.5,3.2H64.7c0-2.3-1.4-6.8-1.4-9.2l6.7-4.3c0.9-0.5,1.6-1,2.4-1.4c1.7-0.9,3.2-1.7,5-2.6l15.3-7.1
		c1.8-0.8,3.4-1.5,5.3-2.3c6.5-3,4.2-2.6,7.9-1.8c3.8,0.9,11.5,0.2,16.4,0.7c1.8,0.2,4.4,0.4,6.4,0.4l-0.7,6.2
		c-0.2,2-0.5,4.1-0.7,6.2c-0.2,2-0.5,4.1-0.7,6.1C126.4,155.2,125.6,157.3,125.6,158.6z M60.9,161.8c-4.8-0.4-4.9-3.9-7-9
		c-1.7-4.3,0-4.3,6.3-8.4c1.1-0.7,5.9-4.1,6.7-4.3c0.2,0.8,0.6,1.6,0.9,2.3c0.3,0.9,0.6,1.7,1,2.5l-4.3,2.6c-5.9,4-5.5,2.1-4.5,8.2
		C60.2,157.5,60.9,159.8,60.9,161.8z M144.2,161.8c-2.8,0-5.6,0-8.5,0c-1.8,0-4.3,0.4-5.6-0.8c-1.7-1.7-0.2-3.3,0.5-8.4
		c0.2-1.3,0.2-2.4,0.4-3.7c0.2-1.3,0.3-2.4,0.3-3.8h5.5c0,1.6-2.4,10.8-2.2,11.8C135.3,159.9,142.2,158.1,144.2,161.8z"/>
	<path class="st0" d="M137.1,70.5c0-5.7,0.2-7.7-2.4-11.1c-2.8-3.7-8.1-5.6-12.8-4.3c-0.9,0.2-1.4,0.6-2.2,0.8c-1.7-1.1-1.5-3-6.4-3
		c-2.2,0-4.2,1.7-5.1,3.1c-0.7,1.1-2,5.1-2,6.9c0,3.5,2.9,6.2,6.9,6.2c0,3.1,2.2,8.1,4.1,9.4c-0.8,3.6-2,7-3.3,10.2l-4,7.9
		c-1.3,2.2,0.4,3.3,1.3,3.3c1.3,0,1.6-0.8,2.1-1.7c2.4-4.1,4.7-9,6.1-13.6c0.3-0.9,0.6-2.5,0.9-3.2c0.3,0.1,3.2,1.4,3.7,2.1
		c-0.9,1.3-3,2.2-3,4.1c0,1.4,1.3,2,2.3,1.7c1.1-0.4,22.4-22.1,24.5-24.3c4.3-4.3,7.5-14.5,3.4-14.5c-1.5,0-2,0.7-2.1,2.3
		c-0.3,6.8-3.7,9.3-7.8,13.4C140.3,67.4,138.2,69.7,137.1,70.5 M113,65.2c-1,0-1.8,0.1-2.6-0.9c-1.2-1.4-0.3-3.1,0.6-5.4
		c1.7-4.3,5.6-1.9,5.6,0.4c0,0.3-1,3.2-1.2,3.6C115.2,63.9,114.4,65.2,113,65.2z M133.4,65.7l0,7.6c0,1.2-0.1,1.1-0.8,1.8
		c-1.4,1.3-3.9,4.2-5.2,5.1c-2.7-0.6-3.9-1.2-5.9-2.5c0.2-2,2.6-4.3,1.1-5.9c-0.5-0.6-2.4-1-3.1,0.4c-0.3,0.5-0.6,1.4-0.7,2h-0.5
		c-0.3-1.3-1.6-2.9-1.6-6.2c0,0,1.3-1.5,1.5-1.9l1.9-4.9c0.4-1.4,0.1-1.4,1.5-1.9c3.7-1.5,8.2-0.2,10,2.4c-0.4,1.5-3,3-4.6,3.4
		c-1.6,0.5-5.6,0.2-4.6,3c0.4,1.2,1.4,1.3,2.4,1.2c1.7-0.2,2.1-0.1,3.5-0.6C132,67.3,132.2,66,133.4,65.7z"/>
	<path class="st0" d="M105,104.1c0,2.4,3.1,2.8,3.9,0.3C109.8,101.7,105,101.1,105,104.1"/>
</g>
</svg>
