<?xml version="1.0" encoding="utf-8"?>
<!-- Generator: Adobe Illustrator 25.2.0, SVG Export Plug-In . SVG Version: 6.00 Build 0)  -->
<svg version="1.1" id="Layer_1" xmlns="http://www.w3.org/2000/svg" xmlns:xlink="http://www.w3.org/1999/xlink" x="0px" y="0px"
	 viewBox="0 0 216 216" style="enable-background:new 0 0 216 216;" xml:space="preserve">
<style type="text/css">
	.st0{fill-rule:evenodd;clip-rule:evenodd;fill:#FFFFFF;}
</style>
<g>
	<path class="st0" d="M101.7,55.6c0,4.5,1,7.6,2.9,10.6c1.4,2.3,1.5,1.4,1.4,5c0,2.1,0,4.3,0,6.4c-1.2-0.8-2.1-1.9-3.1-3
		c-2.3-2.3-1.2-1-2.1-4.3C97,56.6,80.5,52.1,80.5,57.2c0,7.4,5.2,14,11.7,17.1c4.6,2.1,4.7,0.4,7.3,3.1l5.4,5.3c1.5,1.5,1,2.3,1,6.1
		c-2-1.3-12.9-13.1-14.8-6.2c-0.3,0.9,1.1,4,1.7,6.5c-2.7-1.8-3.4-2.7-6.8-4.6c-2.2-1.2-6.4-3.4-8.9-3.4c-1.2,0-2.1,1.2-2.1,3.1
		c0,2.1,7.2,8.8,8,12l-8.6-0.3c-3.1,0-5,0.4-7.9,0.4c-0.8,0-0.6,1.1-1.3-2.2c-1.5-6.3-1.9-12.9-8.2-12.9c-2.1,0-4.3,1.7-5.2,3.1
		c-1.1,1.8-0.9,4.1-0.6,7c1.5,13.6,0,30.2,8.1,41.9c3.5,5,8,7.9,12.5,12.4c3,3,5.2,5.5,7,9.6c2.6,5.8-2.2,19,6.1,19h46.6
		c8,0,4.1-12.6,5.5-17.2c0.9-3,3.6-7.2,5.6-9.4l13.5-13.1c1.6-2.2,3.1-4.6,4.1-7.2c1.4-3.8,2.3-7.8,3-12.3c0.3-2.2,0.6-4.4,0.7-6.6
		c0.1-2.1,0.5-5,0.6-7c0.3-5,0.6-9.6,0.6-14.7c0-5.1-10-8.6-12.2,0.4c-0.4,1.7-0.8,3.4-1.2,4.9c-0.3,1.3-0.8,3.9-1.3,4.8
		c-4.3-1-12.7,0-17.5,0c1.6-2.9,4.2-6.4,6.3-9c1.9-2.2,1.9-2,1.9-4.2c0-1.2-1.2-2.1-3.1-2.1c-1.3,0-6.8,2.7-8,3.4
		c-3.4,1.9-4,2.7-6.8,4.6c0.6-2.5,1.9-5.6,1.7-6.5c-0.3-1.1-1.1-1.8-2.2-2.1c-2.4-0.6-8.4,4.6-10.4,6.3c-0.9,0.7-1.3,1.4-2.2,2.1
		c0-6.5-1-4,4.4-9.4c1-1,2.5-2.9,3.7-3.4c3.3-1.2,8.4-1.1,13.4-7.8c2.1-2.8,4-6.7,4-11c0-5.1-16.5-0.5-20.2,13.2
		c-0.8,3.1,0.2,2-2,4.2c-1.1,1.1-2,2.3-3.3,3.1c0-2.1,0-4.3,0-6.4c0-3.6,0-2.7,1.4-5c4.3-7.1,3.7-16.8-1.7-23.2
		C106.3,38.7,101.7,50.2,101.7,55.6 M108.4,63.9h-0.6c-0.5-2.1-3.2-6.1-1.3-12.6c0.4-1.3,1-2.2,1.3-3.3h0.6c0.3,1.1,0.8,2,1.2,3.1
		c0.9,2.8,0.9,6.8,0.1,9.5C109.3,61.9,108.7,62.8,108.4,63.9z M85.1,59.9c4.6,0.4,11,6.7,11.3,11.3C92,70.9,85.7,64.9,85.1,59.9z
		 M119.7,71.3c0.2-2.6,2.5-5.8,4.1-7.3c1.5-1.5,4.7-3.8,7.3-4.1c-0.2,2.3-2.7,5.9-4,7.3C125.7,68.6,122,71.1,119.7,71.3z M96.4,86.3
		c1,0.7,2.1,1.4,3,2.2l4,4c0.6,0.7,0.7,0.9,1.2,1.5c3.7,4.2,6.3,1.1,9.3-2.8c1-1.4,4.3-3.9,5.8-4.9c-0.8,3.5-0.2,7,4,7
		c1.5,0,3.9-2.1,5-3c1.7-1.3,3.4-2,5.1-3.1l-6.3,9.9c-0.5,0.4-3.4,1-4.3,1.2c-2.9,0.7-5.3,1.7-8,2.8c-1.3,0.5-2.5,1.2-3.7,1.8
		c-1.3,0.7-2.2,1.4-3.5,2c-5.3-2.8-7.2-4.9-14.9-6.9c-6.5-1.6-3.3,0.3-8.6-7.6c-0.6-1-1.9-2.3-2.2-3.3c1.6,1.1,3.4,1.8,5,3
		c2.1,1.6,5,4.8,8.1,2.1C97.1,90.7,97,87.5,96.4,86.3z M57.2,85.4c2.1,0,2.1,2.5,2.6,4.7l4.2,16.9c1,4,2,7.2,4.3,9.8
		c1.1,1.3,6.2,6.4,7.3,7.1c-0.3,3.6-1.4,5.2,3,8.7l12.2,9.9c1.6,1.2,1.4,1.7,3.5,1.7c0.4,0,3.4-1.4-0.2-4.4
		c-0.8-0.6-1.5-1.2-2.2-1.8l-8.8-7.1c-1.1-1-3.8-2.5-3.8-4.2c0-1.3,1.2-2.5,2.5-2.5c1.4,0,2.9,1.5,3.9,2.3l13.9,11.2
		c1.8,1.4,1.7,1.5,2.9,3.5c0.9,1.5,3.5,7.4,3.5,9.3v19.3H85.7c-3.6,0-0.9-5.5-2-12.4c-1.1-7-6.7-13.3-11.7-17.7
		c-11-9.7-12.9-11.6-15.2-28.9c-0.3-2-0.3-4.4-0.6-6.7l-0.8-13.9C55.3,88,54.3,85.4,57.2,85.4z M130.5,169.9h-20.2v-19.3
		c0-1.7,2.6-7.9,3.4-9.2c2.1-3.6,9.7-9,13.3-11.9c1.1-0.9,6.1-5.3,7.3-5.3c1.5,0,2.8,1,2.8,2.5c0,1.7-2.7,3.2-3.8,4.2
		c-1.5,1.4-12.8,9.5-12.8,11.1c0,1.9,1,2.1,2.1,2.1c1.8,0,8.7-6.3,10-7.4c1.7-1.4,3.2-2.6,4.9-4c4.5-3.7,3.5-4.9,3.1-8.8
		c1.3-0.8,5.9-5.6,7.1-7c3.7-4.2,5.6-14.7,7.2-21c0.5-2,0.9-3.6,1.4-5.6c0.5-2.1,0.6-5,2.7-5c2.9,0,2,2.5,1.8,4.6
		c-0.1,2.6-0.3,4.4-0.3,7.1c0,1.7-0.3,1.8-0.3,3.4c0,1.4,0,2.2-0.2,3.5c-0.3,2.3-0.3,4.5-0.6,6.7c-3.1,22-5.6,19.6-18.8,32.7
		c-3.5,3.5-7.3,8.6-8.1,13.9C131.4,164.2,134.1,169.9,130.5,169.9z M66.7,100.4c1.7,0,2.1-0.3,4-0.3c11.6,0,17.5,0.1,28,4.5
		c2.2,0.9,4.8,2.6,5.7,2.9c-0.3,1.2-0.5,0.7-1.5,1.6l-4.7,5.1c-3.8-2-4.8-3-9.9-4.5c-9.1-2.6-12.6-1.4-19.8-1.4
		C68.5,107.5,67,101,66.7,100.4z M147.6,108.3l-8-0.3c-9.8,0-19,2.9-24.7,7.2c-1.7,1.3-2.7,2.2-4.2,3.7c-6,6-6.9,13-8.2,15.7
		c-1-0.3-1.1-0.6-1.8-1.2l-5.5-4.6c1-4.2,3.1-7.6,5.5-11c0.3-0.5,0.6-1,1-1.4c3-3.5,6.1-6.3,10.2-8.8c8.3-5,18.2-7.5,31.1-7.5
		c2.6,0,3.9,0.3,6.4,0.3C149,102.4,147.7,106.4,147.6,108.3z M137.8,120.9c-2.4-0.6-4.2-2-7.8,0.8l-17,13.7
		c-1.7,1.6-4.5,5.8-4.7,7.9h-0.6c-0.2-2.1-1.7-2.8-1.6-4.5c0.2-5.8,5.1-15.6,10.3-19.4c9.5-7.1,16.9-7.1,29.4-7.1
		C144.7,114.3,139.7,119.7,137.8,120.9z M70.4,112.3c5.7,0,9.9,0,14.5,0.8c5.4,1,6.8,2.2,10.9,4.4c-1,1.8-3.8,6.4-4,8.6
		c-1.3-0.7-1.2-0.8-2.3-1.7c-0.9-0.7-1.4-1.1-2.2-1.8c-4.6-3.7-5.2-2.6-9-1.7C77.1,120.1,71.7,114.9,70.4,112.3z"/>
</g>
</svg>
