<?xml version="1.0" encoding="utf-8"?>
<!-- Generator: Adobe Illustrator 25.2.0, SVG Export Plug-In . SVG Version: 6.00 Build 0)  -->
<svg version="1.1" id="Layer_1" xmlns="http://www.w3.org/2000/svg" xmlns:xlink="http://www.w3.org/1999/xlink" x="0px" y="0px"
	 viewBox="0 0 216 216" style="enable-background:new 0 0 216 216;" xml:space="preserve">
<style type="text/css">
	.st0{fill-rule:evenodd;clip-rule:evenodd;fill:#FFFFFF;}
</style>
<g>
	<path class="st0" d="M64.8,45.6v25.9c0,8.7,12.1,6.7,17.6,6.7c-2,4.1-2.7,9.6-2,14.7c0.4,3.1,4.9,3.1,3.9-1.3c2-1.1,4.9-3.6,6.9-5
		c1.4-0.9,2.5,0.6,5.5,0.8c0.1,1.3,2.7,8.4,3.1,10.1c-2.1,1.4-1.9,3.6-4.4,3.7c-1.4,0-2.1-0.3-3.9-0.3c-1.4,0-2.8,0-4.1,0
		c-2.8-4.2-4.4-1.1-4.4,0c0,1,1.1,2.6,1.6,3.3c3.2,5,7.9,9.1,13.6,11.2c7.5,2.7,15.5,2.5,22.5-1.1c1.7-0.8,2.7-1.4,4.2-2.5
		c2.5-1.9,3.4-2.8,5.3-5.1c0.6-0.7,0.9-1.2,1.4-1.9c1-1.4,1.7-2.6,2.4-4.3c2.9-7,3.5-15.3,0.1-22.4c3.2,0,9.4,0.3,11.9-0.2
		c3.2-0.7,5.7-3.1,5.7-6.5V45.6c0-1.5-0.8-1.8-2.1-1.8c-2.1,0-1.8,2-1.8,4.1c0,3.6,0.3,22.4-0.1,23.9c-0.6,2-1.9,2.2-3.7,2.2
		c-4.1,0-8.1,0-12.2,0c-0.3-1.1-2-2.7-2.6-3.6c2.8,0,5.5,0,8.3,0c2.8,0,6.5,0.7,6.5-2.1V45.6c0-2.1-2.4-2.1-3.2-1.4
		c-0.2,0.2-0.6,0.8-0.6,1.2v21h-15.3c-0.4,0-2.7-1.6-3.3-1.9c-15.3-8.5-29.7,1.9-29.8,1.9H76.4v-21c0-1.9-3.9-2.4-3.9,0.3v22.8
		c0,2.7,3.5,2.1,6.2,2.1c2.8,0,5.7,0,8.5,0c-0.6,0.9-2.3,2.6-2.6,3.6c-4,0-7.9,0-11.9,0c-4.9,0-4.1-2.4-4.1-8V48.2
		c0-2.7,0.4-4.4-2.1-4.4C65.4,43.8,64.8,44.4,64.8,45.6 M103.9,65.5c1.2-0.1,3.5-0.4,4.6-0.4c1.5,0.1,3.5,0.4,4.7,0.4l-2.4,1.8
		c-0.7,0.6-1.6,1.3-2.6,1.6L103.9,65.5z M89.9,73.8c1.1-1.6,2.4-2.7,3.9-3.8c1.1-0.8,3.7-2.5,5.1-2.9c0.7,0.5,1.2,0.8,2,1.4
		c0.7,0.6,1.3,0.9,2,1.4c4.4,3.2,3.6,1.7,3.6,7c0,0.9-5.9,4.8-6.9,5.5c-2.1,1.4-1.3,1.5-4.4,0.6c-0.5-0.2-1.3-0.3-1.7-0.4
		c-1.1-0.4-0.7-0.4-1.5-2.6C91.4,78.2,90.6,75.3,89.9,73.8z M110.6,77.9v-5.7c0.8-0.2,2.9-1.9,3.7-2.5c0.7-0.5,1.1-0.8,1.8-1.3
		l1.7-1.4c3.2,1.7,6.6,3.4,8.8,6.7c-0.7,1.5-1.4,4-2,5.8c-1.2,3.7-0.7,2.7-4.3,3.7c-1.6,0.5-1.7,0.3-2.8-0.5
		C116.5,82,111.5,78.2,110.6,77.9z M84.5,86.5c0-4.1,1.8-6.2,2.3-8.5c0.7,0.5,1.8,4.4,2.1,5.4C87.4,84.3,86,85.7,84.5,86.5z
		 M132.1,86.5c-1.6-0.8-3-2.1-4.4-3.1c0.2-1.1,1.2-4.8,2.1-5.4C130.3,80.3,132.1,82.7,132.1,86.5z M132.1,86.5H84.5H132.1z
		 M84.5,86.5h47.6H84.5z M100.5,86.5c0.8-0.2,6.9-4.8,7.8-5.4c1.3,0.9,2.5,1.7,3.8,2.7c0.7,0.6,1.3,0.9,2,1.4c0.6,0.5,1.3,1.1,2,1.3
		c-0.1,1.2-2.4,7.3-2.8,9.3h-9.8C102.7,93.1,100.7,88.2,100.5,86.5z M129.2,101l-7.8,0.3c-1.8,0.1-1.9-0.4-3.6-2.6
		c-0.5-0.6-0.4-0.6-1-1c0.4-1.6,3-8.9,3.1-10.1c3.8-0.1,3.5-2.3,6.1-0.4l6.4,4.5C131.5,95.2,131.3,97.8,129.2,101z M99.7,103.8
		c0,0,2.7-3.9,3.6-3.9h9.8c0.8,0,1.4,1.2,1.9,1.7c2.5,3,1.9,1.1,0.6,6.4c-0.3,1.4-1.1,3.3-1.2,4.5c-4.8,0.4-3.2,1.2-9.3,0.5
		c-1.1-0.1-2-0.5-3.1-0.5C101.9,111.1,99.7,104.9,99.7,103.8z M90.1,105.1h5.7c0.5,2,1.1,3.7,1.6,5.7
		C95.1,109.6,91.5,107.1,90.1,105.1z M119.1,110.8c0.5-2,1.1-3.7,1.6-5.7h5.7c-0.8,1.2-3.7,3.6-5.1,4.5
		C120.5,110.1,119.9,110.3,119.1,110.8z"/>
	<path class="st0" d="M73.3,133.6c0,5.9,3.8,13.1,7.2,17.6c5.7,7.5,16.4,13.3,27.7,13.3c8.6,0,17.8-3.4,23.5-9
		c0.8-0.8,1.3-0.9,2-1.8c2.3-3.1,4.8-5.3,6.7-9.9c1.1-2.6,5.8-12.8-0.4-12.8H76.4C74.8,131,73.3,132,73.3,133.6 M77.5,134.9h61.6
		c-0.1,3.7-4,11.4-6.7,14.3l-1.7,2c-2.3,2.5-7.2,5.6-10.6,7c-7.6,3.1-16,3.1-23.6,0.1c-6.2-2.5-8.6-4.9-12.3-8.9
		C81.5,146.4,77.6,138.6,77.5,134.9z"/>
	<path class="st0" d="M108.3,168.3c-8.4,0-17.2-3.1-23.2-7.6c-1.1-0.8-1.8-1.5-2.9-2.3c-1.2-0.8-2.6-0.7-3.2,0.6
		c-0.9,2,2.1,3.7,4.2,5.3c6.1,4.4,14.7,7.7,23.2,7.9c0.9,0,1.5,0.1,2,0.1c9.4-0.4,17.7-2.6,25.2-8.3c7-5.3,12.4-12.1,15.4-20.6
		c0.7-2,1.9-6,1.9-8.4h21.7c2.1,0,2.1-3.9,0-3.9h-23.8c-2.3,0-1.6,7.1-5,14.4C137.8,158.4,124.5,168.3,108.3,168.3"/>
	<path class="st0" d="M41.8,124.8c0,1,0.4,2.3,1.5,2.3h113.6c2.1,0,2.1-3.9,0-3.9H43.3C42.7,123.2,41.8,124.1,41.8,124.8L41.8,124.8
		z"/>
	<path class="st0" d="M41.8,132.6c0,1,0.4,2.3,1.5,2.3h22.3c0,1.8,0.7,4.7,1.2,6.3c1.3,4.3,3.6,9.1,6.2,12.7c0.1,0.1,0.7,1,0.8,1
		c0.6,0.7,3.5,1.7,3.5-1.7c0-0.6-1.1-1.8-1.5-2.4c-7.9-12.1-5-19.9-8.1-19.9H43.3C42.7,131,41.8,131.9,41.8,132.6L41.8,132.6z"/>
	<path class="st0" d="M162.9,124.8c0,1,0.3,2.3,1.6,2.3h8.3c2.1,0,2.1-3.9,0-3.9h-8.3C163.8,123.2,162.9,124.2,162.9,124.8"/>
</g>
</svg>
