<?xml version="1.0" encoding="utf-8"?>
<!-- Generator: Adobe Illustrator 25.2.0, SVG Export Plug-In . SVG Version: 6.00 Build 0)  -->
<svg version="1.1" id="Layer_1" xmlns="http://www.w3.org/2000/svg" xmlns:xlink="http://www.w3.org/1999/xlink" x="0px" y="0px"
	 viewBox="0 0 216 216" style="enable-background:new 0 0 216 216;" xml:space="preserve">
<style type="text/css">
	.st0{fill-rule:evenodd;clip-rule:evenodd;fill:#FFFFFF;}
</style>
<g>
	<path class="st0" d="M79.4,62.4v91.3c0,1.3,0.5,2.2,1.8,2.2h53.6c1.3,0,1.8-0.9,1.8-2.2V62.4c0-1.3-0.5-2.2-1.8-2.2H81.2
		C79.9,60.2,79.4,61.1,79.4,62.4 M92.9,67.9v-4.7h30.1c0,1.9,0.6,6.6-1.5,6.6h-27C93.8,69.9,92.9,68.8,92.9,67.9z M90.1,83.2h-7.3
		V63.3h7.1c0,3.9-0.6,6.5,1.6,8.6c0.8,0.8,2.2,1.4,3.7,1.4h25.7c2.8,0,5.3-2.1,5.3-4.7v-5.3h7.1v19.9h-7.3c-0.2-2.8-3.1-4.9-6.6-4.9
		c-2.8,0-5.2,2.6-5.8,4.9h-11.1C100.8,76.1,90.5,77.4,90.1,83.2z M92.9,84.7c0-1.4,1.3-3.1,2.7-3.1c2.6,0,3.8,0.6,3.8,3.5
		c0,1.6-1.8,2.9-3.3,2.8C94.5,87.9,92.9,86.5,92.9,84.7z M116.6,85.2c0-2.9,1.2-3.5,3.8-3.5c3.1,0,3.8,5.9-0.3,6.3
		C118.5,88.1,116.6,86.8,116.6,85.2z M90.1,106.5h-7.3V86.3h7.3c0.3,4.2,6.9,6.7,10.4,3.3c1-1,1.7-1.7,2-3.3h11.1
		c0.4,1.6,1,2.3,2,3.3c2.2,2.2,5.8,2,8.3,0.2c0.9-0.7,2-2.1,2.1-3.5h7.3v20.2h-7.3c-0.3-4.1-6.8-6.8-10.4-3.3c-1,1-1.7,1.7-2,3.3
		h-11.1c-0.7-3-3.3-4.9-6.4-4.9C93.2,101.6,90.3,103.9,90.1,106.5z M92.9,108c0-1.7,1.3-3,3-3.2c4.4-0.4,4.8,6.5,0.1,6.4
		C94.3,111.1,92.9,109.7,92.9,108z M116.6,108.4c0-2.1,0.9-3.8,3.3-3.7c4,0.2,4.3,6,0.2,6.4C118.5,111.4,116.6,110.1,116.6,108.4z
		 M90.1,129.7h-7.3v-20.2h7.3c0.5,5.8,10.7,7.1,12.4,0h11.1c1,4.2,6.1,6.6,10.3,3.5c0.9-0.6,2-2.2,2.1-3.5h7.3v20.2h-7.3
		c-0.5-5.7-10.7-7.2-12.4,0h-11.1c-1.1-4.9-7.1-6.3-10.5-3.4C91.1,127.1,90.2,128.2,90.1,129.7z M92.9,131.3c0-1.6,1.4-3,3-3.3
		c4.2-0.5,4.7,6.4,0.8,6.4h-1.1C94.2,134.4,92.9,132.6,92.9,131.3z M120.4,134.4c-2.6,0-3.8-0.6-3.8-3.5c0-3.6,6.4-3.8,6.4,0.4
		C123.1,132.6,121.8,134.4,120.4,134.4z M89.8,147.4v5.3h-7.1v-19.9h7.3c0.2,2.8,3.1,4.9,6.6,4.9c2.8,0,5.2-2.6,5.8-4.9h11.1
		c1,4.2,6.1,6.6,10.3,3.5c0.8-0.6,2-2.2,2.1-3.5h7.3v19.9h-7.1c0-3.9,0.6-6.5-1.6-8.6c-0.8-0.8-2.2-1.4-3.7-1.4H95.2
		c-1.5,0-2.8,0.6-3.6,1.3C90.7,144.7,89.8,146,89.8,147.4z M92.9,148.1c0-0.9,0.8-2,1.5-2h27c2.1,0,1.5,4.8,1.5,6.6H92.9V148.1z"/>
	<path class="st0" d="M70.6,58.6v24.6h-3.3c0-6.9-1.9-5.5-13.1-5.5c-1.4,0-2.9,1.5-2.9,2.9V89c0,1.4,1.5,2.9,2.9,2.9h9.7
		c3.5,0,3.3-3.6,3.3-5.5h3.3v20.2h-3.3c0-6.9-1.9-5.5-13.1-5.5c-1.4,0-2.9,1.5-2.9,2.9v8.4c0,1.4,1.5,2.9,2.9,2.9h10
		c3.3,0,3.1-3.9,3.1-5.5h3.3v20.2h-3.3c0-6.8-1.7-5.5-13.1-5.5c-1.4,0-2.9,1.5-2.9,2.9v8.4c0,1.6,1.6,2.9,3.3,2.9h9.5
		c3,0,3.1-3.3,3.1-5.5h3.3v24.6c0,2,0.4,3.9,1.4,5c0.9,1,2.4,2.3,4.2,2.3h63.8c1.8,0,3.3-1.2,4.2-2.3c0.9-1.1,1.4-3,1.4-5v-24.6h3.3
		c0,6.9,2.1,5.5,12.6,5.5c1.7,0,3.3-1.3,3.3-2.9V127c0-1.4-1.5-2.9-2.9-2.9h-9.7c-3.5,0-3.3,3.6-3.3,5.5h-3.3v-20.2h3.3
		c0,6.9,1.9,5.5,13.1,5.5c1.4,0,2.9-1.5,2.9-2.9v-8.4c0-1.4-1.5-2.9-2.9-2.9h-9.7c-3.5,0-3.3,3.6-3.3,5.5h-3.3V86.3h3.3
		c0,6.8,1.8,5.5,13.1,5.5c1.4,0,2.9-1.5,2.9-2.9v-8.4c0-1.4-1.5-2.9-2.9-2.9h-10c-3.3,0-3.1,3.9-3.1,5.5h-3.3V58.6
		c0-2-0.4-3.9-1.4-5c-0.9-1-2.4-2.3-4.2-2.3H76.1C72.7,51.3,70.6,54.7,70.6,58.6 M54.4,88.1v-6.6c0-0.5,0.2-0.7,0.7-0.7h8.9v8h-8.9
		C54.6,88.7,54.4,88.6,54.4,88.1z M160.9,88.7h-8.9v-8h8.9c0.5,0,0.7,0.2,0.7,0.7v6.6C161.6,88.6,161.4,88.7,160.9,88.7z
		 M54.4,111.3v-6.6c0-0.5,0.2-0.7,0.7-0.7h8.9v8h-8.9C54.6,112,54.4,111.8,54.4,111.3z M160.9,112h-8.9v-8h8.9
		c0.5,0,0.7,0.2,0.7,0.7v6.6C161.6,111.8,161.4,112,160.9,112z M54.4,134.6v-7.3h9.5v8h-8.9C54.6,135.2,54.4,135.1,54.4,134.6z
		 M160.9,135.2h-8.9v-8h9.5v7.3C161.6,135.1,161.4,135.2,160.9,135.2z M73.9,158.5v-101c0-2.2,1.4-3.1,3.5-3.1h61.1
		c2.2,0,3.5,0.9,3.5,3.1v101c0,2.2-1.5,3.1-3.5,3.1H77.4C75.4,161.6,73.9,160.7,73.9,158.5z"/>
</g>
</svg>
