<?xml version="1.0" encoding="utf-8"?>
<!-- Generator: Adobe Illustrator 25.2.0, SVG Export Plug-In . SVG Version: 6.00 Build 0)  -->
<svg version="1.1" id="Layer_1" xmlns="http://www.w3.org/2000/svg" xmlns:xlink="http://www.w3.org/1999/xlink" x="0px" y="0px"
	 viewBox="0 0 216 216" style="enable-background:new 0 0 216 216;" xml:space="preserve">
<style type="text/css">
	.st0{fill-rule:evenodd;clip-rule:evenodd;fill:#FFFFFF;}
</style>
<g>
	<path class="st0" d="M43.2,45.5v125c0,0.8,1.5,2.3,2.3,2.3h125c0.8,0,2.3-1.5,2.3-2.3v-125c0-0.9-1.5-2.3-2.3-2.3h-125
		C44.7,43.2,43.2,44.7,43.2,45.5 M58.8,67.8h-9.3V49.6h18.2v9.3C67.8,63.7,63.7,67.8,58.8,67.8z M148.2,58.8v-9.3h18.2v18.2h-9.3
		C152.3,67.8,148.2,63.7,148.2,58.8z M49.6,74.1h9c8.7,0,15.6-7,15.6-15.6v-9h67.7v9c0,8.7,7,15.6,15.6,15.6h9v67.7h-9
		c-8.7,0-15.6,6.9-15.6,15.6v9H74.1v-9c0-8.7-6.9-15.6-15.6-15.6h-9V74.1z M49.6,148.2h9.3c4.9,0,9,4.1,9,9v9.3H49.6V148.2z
		 M148.2,157.2c0-4.9,4.1-9,9-9h9.3v18.2h-18.2V157.2z"/>
	<path class="st0" d="M73.9,77.9v60.2c0,2.5,1.5,4.1,4.1,4.1h60.2c2.5,0,4.1-1.5,4.1-4.1V77.9c0-2.5-1.5-4.1-4.1-4.1H77.9
		C75.4,73.9,73.9,75.4,73.9,77.9 M80.2,80.2h55.5v55.5H80.2V80.2z"/>
	<path class="st0" d="M107.1,92.7c-1.3,0.3-3-0.2-6.3,1.5c-1.9,1-2.9,2-4.4,3.4c-1.2,1.2-2.4,3.1-3,4.8c-1.5,4.1-1.3,8.9,0.7,12.7
		c2.8,5.2,9.1,9.1,14.8,8.3c2.8-0.4,4.1-0.6,6.2-1.7c14-7.5,8.9-27.4-4.6-29.1C108.1,92.4,108.8,92.3,107.1,92.7 M98.7,108.6
		c-0.3-1.7,0.9-5,2.5-6.7c3.7-3.8,9.2-4.1,12.9-0.6c1.7,1.7,2.7,3.3,3,6.2c0.1,1-0.3,3.1-0.6,3.9c-0.4,1.1-1.1,2-1.8,2.8
		c-4.8,5-11.9,3.5-14.9-2L98.7,108.6z"/>
</g>
</svg>
