<?xml version="1.0" encoding="utf-8"?>
<!-- Generator: Adobe Illustrator 25.2.0, SVG Export Plug-In . SVG Version: 6.00 Build 0)  -->
<svg version="1.1" id="Layer_1" xmlns="http://www.w3.org/2000/svg" xmlns:xlink="http://www.w3.org/1999/xlink" x="0px" y="0px"
	 viewBox="0 0 216 216" style="enable-background:new 0 0 216 216;" xml:space="preserve">
<style type="text/css">
	.st0{fill-rule:evenodd;clip-rule:evenodd;fill:#FFFFFF;}
</style>
<g>
	<path class="st0" d="M131.9,117.9c0-10.6,14.8-13.7,19-4.1c4.4,10.3-8.5,18.6-16,11.1C133.1,123.3,131.9,120.4,131.9,117.9
		 M135.4,44.4h2.5c8.3,0.3,12.7,2.9,18.8,7.5c2.8,2.1,6.1,5.6,8.2,8.4c8,10.7,9.4,23.1,1,34.3c-1.5,2-9,10.2-11.2,10.2
		c-1,0-1.7-0.9-1.7-2c0-1.8,0.7-1.5,2-2.9c0.9-0.9,1.6-1.3,2.5-2.2l4.5-4.7c3.7-4.2,5.4-9.1,5.4-15.5c0-7.6-5.2-14.5-10.1-19.4
		c-1.3-1.3-2.4-2.4-3.9-3.5l-4.5-2.9c-5.1-3.1-12.1-4-18-2c-2,0.6-3.5,1.4-5,2.4c-2.8,1.9-6.1,4.6-8.1,7.1c-1.2,1.5-2.4,2.6-3.6,4.1
		c-2.7,3.4-5.5,7.2-7.5,11.2c-1.4,2.8-2.4,4.5-3.7,7.8c-4.4,11-7.4,22.8-10.6,34.4c-0.5,1.9-2.2,4.9-2.2,5.3c0,1.8,2.7,5,5,3.8
		c3.9-2.2,16.9-5.1,22.1-6.8l10.7-3.5c0.9-0.8,2.1-11.2,14.7-11.2c6.8,0,13.2,6.4,13.2,13.2v1.5c0,11.6-15.2,17.6-23.5,9.4
		c-2.5-2.5-3.4-4.4-4.3-8.4c-1,0.2-2.1,0.7-3,1l-9.2,2.7c-7.6,2.2-17.8,3.9-23.1,8.7c-7,6.3-17.1,16.9-23.7,23.5
		c-1.5,1.5-11,10.8-11.8,12c-1.3,2.1-1.9,4.1-3.6,4.1c-3.4,0-6.5-2.6-8-5.4c-0.6-1.2-0.9-2-1-3.7v-0.1c0-1.3,0.7-1.5,1.5-2
		c0.7-0.4,1.4-0.8,2-1.2c1.9-1.1,26.1-25.7,29.7-29.4c5.2-5.2,8.5-7.8,11-15.4c1.9-5.8,3.7-13.7,5.8-20.3c1.1-3.4,2.1-6.5,3.3-9.9
		c1.7-4.9,5.5-13.2,8.6-17.5c0.9-1.3,1.8-2.6,2.8-3.9l4.5-5.4c0.5-0.7,1-1.1,1.6-1.7c1.1-1.1,2.1-2.1,3.2-3.2
		C121.9,49,128.4,44.8,135.4,44.4z M52.6,167.1c-2.3-0.2-3.3-2.2-4-3.7c2.4-0.5,8.3-7.2,10-8.9c3.2-3.2,6.2-6.2,9.4-9.4
		c3.2-3.2,6.2-6.2,9.4-9.4c1-1,9.1-8.6,9.4-9.8c1.4,0.4,0.3,0.7,3.2,2.7l-35.6,35.5C53.8,164.8,52.8,166.1,52.6,167.1z"/>
</g>
</svg>
