<?xml version="1.0" encoding="utf-8"?>
<!-- Generator: Adobe Illustrator 25.2.0, SVG Export Plug-In . SVG Version: 6.00 Build 0)  -->
<svg version="1.1" id="Layer_1" xmlns="http://www.w3.org/2000/svg" xmlns:xlink="http://www.w3.org/1999/xlink" x="0px" y="0px"
	 viewBox="0 0 216 216" style="enable-background:new 0 0 216 216;" xml:space="preserve">
<style type="text/css">
	.st0{fill-rule:evenodd;clip-rule:evenodd;fill:#FFFFFF;}
</style>
<g>
	<path class="st0" d="M123.6,76.6c0,3.7-0.4,5.4,1.4,8.1c0.8,1.2,1.7,1.7,3.3,2.1c0,2.3-0.6,2.6,0.3,5.1c0.6,1.7,1.6,2.2,2.5,3.5
		H85.3c2.4-3.6,2.8-2.1,2.8-8.6c4.2-2.2,3.8-5.3,3.8-9.6c0-3.2-2.5-6.4-5.7-6.4H78c-2.5,0-5.1,3.4-5.1,6.1c0,3.7-0.4,5.4,1.2,8
		c-2.2,1.2-6.3,4.6-8.9,6.4c-2.3-3.5-0.7-1.4-1.9-4.8c-1.5-4.5-6.2-9.2-11.5-9.2c-4.6,0-8.2,1-11.1,4.2c-5.8,6.3-3.7,12.7-2.5,20.9
		c0.7,5.3,2.5,23,4.6,26.7c1.2,2.1,1.9,2.5,2.6,3.7c-2.9,0-6.2-0.3-8.3,0.6c-5.8,2.5-4.1,11.8,2.5,11.8h12.5v27.5
		c0,3.2,2.5,2,2.9,1.9c0.7-3.3,0.3-24.3,0.3-29.4H68c1.8,0,3-0.8,4-1.7c1.9-1.8,2.2-5.2,1.1-7.5c7,0,5.3-2.2,7.2,11
		c0.8,5.4,1.6,10.7,2.3,15.9c0.4,3.3,0.7,4.5,2.2,6.7c4.6,6.5,15.3,2.8,15.3-5.4c0-5-5-38.3-5.9-40.1c-1.6-3.5-4.4-6.5-8.8-6.5H68.7
		c0-1.4-0.4-3.2-0.7-4.7c-0.2-1.4-0.5-3.4-0.9-4.9c1.2-0.1,1.7-0.4,2.5-1l6.1-4.4c0,3.9,2.7,7,6.7,7h21.1v63.2
		c0,3.1,2.6,2.2,7.7,2.2c0.9,0,1.9-0.3,1.9-1.3v-64.2h20.8c4,0,7.3-2.7,7.3-6.7c1.9,0.5,5.1,4.4,8,5.1c0,3.5-1.2,6.4-1.2,9.6h-17.6
		c-3.7,0-7.2,3.7-8.3,6.4c-1.1,2.9-1.7,9.3-2.2,12.8c-0.6,4.4-1.3,8.9-1.9,13.1c-0.6,4.3-1.7,10.2-1.7,14.3c0,7.1,8.3,11.6,14.1,6.8
		c1.5-1.2,2.7-3.6,3.1-5.6c0.5-2.9,3.7-27.7,4.5-29.3h5.4c-1,1.9-1,4.2,0,6.1c0.8,1.6,2.7,3.2,5.1,3.2h12.8c0,5.1-0.4,26.1,0.3,29.4
		c0.3,0.1,2.9,1.3,2.9-1.9v-27.5H177c6.6,0,8.3-9.3,2.5-11.8c-2-0.9-5.3-0.6-8.3-0.6c1.9-2.9,3.3-3.9,4.1-8.3
		c0.4-2.6,4.5-31.2,4.5-33.5c0-3.6-2-7.6-3.9-9.5c-3.1-3.3-6.7-4.2-11.1-4.2c-5.5,0-9.7,4.5-11.5,9c-1.3,3.4,0.2,1.9-1.9,5.1
		l-4.8-3.5c-1.6-1.2-3.2-2.5-4.7-3.6c0.8-3.7,0.9-0.1,0.9-7c0-8.2-8-6.7-13.4-6.7C126.3,70.6,123.6,73.6,123.6,76.6 M76.1,81.4
		c0-3.2-0.5-5.6,1-6.9c1.5-1.2,5.7-0.8,8.5-0.8c3.8,0,3.2,4.8,3.2,7c0,1.8-0.5,2.5-1.6,3.2c-1.5-0.4-4.2-4.7-9.3-1.9
		C76.9,82.7,76.1,83.7,76.1,81.4z M129.7,84c-3.6,0-2.8-4.4-2.8-7.3c0-4.2,5.2-3.2,9.6-3.2c4,0,3.2,4.7,3.2,8c0,2.6-3.7-2.9-8.7,1.5
		C130.6,83.2,130,84,129.7,84z M65.2,105.4c-3.4,0-9.8-8.9-13.9-12c-1.6-1.2-2.4-2.7-3.6-2.5c-3.6,0.7,1.9,5.2,2.8,6.1
		c3.4,3.5,10,11.2,13.7,11.3l1.6,10.8c0.5,2,2.1,1.3,4.7,1.3c15.4,0,20.4-2.2,22,9.6c0.9,6.9,4.2,27.3,4.6,33
		c0.5,6.7-7.3,9.5-10.5,3.8c-0.8-1.5-1-4.5-1.3-6.6c-0.7-4.9-1.4-9.4-2-14.2c-2.2-16.2,0.8-13.1-27.5-13.1c-3.5,0-4.8,0.1-7-1.3
		c-3.9-2.6-4.4-5.6-5.2-11.1c-0.6-4.7-1.3-9.4-2-14.3C41,101,40,95.3,40,90c0-5.7,7.2-11.8,14.2-9.1c3.8,1.5,5.9,4.7,6.7,8.6
		c0.5,2.8-0.5,0.6,2.3,4.1c1.9,2.4,3.1,0.7,5.9-1.3c1.8-1.4,10.1-8,11.8-8c2.9,0,4.5,2.6,4.5,4.5c0,3.8-5.1,6.3-9,9.3
		C74.6,99.3,67.4,105.4,65.2,105.4z M131.3,89.1c0-2.3,1.6-4.8,3.8-4.8c2.1,0,3.2,1.2,4.5,2.2c1.3,1,2.5,1.9,3.8,2.9
		c7.4,5.5,7.7,6.7,10,4c2.5-3.1,1.4-0.3,2.3-4.6c0.2-1.2,0.6-2,1-2.8c0.8-1.6,1.9-2.9,3.4-3.9c3-2,6.3-2.3,9.7-0.9
		c4.1,1.7,6.7,5.3,6.7,10.2c0,3-3.3,25.4-3.8,28.8c-2,14.5-6.7,12.7-19.8,12.7c-3.2,0-14-0.5-15.9,0.3c-3.2,1.4-3.2,7.7-3.8,12.4
		c-0.3,2.6-2.5,19.1-3.3,20.9c-2.9,6.1-11.1,3.1-10.7-3.3c0-1.3,0.5-3.7,0.7-5.3l3.9-27.7c1.6-11.9,6-9.8,21.4-9.8
		c1.1,0,2.2,0,3.2,0c2.4,0,1.9-0.3,2.5-3.9c0.1-1,0.2-1.6,0.4-2.7c0.3-1.7,0.8-3.9,0.8-5.6c2.6-0.1,4.7-2.6,7.4-5
		c1.5-1.3,10.2-9.7,10.2-10.6c0-5.5-7.8,3.8-8.9,4.9c-1.5,1.5-2.8,2.8-4.3,4.3c-5.7,5.8-5.6,4.5-16.4-3.6
		C136.6,95.4,131.3,92.5,131.3,89.1z M78.6,102.5c0-2.1,1.4-3.8,3.5-3.8h52.7c4.3,0,4.3,7.7,0,7.7H82.1
		C80.1,106.3,78.6,104.4,78.6,102.5z M68,142.1H39.3c-3.5,0-3.6-6.1,0.3-6.1H68C71.8,136,71.9,142.1,68,142.1z M145.7,139.5
		c0-2,0.9-3.5,2.8-3.5H177c3.7,0,3.9,6.1,0.3,6.1h-28.7C147.1,142.1,145.7,140.8,145.7,139.5z M106.7,109.5h3.5v62.3h-3.5V109.5z"/>
	<path class="st0" d="M27.5,54.9c0,5.4,1,8.7,4.7,12.2C41.3,75.8,58,71,59,56.4c0.9-14.9-21.5-22.1-29.7-7.4
		C28.5,50.3,27.5,53,27.5,54.9 M42.2,44.1c4.1,0,7.3,0.7,10.2,3.6c6.3,6.3,3.7,16.3-3.6,19.5c-4.9,2.1-10.7,1.4-14.2-2.3
		c-5.8-5.8-5.1-13.4,0.8-18.2c0.8-0.7,0.8-0.7,1.9-1.2C38.6,44.7,40.2,44.1,42.2,44.1z"/>
	<path class="st0" d="M172.2,73.4c6.9,0,11.6-2.9,14.6-8.3c3.2-5.6,1.6-14.2-3.7-18.3c-7.1-5.5-16.4-4.9-22.1,1.2
		C151.5,58.3,159.9,73.4,172.2,73.4 M160,58.4c0-4.1,1.6-6.6,3.7-8.7c6.3-6.3,16.9-4.2,20.5,3.3c1.1,2.3,1.4,4.7,0.9,7.5
		c-0.4,2.4-1.8,4.7-3.3,6.2C174.5,74.2,160,69.4,160,58.4z"/>
	<path class="st0" d="M82.4,47.2c0,3.5,5.7,5.4,1.2,9.8c-2.1,2.1-1.7,4.2-0.3,6.6c0.4,0.8,0.4,0.6,0.9,1.3c0.8,1.1,0.3,1.2,2,1.2
		c1,0,1.2-0.8,1.2-1.6c0-1-2.2-2.4-2.2-3.8c0-2.9,6.5-3.9,1-12.2C83.6,44.4,82.4,46.5,82.4,47.2"/>
	<path class="st0" d="M127.1,46.9c0,1.4,1.1,2.2,1.8,3.3c4,6.7-1.8,4.1-1.8,10.4c0,0.8,1.5,5.1,4.1,5.1c3,0-0.7-4.3-0.8-4.6
		c-1.4-3.6,5.5-3.6,2-10.9c-0.8-1.8-2-3.7-3.7-4.6C128.3,45.9,127.1,46.4,127.1,46.9"/>
	<path class="st0" d="M74.5,46.3c-0.8,3.6,1,2.4,2.3,6c1,2.9,0.3,2.9-1.4,4.8c-1.3,1.4-1.7,3.1-1,5c1.1,3.7,5,5.6,5,2.4
		c0-0.8-2.2-2.7-2.2-4.2c0-2.2,6.3-3.7,1.3-11.6C77.1,46.7,76.4,45.5,74.5,46.3"/>
	<path class="st0" d="M135.4,46.9c0,1.9,2.5,3.6,3,6.3c0.6,3.4-3,2.2-3,7.2c0,4.3,5.1,7.5,5.1,3.8c0-1.1-2.2-2.7-2.2-4.2
		c0-1.7,7.1-4,0.3-13.1c-0.6-0.8-0.8-1.1-1.9-1.3C136.3,45.9,135.4,46.4,135.4,46.9"/>
</g>
</svg>
