<?xml version="1.0" encoding="utf-8"?>
<!-- Generator: Adobe Illustrator 25.2.0, SVG Export Plug-In . SVG Version: 6.00 Build 0)  -->
<svg version="1.1" id="Layer_1" xmlns="http://www.w3.org/2000/svg" xmlns:xlink="http://www.w3.org/1999/xlink" x="0px" y="0px"
	 viewBox="0 0 216 216" style="enable-background:new 0 0 216 216;" xml:space="preserve">
<style type="text/css">
	.st0{fill-rule:evenodd;clip-rule:evenodd;fill:#FFFFFF;}
</style>
<g>
	<path class="st0" d="M43.3,78.1v97c0,1.4,0.9,2.3,2.3,2.3h97.6c3.7,0,3.9-0.2,6.1-0.3l19.1,0c2.4,0,4.3,0.1,4.3-2.3v-97
		c0-2.3-4.2-3.8-7.3-5.7c-17.5-10.6-35.5-20.8-53-31.4c-4.7-2.9-4.1-2.9-8.7-0.1L46.6,74.7C45.2,75.5,43.3,76.2,43.3,78.1
		 M68.4,98.3c0,3,5.1,9.4,6.9,12.2c1.3,1.9,1.4,2,4.4,2c-0.9,1.4-1.9,2.2-2.8,3.9c-0.9,1.6-1.6,2.9-2.6,4.3
		c-9.1,13.5-11.9,31.4-7.7,47.7c0.3,1.3,0.8,3.2,1.3,4.2c-7,0-13,0.3-19.9,0.3V79.3c1.3-0.3,6.1-3.4,7.6-4.3l45-26.9
		c1.4-0.8,6.6-4.1,7.8-4.3c1.1,0.8,2.3,1.4,3.6,2.2L145.8,66c1.3,0.8,2.6,1.5,3.8,2.2c1.3,0.8,2.5,1.5,3.8,2.3l11.3,6.6
		c0.6,0.4,1.1,0.7,1.8,1.1c0.7,0.4,1.6,0.7,1.6,1.6v92.7h-15.3c0.5-1.1,1.4-4.6,1.7-6.1c5.3-21.3,3.4-42.9-6.3-62.2
		c-4-8-8.5-15-14.8-21.3c-8.2-8.2-21-16.7-33-12.9c-7.6,2.4-10.4,3.3-13.4,10.6c-2.5,6.1-0.9,3.9-5.6,6.5l-8,4.1
		C70.7,92.5,68.4,94.4,68.4,98.3z M111.8,74.9c0.4-0.5,0.9-0.1,2.6,0.6c0.8,0.3,1.5,0.6,2.4,1c6,2.7,11.2,6.8,13.3,13.2
		c0.4,1.2,1.1,4.2,0.9,5.6c-0.5,7.4-9.9,9-13,3c-2.3-4.4,1-7.8-2.7-17C115.1,80.4,112.2,75.1,111.8,74.9z M80.9,92.8
		c0.6-0.3,1.2-0.5,1.8-0.8c0.7-0.4,0.9-0.5,1.8-0.8c5.7-2.5,5.1-3.3,7.4-9.1c2.2-5.5,4.3-5.6,11-7.7c0.8-0.2,1.6-0.3,2.3-0.6
		c1.7,2.6,1.5,1.7,3.8,5.7c1.4,2.3,2.4,3.8,3.1,6.7c1.7,6.7-1.5,10.6,3.2,16.4c2.7,3.4,8.6,5.7,13.7,3.1c5.8-2.9,6.7-6.8,6.7-12.9
		c4.4,5,9.2,15.2,11.4,21c5.7,14.8,6.8,30.9,3.8,46.8l-3.1,11.9h-16.7c-0.6-7.1-4.7-13.3-10.2-17.3c-1.1-0.8-2.2-1.4-3.5-2
		c-3.5-1.7-3.2-0.4-6.3-5c0.4-1.5,2.9-5,0.4-9.6c-1-1.8-1.2-1.2-1.7-3.8c-0.9-4.8-1.5-7-4.5-10.2l-0.4-0.4c0,0-0.1-0.1-0.1-0.1
		c0,0-0.1-0.1-0.2-0.1c-1.2-1.2-1.7-1.4-3.2-2.3c-1.3-0.8-6-3.3-7.3-3.6V111c1.7,0,8.6-0.5,9.8-0.9c2.1-0.7,6.7-9.2,1.8-9.2
		c-1.4,0-1.8,0.7-2.4,1.7c-0.4,0.6-1.1,2.3-1.4,2.6c-0.7,0.7-13.4,1.7-15,1.8c-2.7,0.1-5,0.6-7.8,0.6c-0.8-1.2-1.5-2.3-2.3-3.5
		c2.2-3.2,4.3-2.2,4.3-9.8C81.1,93.9,81,93.1,80.9,92.8z M73.9,99.8c-1.9-2.8,0.6-3.6,2.6-4.6C76.5,97.3,75.6,99.3,73.9,99.8z
		 M97.3,151.7c-2.7,0-6-1.5-7.7-3.2c-4-4-7.8,1.7-0.3,5.8c5.3,2.9,11.7,3,16.6-0.6c0.8-0.6,1.4-1.2,2.1-1.7c4.8,7.2,6,3.2,11.3,8
		c1.8,1.6,3.1,3,4.4,5.1c1,1.7,2.4,4.9,2.5,7.3H72.8c-2.7-11.7-3.2-8.2-3.2-21.9c0-10,3.9-19.1,8.8-27.3c0.5-0.8,0.9-1.4,1.4-2.1
		c0.6-0.9,0.8-1.4,1.3-2.4c1.4-2.6,5-5.7,8.5-6c0,11.8-0.7,6.8,10.3,13.4c5.3,3.2,4.7,8.4,5.8,12.1c0.4,1.4,4.1,4.1,0.7,8.4
		C104.1,149.3,101.4,151.7,97.3,151.7z"/>
	<path class="st0" d="M88.9,154.9c0,6.2,4,8.6,8.4,13.1c12.6,12.6,8.7,12.6,21.2,0.1c4.5-4.4,8.6-7,8.6-13.2c0-4.6-3.9-8.4-8.1-9
		c-6.5-0.9-8.6,3.7-11,5.4c-2.5-1.6-4.5-6.2-11-5.4C92.8,146.5,88.9,150.2,88.9,154.9 M98.4,150.7c3.8,0,7.3,6.6,9,6.6h1.2
		c1.6,0,5.2-6.6,9-6.6c2.8,0,4.8,2.3,4.6,5c-0.2,2.7-2.6,4.2-4.1,5.7l-10.1,9.9l-9.9-9.8c-1.5-1.5-3.9-3.1-4.2-5.6
		C93.5,152.9,95.9,150.7,98.4,150.7z"/>
	<path class="st0" d="M104.7,173.8c0,4.8,6.6,4.8,6.6,0C111.3,169.9,104.7,169.9,104.7,173.8"/>
	<path class="st0" d="M104.7,173.8c0,4.8,6.6,4.8,6.6,0C111.3,169.9,104.7,169.9,104.7,173.8"/>
</g>
</svg>
