<?xml version="1.0" encoding="utf-8"?>
<!-- Generator: Adobe Illustrator 25.2.0, SVG Export Plug-In . SVG Version: 6.00 Build 0)  -->
<svg version="1.1" id="Layer_1" xmlns="http://www.w3.org/2000/svg" xmlns:xlink="http://www.w3.org/1999/xlink" x="0px" y="0px"
	 viewBox="0 0 216 216" style="enable-background:new 0 0 216 216;" xml:space="preserve">
<style type="text/css">
	.st0{fill-rule:evenodd;clip-rule:evenodd;fill:#FFFFFF;}
</style>
<g>
	<path class="st0" d="M80.7,61.3c0,3.3,0.4,4.7,1.2,8c0.5,1.9,1,3.3,2.6,4.3c0.8,0.5,1.7,0.4,2.2,1.1c1.4,2,1,2.8,3.6,5
		c0.8,0.6,0.6,0,0.9,1c-0.9,0.2-1.3,1-2,1.6c-1.7,1.7-3.7,4.2-5.6,5.5c-0.7-2.9-1.7-5.2-4.6-6.6c-2.5-1.2-5.7-0.8-7.7,0.7
		c-2.2,1.6-0.8,0.2-5,0.2c-3,0-6.2,1.3-7.9,3.5c-3.1,4.2-0.2,9.8,5.7,9.8h3.8c0,3.9-0.6,12.3,1,15.1c2.2,3.6,7.2,5.4,10.9,2.8
		c3.9-2.7,7.6-8.2,11-10.5v50.5c0,4.4,0.5,6.7,3.7,8.9c4.3,3,11.7-0.3,11.7-5.8v-6.9c0-1.7-1.8-2.1-2.8-1.4c-2.2,1.4,1,8.5-2.5,10.8
		c-3.2,2.2-6.6-0.5-6.6-4.2v-45.3c0-0.8,0.6-0.8,1.3-1.1l12.9-5.2c2.5-1,4.8-1.9,7.3-2.9c1.5-0.7,6.3-2.7,7.7-2.7
		c1.8,0,3.8,1.6,3.8,3.3V121c0,4.2-7.8,4.9-8.1-0.9c-0.1-2.7,0-5.8,0-8.5c4.7-1.1,3.5-4.3,1.7-4.3c-1.2,0-13.9,5.2-16.8,6.5
		c-0.9,0.4-1.5,0.6-1.5,1.8v26.8c0,2.4,3.3,2.5,3.6,0.2c0.2-2.5,0-22.8,0-25.9c0.9-0.1,3.6-1.3,4.7-1.7c1.4-0.6,3.2-1.5,4.6-1.8
		c0,2-0.2,4.8,0,6.6c0.3,2.6,0.4,3.2,1.6,5c-0.9,1.4-2.1,2.5-2.1,4.5c0,2.4,1.4,4.3,3.2,5.3c2,1.1,7.6,0.6,10,0.6
		c4.8,0,8.4-7.2,2.1-11.4c0.1-1.2,0.7-1.6,0.7-3.3v-19.2c0-4.1-3.8-7.6-7.8-7.6c-3.5,0-6.4,2.5-9.7,3.3v-8.3h14.9
		c4.1,0,5.4-1.7,7.4-3.7c1.4-1.4,4.7-4.4,5.6-5.8c3.1,2.1,6.9,1.4,10.7,1.4c1.8,0,3.1-0.7,4.1-1.6c4.1-3.9,1.2-10.3-5.1-11.4
		c-1.5-0.3-2.3-0.1-3.9-0.1c-0.5-2.4-3.5-5.2-6.4-5.2c-3.3,0-4.6,0.5-6.9,2.8c-0.9,0.9-7.2,7.7-8.3,7.9c-2.4,0.4-6.1-1.1-6.1,1.9
		c0,2.7,4.6,1.9,6.4,1.9c2,0,2.6-1.1,3.6-2.1c0.9-0.9,2.1-1.9,2.8-2.9l5.8,5.6c-1,1.4-4.7,4.9-6.2,6.3c-1.4,1.4-2.5,1.1-5,1.1h-12.3
		c-2.3,0-4.3-0.4-4.7,1.5c-0.4,2,0,9.7,0,12.3l-15.4,6.2c0-1.7,0-3.3,0-5c0-1.8,0.1-3.6-2.1-3.6c-0.8,0-10.5,10.1-11.8,11.4
		c-1.2,1.2-2.6,3-4.8,3c-2.3,0-4-1.8-4-4V90.2h8.1v1.2c0,1.2-2.8,2.2-2.8,4c0,1.5,1.4,3,4.2,0.2c5.1-5.2,10.4-11.4,16.5-15.1
		c10.6-6.4,18.5-0.9,18.5-6c0-1.9-3.9-1.4-5.9-1.4c1.2-2.5-0.7-10.4-1.7-12.3c4.8-0.4-0.3-7.5-1.6-8.8c-4.9-4.8-11.1-5.9-17.4-3.3
		c-1.6,0.6-2.9,1.6-4.1,2.8C82.8,54,80.7,57.3,80.7,61.3 M99.7,63.2c0,1.5-0.7,2.7-1.4,3.6c-1.4,1.8-4.7,2.1-7.1,2.8
		c-5.5,1.6-5,1.3-6-2.6c-0.3-1.1-0.9-3.2-0.9-4.6c0-8.8,9.5-14.2,17.2-10.1c2.4,1.3,3.7,3.2,4.8,5.4c-1,0-4,0.9-5.2,1.2
		C98.1,59.7,99.7,61.2,99.7,63.2z M135.2,69.4c3.9-5.8,8.8-2.8,8.8,0.2c0,3.9-1.4,3-3.1,5.5L135.2,69.4z M94.5,78.1
		c-0.4-0.3-0.1-0.1-0.6-0.4c-0.9-0.6-1-0.5-1.9-1.4c-0.7-0.7-1.4-1.8-1.8-2.7c1.5-0.1,7.7-1.8,9.2-2.9c3.2-2.3,3.9-4.7,3.9-8.5
		c0.6-0.1,1.2-0.2,1.7-0.5c0.3,1.4,0.7,2.5,1,3.9c0.5,2.1,1.4,5,0.5,7.1c-0.5,1.2-1.6,0.9-3.3,1.4C100.3,75,96.8,76.6,94.5,78.1z
		 M144.5,76.9c0.3-1.2,1.5-1.7,2.1-2.6c0.4-0.5,0.6-0.9,0.8-1.6c0.4-1.3-0.1-1.4,1.6-1.4c5.3,0,8.9,5.7,1.9,5.7
		C148.8,76.9,146.7,76.9,144.5,76.9z M75.5,84.3H76c1.9,0,2.6,1,3.3,2.1h-7.1C72.8,85.2,73.6,84.3,75.5,84.3z M67.9,88.6v3.1
		c-3.2,0-7.1,0.7-7.1-2.4c0-3.1,5-3.3,7.4-3.3C68.2,87.1,67.9,87.2,67.9,88.6z M127.4,131.7c-4,0-8.5,0.8-8.5-2.4
		c0-3.3,3-1.2,4.3-1.2c2.4,0,3.2-0.8,4.3-1.2c1.5-0.6,4.2,2.2,2,4.1C128.9,131.5,128.3,131.7,127.4,131.7z"/>
	<path class="st0" d="M68.6,128.4c0,1.8,0.9,3.4,1.8,4.3c2.4,2.5,6.5,1.8,10.7,1.8c1.7,0,3.4-0.8,4.3-1.6c2.6-2.4,2.7-7-1.1-9.6
		c-5.2-3.6-12.1-1.9-14.7,1.9C69.2,125.9,68.6,127.4,68.6,128.4 M81.9,130.8h-7.4c-3.2,0-3.5-5.7,3.8-5.7c1.8,0,3.7,0.8,4.6,1.8
		C84.8,128.6,83,130.8,81.9,130.8z"/>
	<path class="st0" d="M134.3,162.8c0,3,2.5,5.9,5.5,5.9h7.8c2.9,0,5.5-2.6,5.5-6.4c0-3.6-4.9-6.6-8.5-6.6c-3,0-4.8,0.2-7.4,2.1
		C135.7,158.8,134.3,160.4,134.3,162.8 M146.7,165.2c-5.7,0-8.5,0.9-8.5-2.8c0-1.5,5-4.8,10-1.7
		C150.4,162.1,149.5,165.2,146.7,165.2z"/>
	<path class="st0" d="M49.4,53.9c0,3.8,2.4,6.4,5.5,6.4h7.3c3.8,0,6.7-3.7,5.6-7.5c-0.8-2.7-4.7-5.5-8.2-5.5h-1.4
		C54.3,47.3,49.4,50.2,49.4,53.9 M53,54.4c0-1.2,1.1-2,2-2.5c4.3-2.4,9.4,0.1,9.4,2.5c0,3.1-4.4,2.4-8.1,2.4
		C54.6,56.8,53,56.1,53,54.4z"/>
	<path class="st0" d="M147.8,105.2c0,2.6,2.2,5.9,5.9,5.9h7.4c3.1,0,5.5-2.6,5.5-6.4c0-3.8-4.8-6.6-8.8-6.6c-3.6,0-7.2,1.2-9,4
		C148.4,102.7,147.8,104.1,147.8,105.2 M160.2,107.5c-4,0-8.5,0.8-8.5-2.4c0-2.4,3.9-3.5,5.7-3.5
		C163.5,101.6,164.7,107.5,160.2,107.5z"/>
</g>
</svg>
