<?xml version="1.0" encoding="utf-8"?>
<!-- Generator: Adobe Illustrator 25.2.0, SVG Export Plug-In . SVG Version: 6.00 Build 0)  -->
<svg version="1.1" id="Layer_1" xmlns="http://www.w3.org/2000/svg" xmlns:xlink="http://www.w3.org/1999/xlink" x="0px" y="0px"
	 viewBox="0 0 216 216" style="enable-background:new 0 0 216 216;" xml:space="preserve">
<style type="text/css">
	.st0{fill-rule:evenodd;clip-rule:evenodd;fill:#FFFFFF;}
</style>
<g>
	<path class="st0" d="M55,97.4v18.9h-4.9v-3.8c4.8,0,2.8-3.2,1.6-3.2c-6.7,0-7.8-0.7-7.8,1.9c0,1.5,2.1,1.4,3,1.4
		c0,2.5-0.2,4.4,0.3,6.5c1.9,0.9,5.4,0.5,8.1,0.5c0,1.8,0.2,1.7,0.5,3l-14.5,0.1c-3,0.6-2.2,4.8-2.2,8.6c0,2.8,3.1,2.7,4.6,2.7v36.8
		c0,1,0.2,1.5,0.5,2.2c2.3,0.5,5.1,0.3,7.6,0.3c0.6,0,1.4-0.7,1.4-1.4v-37.8h16.2v2.2h-8.1c-8.1,0-8.1,11.6-0.3,11.6h12.4V162
		c-4.7,0-8.8-0.6-12.1,2.5c-2.3,2.1-3.5,5-2.8,8.3c1.5,0.4,0.6,0.4,2.4,0c0.4-0.8,0.7-7.6,6.5-7.6h5.9c0,5.6-0.8,7.8,1.9,7.8
		c2,0,1.4-5.4,1.4-7.8c4.4,0,10.8-0.9,11.8,5.2c0.3,2.1,0.1,2.6,2,2.6c3.2,0,0.6-11.1-8.6-11.1h-5.1v-14.3h12.7
		c6.9,0,7.8-11.6-0.8-11.6h-8.1v-2.2h55.1v2.2c-5.2,0-14.3-1.4-14.3,5.7c0,3.2,2.3,5.9,5.4,5.9h13V162h-5.4c-9,0-12.3,11.1-8.1,11.1
		c2.4,0,0.3-7.8,7.8-7.8h5.4c0,2.2-0.3,5.9,0.5,7.6c1.5,0.4,0.6,0.4,2.4,0c0.5-2.4,0.3-5.1,0.3-7.6c5.1,0,7.9-0.8,10.6,2.4
		c1.2,1.4,1.3,3.2,1.8,5.2c1.5,0.4,0.6,0.4,2.4,0c1.4-5.9-3.6-10.8-9.5-10.8h-5.4v-14.3H155c7.8,0,8-11.6-0.3-11.6h-8.1v-2.2h16.2
		v37.8c0,2.1,4.6,1.4,8.1,1.4c1.1,0,1.4-1.3,1.4-2.4v-36.8c5.4,0,4.6-2,4.6-8.6c0-1.3-1.2-2.4-2.2-2.6l-14.5-0.1
		c0.4-0.9,0.6-1.9,0.8-3c9.3,0,8.1,1.3,8.1-7c5.3,0,2.9-3.2,1.9-3.2c-4.4,0-8.1-0.8-8.1,1.6c0,1.7,1.9,1.6,3.2,1.6v3.8H161V97.1
		c0-5.5-4.8-7.6-9.7-7.6H131c-5.3,0-9.7,2.5-9.7,7.3v19.5h-4.9v-3.8c4.9,0,2.7-3.2,1.6-3.2h-6.8c-1.3,0-2.9,3.2,1.9,3.2
		c0,8.3-1.2,7,8.1,7c0.2,0.8,0.5,2.3,0.8,3H94.2c0-1.3,0.4-1.8,0.5-3c9.5,0,8.4,1,8.4-7c4.8,0,2.8-3.2,1.6-3.2
		c-2.4,0-5.2-0.3-7.6,0.3c-1.4,2.9,1,3,2.7,3v3.8h-5.1V96.6c0-2.2-1.7-4.4-3-5.4c-2.1-1.4-3.9-1.7-6.7-1.7H64.8
		C59.3,89.6,55,92,55,97.4 M81.5,128.7h-13c-5.1,0-10.3-5.1-10.3-10.3V97.4c0-2.9,2.4-4.6,5.4-4.6h22.7c3.5,0,5.4,1.9,5.4,5.4v18.1
		c0,3.7-0.9,6.7-2.8,8.6C87.1,126.8,85.1,128.7,81.5,128.7z M147.5,128.7h-12.7c-5.2,0-10.3-5.2-10.3-10V97.1c0-2.9,2.3-4.3,5.1-4.3
		h23c2.8,0,5.1,1.6,5.1,4.3v21.3C157.7,123.7,152.7,128.7,147.5,128.7z M173.7,130.6l-20.2-0.2l3-2.1c4.1-3.7-1.9-2.8,16.7-2.8
		C174.6,125.5,173.7,127.6,173.7,130.6z M42.3,125.5h15.1c0.2,0.9,0.3,0.7,1,1.5c1.1,1.4,2.3,2.1,3.7,3.1l0.3,0.2
		c0.5,0.4,0.2,0.1,0.4,0.4H42.1C42.1,128.6,42.3,127.6,42.3,125.5z M93.1,125.5h29.7c0.7,0,1.1,0.7,1.5,1.2c1.1,1.4,1.5,1.7,2.9,2.7
		l1.8,1.2H86.9l0.8-0.6c0.3-0.2,0.5-0.3,0.8-0.5c1.1-0.7,2.2-1.6,3-2.7C92,126.4,92.3,125.5,93.1,125.5z M72.6,132h4.9v4.1h-4.9V132
		z M138.8,132h4.9v4.1h-4.9V132z M58.3,142c0-1.6,1-2.7,2.4-2.7h28.4c3.3,0,3.4,5.1,0,5.1H60.7C59.4,144.4,58.3,143.3,58.3,142z
		 M124.5,142c0-1.6,1-2.7,2.4-2.7h28.4c3.2,0,3.2,5.1,0,5.1h-28.4C125.6,144.4,124.5,143.3,124.5,142z M46.9,133.9h3v35.9h-3V133.9z
		 M166.1,133.9h3v35.9h-3V133.9z"/>
	<path class="st0" d="M39.4,43.1c-0.6,2.5-0.3,7-0.3,9.7c0,0.6,0.7,1.4,1.4,1.4h33v3.8c-6.2,0-10.9-1-14.3,3.8c-1.6,2.3-2.8,7-0.3,7
		h10.5c0,2.5,0,3.8,1.3,5.7c2.8,4,9.7,1.8,9.7-3.3v-2.4h10.3c4.6,0,0.6-10.8-6.8-10.8h-7.3v-3.8h62.7v3.8c-5.4,0-10-0.9-13.4,2.8
		c-2.2,2.3-4.2,8-0.7,8h10.3v2.4c0,6.6,11.1,8.1,11.1-1.4v-1.1h10.3c4.2,0,0.9-7.8-3-9.7c-3.2-1.6-6.9-1.1-11.4-1.1v-3.8
		c5.2,0,31.1,0.4,34-0.3c0.5-2.1,0.5-8.7,0-10.8c-0.6-0.1-0.6-0.3-1.4-0.3H40.7C40.3,42.8,39.7,43,39.4,43.1 M42.1,46.1h131.9v4.9
		H42.1V46.1z M65.8,61.2H84c2.6,0,5,2.3,5.1,4.3H60.7C61.2,63.3,63.4,61.2,65.8,61.2z M132.1,61.2h18.1c2.4,0,4.6,1.9,5.1,4.3h-28.4
		C127.4,63.3,129.4,61.2,132.1,61.2z M72.6,70.4v-1.6h4.6c0,1.8,0.4,4.6-2.2,4.6C73.5,73.4,72.6,72.1,72.6,70.4z M138.8,70.9v-2.2
		h4.6v2.7c0,0.9-1.3,1.9-2.2,1.9C139.9,73.4,138.8,72.3,138.8,70.9z"/>
</g>
</svg>
