<?xml version="1.0" encoding="utf-8"?>
<!-- Generator: Adobe Illustrator 25.2.0, SVG Export Plug-In . SVG Version: 6.00 Build 0)  -->
<svg version="1.1" id="Layer_1" xmlns="http://www.w3.org/2000/svg" xmlns:xlink="http://www.w3.org/1999/xlink" x="0px" y="0px"
	 viewBox="0 0 216 216" style="enable-background:new 0 0 216 216;" xml:space="preserve">
<style type="text/css">
	.st0{fill-rule:evenodd;clip-rule:evenodd;fill:#FFFFFF;}
</style>
<g>
	<path class="st0" d="M139.4,76.7c-3.9,0-6.9-3-6.9-7.7c0-1.6,1.4-4.5,2.2-6c1-1.9,3.7-8.1,5-9.1c0.3,1.2,6.9,11.5,6.9,15.5
		C146.6,73.5,143.4,76.7,139.4,76.7 M146.1,82.7c4,2.7,9,9.2,10.5,13.4c1.4,3.8,2.1,10.7-2.2,13.4c-1.6,1-3.1,0.7-5.5,0.7l-1-14.1
		L146.1,82.7z M138.7,81.5c2.5,0,2-0.6,2.9,4c0.3,1.5,0.5,3.1,0.8,4.8c0.4,3.1,0.9,6.8,1.1,10.1c-1.6,0-2.1,0.2-3.6,0.2
		c-1.8,0-2.7-0.2-4.5-0.2c0.5-5.4,1.1-11.7,2.3-17C137.9,82.5,137.9,81.5,138.7,81.5z M138.7,46.8h1.3c1.4,0.5,2.4,2.5,2.7,2.9
		l3.2,5.6c1.6,3.3,5.9,10.6,5.5,14.6c-0.5,5.9-2.8,6.7-3.2,8.2c1.9,1.3,3.4,2.8,5,4.4c1.7,1.7,2.7,3,4.2,4.9
		c2.2,2.9,5.2,8.4,5.2,13.2c0,4-0.2,8-3.2,10.9c-3.6,3.7-5.5,3.6-10.5,3.6v12.9c0,1.5-0.2,1.8-0.2,3.1c0,1.1,0.1,2.3,0,3.3l-0.7,9.3
		c-0.3,5.8-2.6,25.3-8.1,25.3h-1c-8.2,0-9.1-37.7-9.1-49c-0.8,0.2-0.6,0.3-1.3,0.9c-0.5,0.5-0.6,0.4-1.1,0.9
		c-3.1,2.5-5.8,8.1-6.7,12.5c-1.5,7.3,1.5,11.7-2.6,20.4c-0.6,1.2-1.4,2.5-2.2,3.5c-1.6,2.2-3.5,3.9-5.8,5.5
		c-10.1,6.8-21.6,4-31.3-1.9c-5.1-3.1-7.4-5.2-11.3-9l-4-4.8c-0.9-1.2-1.5-2.1-2.4-3.4c-1.4-2.2-2.9-5-3.9-7.5
		c-0.9-2.2-4.8-13.5-3.6-15.9c0.9-1.8,4.4-2.2,4.8,1.6c0.3,3.8,1.9,8.7,3.2,12.1c1.4,3.7,3.4,6.8,5.6,9.9l4.7,5.6
		c5.4,5.4,16.1,12.4,23.3,12.4c5.8,0,9.2-0.4,13.7-4.2c0.6-0.5,0.8-0.5,1.3-1.1c2.1-2.2,3.7-4.7,4.6-7.9c2.1-7.5-2.5-14.4,5.1-26.2
		c2.2-3.5,6.1-7.2,9.8-9.1c0-7,0.8-19.6,2-26.6l1.6-7.8c-2-0.5-4.5-3.9-5.3-6.2c-0.6-1.7-0.3-1.3-1.8-1.8
		c-12.7-5.2-25.8-6.2-38.8-0.7c-2.7,1.1-4.9,2.3-7.2,3.8c-2.1,1.4-7.5,5.5-8.9,7.3c-3.1,3.9-3.9,4.1-6.9,9.3
		c-2.1,3.7-3.7,7.4-4.8,11.7c-1.2,4.4-5,2.5-5,0.3c0-4,5-14.3,7.6-17.8c0.5-0.6,0.7-1.1,1.2-1.7l3.8-4.6c2.9-3.8,9.9-8.4,14-10.9
		c1.2-0.7,2.4-1.1,3.7-1.8c11.2-5.4,26.5-5.4,38.4-1.4c1.6,0.5,2.9,1.2,4.4,1.5c0.2-1.5,2.5-6.7,3.4-8.4c1.7-3.4,3.8-6.6,5.7-9.9
		c0.2-0.4,0.5-0.9,0.8-1.1C138.1,47.1,138.4,46.9,138.7,46.8z M139.7,163h-0.5c-1-4-1.4-3.8-2.3-9.5c-0.6-3.6-0.8-7.2-1.3-10.7
		c-0.3-2.5-0.3-9-0.7-11.3c-0.3-1.9,0-3.9-0.1-5.9l-0.2-5.7c0-1.3,0-2.6,0-3.8l0.5-11c1.8,0.4,6.8,0.4,8.6,0c0,2.4,0.3,4.5,0.2,7.2
		l0.3,10.1c0,1.4-0.2,1.6-0.3,2.9c0,1.8,0.2,4.2,0,6c-0.4,3.5-0.4,7.6-0.7,11.3c-0.4,5.2-1.1,10.6-2.2,15.7
		C140.7,159.9,140,161.4,139.7,163z"/>
	<path class="st0" d="M98.8,83.4v1.4c0,4.4,4.4,8.8,8.8,8.8h1.4c4.4,0,8.8-4.4,8.8-8.8v-1.4c0-4.4-4.4-8.8-8.8-8.8h-1.4
		C103.2,74.5,98.8,79,98.8,83.4 M103.6,84.1c0-2.4,2.3-4.8,4.8-4.8c2.5,0,4.8,2.3,4.8,4.8c0,2.4-2.3,4.8-4.8,4.8
		C105.9,88.9,103.6,86.5,103.6,84.1z"/>
	<path class="st0" d="M72.5,95.3v1.4c0,4.4,4.4,8.8,8.8,8.8h1.4c4.4,0,8.8-4.4,8.8-8.8v-1.4c0-4.4-4.5-8.8-8.8-8.8h-1.4
		C76.9,86.5,72.5,90.9,72.5,95.3 M77.3,96c0-2.4,2.4-4.8,4.8-4.8c2.4,0,4.8,2.3,4.8,4.8c0,2.4-2.3,4.8-4.8,4.8
		C79.6,100.8,77.3,98.5,77.3,96z"/>
	<path class="st0" d="M65.3,124v1.4c0,4.4,4.4,8.8,8.8,8.8h1.4c4.4,0,8.8-4.4,8.8-8.8V124c0-4.4-4.5-8.8-8.8-8.8h-1.4
		C69.7,115.2,65.3,119.6,65.3,124 M70.1,124.7c0-2.4,2.4-4.8,4.8-4.8c2.4,0,4.8,2.3,4.8,4.8c0,2.4-2.3,4.8-4.8,4.8
		C72.5,129.5,70.1,127.2,70.1,124.7z"/>
	<path class="st0" d="M86.8,143.1v1.4c0,4.4,4.5,8.8,8.8,8.8h1.4c4.4,0,8.8-4.4,8.8-8.8v-1.4c0-4.4-4.5-8.8-8.8-8.8h-1.4
		C91.3,134.3,86.8,138.7,86.8,143.1 M91.6,143.9c0-2.4,2.3-4.8,4.8-4.8c2.4,0,4.8,2.3,4.8,4.8c0,2.4-2.3,4.8-4.8,4.8
		C94,148.6,91.6,146.3,91.6,143.9z"/>
	<path class="st0" d="M53.4,112.5c0,3.6,4.8,3.6,4.8,0C58.1,109.7,53.4,109.7,53.4,112.5"/>
</g>
</svg>
